<?xml version="1.0" encoding="UTF-8" standalone="no"?>
<!DOCTYPE svg PUBLIC "-//W3C//DTD SVG 1.1//EN"
 "http://www.w3.org/Graphics/SVG/1.1/DTD/svg11.dtd">
<!-- Generated by graphviz version 12.0.0 (20240704.0754)
 -->
<!-- Title: G Pages: 1 -->
<svg width="266pt" height="122pt"
 viewBox="0.00 0.00 266.08 122.00" xmlns="http://www.w3.org/2000/svg" xmlns:xlink="http://www.w3.org/1999/xlink">
<g id="graph0" class="graph" transform="scale(1 1) rotate(0) translate(4 118)">
<title>G</title>
<polygon fill="white" stroke="none" points="-4,4 -4,-118 262.08,-118 262.08,4 -4,4"/>
<g id="clust1" class="cluster">
<title>cluster_</title>
</g>
<!-- 0 -->
<g id="node1" class="node">
<title>0</title>
<ellipse fill="none" stroke="black" cx="16.72" cy="-62" rx="0.72" ry="0.72"/>
</g>
<!-- 1 -->
<g id="node2" class="node">
<title>1</title>
<ellipse fill="none" stroke="black" cx="166.48" cy="-18" rx="0.72" ry="0.72"/>
</g>
<!-- 0&#45;&gt;1 -->
<g id="edge1" class="edge">
<title>0&#45;&gt;1</title>
<path fill="none" stroke="black" d="M17.89,-61.73C22.29,-59.06 58.5,-37.42 90.88,-28 112.6,-21.68 139.05,-19.34 153.99,-18.48"/>
<polygon fill="black" stroke="black" points="153.92,-21.99 163.76,-18.07 153.62,-14.99 153.92,-21.99"/>
</g>
<!-- 10 -->
<g id="node11" class="node">
<title>10</title>
<ellipse fill="none" stroke="black" cx="166.48" cy="-57" rx="0.72" ry="0.72"/>
</g>
<!-- 0&#45;&gt;10 -->
<g id="edge11" class="edge">
<title>0&#45;&gt;10</title>
<path fill="none" stroke="black" d="M17.86,-62.27C23.43,-65.84 83.93,-103.59 129.76,-87 141.23,-82.85 151.62,-73.26 158.26,-66.03"/>
<polygon fill="black" stroke="black" points="160.89,-68.34 164.6,-58.42 155.51,-63.86 160.89,-68.34"/>
</g>
<!-- 11 -->
<g id="node12" class="node">
<title>11</title>
<ellipse fill="none" stroke="black" cx="54.16" cy="-62" rx="0.72" ry="0.72"/>
</g>
<!-- 0&#45;&gt;11 -->
<g id="edge2" class="edge">
<title>0&#45;&gt;11</title>
<path fill="none" stroke="black" d="M17.84,-62C20.19,-62 32.28,-62 41.73,-62"/>
<polygon fill="black" stroke="black" points="41.57,-65.5 51.57,-62 41.57,-58.5 41.57,-65.5"/>
</g>
<!-- 2 -->
<g id="node3" class="node">
<title>2</title>
<ellipse fill="none" stroke="black" cx="129.04" cy="-37" rx="0.72" ry="0.72"/>
</g>
<!-- 2&#45;&gt;1 -->
<g id="edge6" class="edge">
<title>2&#45;&gt;1</title>
<path fill="none" stroke="black" d="M130.16,-36.79C132.63,-35.49 145.82,-28.52 155.43,-23.45"/>
<polygon fill="black" stroke="black" points="156.85,-26.66 164.07,-18.89 153.59,-20.47 156.85,-26.66"/>
</g>
<!-- 4 -->
<g id="node5" class="node">
<title>4</title>
<ellipse fill="none" stroke="black" cx="166.48" cy="-37" rx="0.72" ry="0.72"/>
</g>
<!-- 2&#45;&gt;4 -->
<g id="edge3" class="edge">
<title>2&#45;&gt;4</title>
<path fill="none" stroke="black" d="M130.16,-37C132.51,-37 144.6,-37 154.05,-37"/>
<polygon fill="black" stroke="black" points="153.89,-40.5 163.89,-37 153.89,-33.5 153.89,-40.5"/>
</g>
<!-- 2&#45;&gt;10 -->
<g id="edge8" class="edge">
<title>2&#45;&gt;10</title>
<path fill="none" stroke="black" d="M130.16,-37.22C132.63,-38.59 145.82,-45.92 155.43,-51.26"/>
<polygon fill="black" stroke="black" points="153.64,-54.27 164.08,-56.07 157.04,-48.15 153.64,-54.27"/>
</g>
<!-- 3 -->
<g id="node4" class="node">
<title>3</title>
<ellipse fill="none" stroke="black" cx="241.36" cy="-27" rx="0.72" ry="0.72"/>
</g>
<!-- 4&#45;&gt;3 -->
<g id="edge5" class="edge">
<title>4&#45;&gt;3</title>
<path fill="none" stroke="black" d="M167.42,-36.91C169.63,-36.05 187.77,-29.1 203.2,-27 211.77,-25.83 221.56,-25.88 228.97,-26.19"/>
<polygon fill="black" stroke="black" points="228.67,-29.68 238.89,-26.87 229.15,-22.7 228.67,-29.68"/>
</g>
<!-- 8 -->
<g id="node9" class="node">
<title>8</title>
<ellipse fill="none" stroke="black" cx="203.92" cy="-37" rx="0.72" ry="0.72"/>
</g>
<!-- 4&#45;&gt;8 -->
<g id="edge10" class="edge">
<title>4&#45;&gt;8</title>
<path fill="none" stroke="black" d="M167.6,-37C169.95,-37 182.04,-37 191.49,-37"/>
<polygon fill="black" stroke="black" points="191.33,-40.5 201.33,-37 191.33,-33.5 191.33,-40.5"/>
</g>
<!-- 5 -->
<g id="node6" class="node">
<title>5</title>
<ellipse fill="none" stroke="black" cx="91.6" cy="-57" rx="0.72" ry="0.72"/>
</g>
<!-- 5&#45;&gt;2 -->
<g id="edge15" class="edge">
<title>5&#45;&gt;2</title>
<path fill="none" stroke="black" d="M92.72,-56.78C95.19,-55.41 108.38,-48.08 117.99,-42.74"/>
<polygon fill="black" stroke="black" points="119.6,-45.85 126.64,-37.93 116.2,-39.73 119.6,-45.85"/>
</g>
<!-- 6 -->
<g id="node7" class="node">
<title>6</title>
<ellipse fill="none" stroke="black" cx="129.04" cy="-77" rx="0.72" ry="0.72"/>
</g>
<!-- 5&#45;&gt;6 -->
<g id="edge7" class="edge">
<title>5&#45;&gt;6</title>
<path fill="none" stroke="black" d="M92.72,-57.22C95.19,-58.59 108.38,-65.92 117.99,-71.26"/>
<polygon fill="black" stroke="black" points="116.2,-74.27 126.64,-76.07 119.6,-68.15 116.2,-74.27"/>
</g>
<!-- 7 -->
<g id="node8" class="node">
<title>7</title>
<ellipse fill="none" stroke="black" cx="16.72" cy="-91" rx="0.72" ry="0.72"/>
</g>
<!-- 8&#45;&gt;3 -->
<g id="edge13" class="edge">
<title>8&#45;&gt;3</title>
<path fill="none" stroke="black" d="M205.04,-36.89C207.42,-36.23 219.78,-32.79 229.28,-30.16"/>
<polygon fill="black" stroke="black" points="230.13,-33.55 238.83,-27.5 228.25,-26.81 230.13,-33.55"/>
</g>
<!-- 9 -->
<g id="node10" class="node">
<title>9</title>
<ellipse fill="none" stroke="black" cx="91.6" cy="-38" rx="0.72" ry="0.72"/>
</g>
<!-- 9&#45;&gt;2 -->
<g id="edge14" class="edge">
<title>9&#45;&gt;2</title>
<path fill="none" stroke="black" d="M92.72,-37.99C95.07,-37.92 107.16,-37.59 116.61,-37.33"/>
<polygon fill="black" stroke="black" points="116.55,-40.83 126.45,-37.05 116.36,-33.83 116.55,-40.83"/>
</g>
<!-- 9&#45;&gt;10 -->
<g id="edge12" class="edge">
<title>9&#45;&gt;10</title>
<path fill="none" stroke="black" d="M92.79,-38.12C97.4,-39.31 134.87,-49.01 154.24,-54.02"/>
<polygon fill="black" stroke="black" points="153.31,-57.39 163.87,-56.51 155.06,-50.62 153.31,-57.39"/>
</g>
<!-- 11&#45;&gt;5 -->
<g id="edge9" class="edge">
<title>11&#45;&gt;5</title>
<path fill="none" stroke="black" d="M55.28,-61.94C57.63,-61.62 69.72,-59.94 79.17,-58.63"/>
<polygon fill="black" stroke="black" points="79.6,-62.1 89.02,-57.26 78.64,-55.17 79.6,-62.1"/>
</g>
<!-- 11&#45;&gt;6 -->
<g id="edge4" class="edge">
<title>11&#45;&gt;6</title>
<path fill="none" stroke="black" d="M55.35,-62.1C59.96,-63.04 97.43,-70.69 116.8,-74.65"/>
<polygon fill="black" stroke="black" points="115.91,-78.04 126.41,-76.61 117.31,-71.18 115.91,-78.04"/>
</g>
</g>
</svg>
