<?xml version="1.0" encoding="UTF-8" standalone="no"?>
<!DOCTYPE svg PUBLIC "-//W3C//DTD SVG 1.1//EN"
 "http://www.w3.org/Graphics/SVG/1.1/DTD/svg11.dtd">
<!-- Generated by graphviz version 12.0.0 (20240704.0754)
 -->
<!-- Title: G Pages: 1 -->
<svg width="154pt" height="137pt"
 viewBox="0.00 0.00 153.76 137.00" xmlns="http://www.w3.org/2000/svg" xmlns:xlink="http://www.w3.org/1999/xlink">
<g id="graph0" class="graph" transform="scale(1 1) rotate(0) translate(4 133)">
<title>G</title>
<polygon fill="white" stroke="none" points="-4,4 -4,-133 149.76,-133 149.76,4 -4,4"/>
<g id="clust1" class="cluster">
<title>cluster_</title>
</g>
<!-- 0 -->
<g id="node1" class="node">
<title>0</title>
<ellipse fill="none" stroke="black" cx="16.72" cy="-17" rx="0.72" ry="0.72"/>
</g>
<!-- 3 -->
<g id="node4" class="node">
<title>3</title>
<ellipse fill="none" stroke="black" cx="54.16" cy="-17" rx="0.72" ry="0.72"/>
</g>
<!-- 0&#45;&gt;3 -->
<g id="edge6" class="edge">
<title>0&#45;&gt;3</title>
<path fill="none" stroke="black" d="M17.84,-17C20.19,-17 32.28,-17 41.73,-17"/>
<polygon fill="black" stroke="black" points="41.57,-20.5 51.57,-17 41.57,-13.5 41.57,-20.5"/>
</g>
<!-- 1 -->
<g id="node2" class="node">
<title>1</title>
<ellipse fill="none" stroke="black" cx="91.6" cy="-17" rx="0.72" ry="0.72"/>
</g>
<!-- 2 -->
<g id="node3" class="node">
<title>2</title>
<ellipse fill="none" stroke="black" cx="16.72" cy="-36" rx="0.72" ry="0.72"/>
</g>
<!-- 3&#45;&gt;1 -->
<g id="edge7" class="edge">
<title>3&#45;&gt;1</title>
<path fill="none" stroke="black" d="M55.28,-17C57.63,-17 69.72,-17 79.17,-17"/>
<polygon fill="black" stroke="black" points="79.01,-20.5 89.01,-17 79.01,-13.5 79.01,-20.5"/>
</g>
<!-- 4 -->
<g id="node5" class="node">
<title>4</title>
<ellipse fill="none" stroke="black" cx="91.6" cy="-112" rx="0.72" ry="0.72"/>
</g>
<!-- 9 -->
<g id="node10" class="node">
<title>9</title>
<ellipse fill="none" stroke="black" cx="129.04" cy="-102" rx="0.72" ry="0.72"/>
</g>
<!-- 4&#45;&gt;9 -->
<g id="edge5" class="edge">
<title>4&#45;&gt;9</title>
<path fill="none" stroke="black" d="M92.72,-111.89C95.1,-111.23 107.46,-107.79 116.96,-105.16"/>
<polygon fill="black" stroke="black" points="117.81,-108.55 126.51,-102.5 115.93,-101.81 117.81,-108.55"/>
</g>
<!-- 5 -->
<g id="node6" class="node">
<title>5</title>
<ellipse fill="none" stroke="black" cx="16.72" cy="-55" rx="0.72" ry="0.72"/>
</g>
<!-- 6 -->
<g id="node7" class="node">
<title>6</title>
<ellipse fill="none" stroke="black" cx="16.72" cy="-74" rx="0.72" ry="0.72"/>
</g>
<!-- 7 -->
<g id="node8" class="node">
<title>7</title>
<ellipse fill="none" stroke="black" cx="54.16" cy="-92" rx="0.72" ry="0.72"/>
</g>
<!-- 7&#45;&gt;4 -->
<g id="edge3" class="edge">
<title>7&#45;&gt;4</title>
<path fill="none" stroke="black" d="M55.28,-92.22C57.75,-93.59 70.94,-100.92 80.55,-106.26"/>
<polygon fill="black" stroke="black" points="78.76,-109.27 89.2,-111.07 82.16,-103.15 78.76,-109.27"/>
</g>
<!-- 7&#45;&gt;9 -->
<g id="edge4" class="edge">
<title>7&#45;&gt;9</title>
<path fill="none" stroke="black" d="M55.35,-92.06C59.94,-92.69 97.05,-97.74 116.51,-100.39"/>
<polygon fill="black" stroke="black" points="116.01,-103.86 126.39,-101.74 116.96,-96.92 116.01,-103.86"/>
</g>
<!-- 8 -->
<g id="node9" class="node">
<title>8</title>
<ellipse fill="none" stroke="black" cx="16.72" cy="-93" rx="0.72" ry="0.72"/>
</g>
<!-- 10 -->
<g id="node11" class="node">
<title>10</title>
<ellipse fill="none" stroke="black" cx="16.72" cy="-112" rx="0.72" ry="0.72"/>
</g>
<!-- 10&#45;&gt;4 -->
<g id="edge1" class="edge">
<title>10&#45;&gt;4</title>
<path fill="none" stroke="black" d="M17.91,-112C22.5,-112 59.61,-112 79.07,-112"/>
<polygon fill="black" stroke="black" points="78.94,-115.5 88.94,-112 78.94,-108.5 78.94,-115.5"/>
</g>
<!-- 10&#45;&gt;7 -->
<g id="edge2" class="edge">
<title>10&#45;&gt;7</title>
<path fill="none" stroke="black" d="M17.84,-111.78C20.31,-110.41 33.5,-103.08 43.11,-97.74"/>
<polygon fill="black" stroke="black" points="44.72,-100.85 51.76,-92.93 41.32,-94.73 44.72,-100.85"/>
</g>
</g>
</svg>
