<?xml version="1.0" encoding="UTF-8" standalone="no"?>
<!DOCTYPE svg PUBLIC "-//W3C//DTD SVG 1.1//EN"
 "http://www.w3.org/Graphics/SVG/1.1/DTD/svg11.dtd">
<!-- Generated by graphviz version 12.0.0 (20240704.0754)
 -->
<!-- Title: G Pages: 1 -->
<svg width="116pt" height="138pt"
 viewBox="0.00 0.00 116.32 138.00" xmlns="http://www.w3.org/2000/svg" xmlns:xlink="http://www.w3.org/1999/xlink">
<g id="graph0" class="graph" transform="scale(1 1) rotate(0) translate(4 134)">
<title>G</title>
<polygon fill="white" stroke="none" points="-4,4 -4,-134 112.32,-134 112.32,4 -4,4"/>
<g id="clust1" class="cluster">
<title>cluster_</title>
</g>
<!-- 0 -->
<g id="node1" class="node">
<title>0</title>
<ellipse fill="none" stroke="black" cx="16.72" cy="-18" rx="0.72" ry="0.72"/>
</g>
<!-- 1 -->
<g id="node2" class="node">
<title>1</title>
<ellipse fill="none" stroke="black" cx="91.6" cy="-37" rx="0.72" ry="0.72"/>
</g>
<!-- 0&#45;&gt;1 -->
<g id="edge1" class="edge">
<title>0&#45;&gt;1</title>
<path fill="none" stroke="black" d="M17.68,-18.05C20.03,-18.59 39.35,-22.98 54.88,-27 63.24,-29.17 72.64,-31.78 79.74,-33.8"/>
<polygon fill="black" stroke="black" points="78.62,-37.12 89.2,-36.52 80.55,-30.39 78.62,-37.12"/>
</g>
<!-- 3 -->
<g id="node4" class="node">
<title>3</title>
<ellipse fill="none" stroke="black" cx="54.16" cy="-94" rx="0.72" ry="0.72"/>
</g>
<!-- 0&#45;&gt;3 -->
<g id="edge2" class="edge">
<title>0&#45;&gt;3</title>
<path fill="none" stroke="black" d="M17.67,-18.49C19.98,-23.35 39.05,-63.61 48.36,-83.27"/>
<polygon fill="black" stroke="black" points="45.14,-84.65 52.58,-92.19 51.47,-81.65 45.14,-84.65"/>
</g>
<!-- 4 -->
<g id="node5" class="node">
<title>4</title>
<ellipse fill="none" stroke="black" cx="54.16" cy="-75" rx="0.72" ry="0.72"/>
</g>
<!-- 0&#45;&gt;4 -->
<g id="edge7" class="edge">
<title>0&#45;&gt;4</title>
<path fill="none" stroke="black" d="M17.54,-18.16C19.08,-20.59 37.33,-49.5 47.2,-65.12"/>
<polygon fill="black" stroke="black" points="44.24,-66.98 52.53,-73.57 50.15,-63.24 44.24,-66.98"/>
</g>
<!-- 8 -->
<g id="node9" class="node">
<title>8</title>
<ellipse fill="none" stroke="black" cx="54.16" cy="-37" rx="0.72" ry="0.72"/>
</g>
<!-- 0&#45;&gt;8 -->
<g id="edge6" class="edge">
<title>0&#45;&gt;8</title>
<path fill="none" stroke="black" d="M17.84,-18.21C20.31,-19.51 33.5,-26.48 43.11,-31.55"/>
<polygon fill="black" stroke="black" points="41.27,-34.53 51.75,-36.11 44.53,-28.34 41.27,-34.53"/>
</g>
<!-- 2 -->
<g id="node3" class="node">
<title>2</title>
<ellipse fill="none" stroke="black" cx="16.72" cy="-56" rx="0.72" ry="0.72"/>
</g>
<!-- 5 -->
<g id="node6" class="node">
<title>5</title>
<ellipse fill="none" stroke="black" cx="16.72" cy="-37" rx="0.72" ry="0.72"/>
</g>
<!-- 5&#45;&gt;3 -->
<g id="edge3" class="edge">
<title>5&#45;&gt;3</title>
<path fill="none" stroke="black" d="M17.54,-37.16C19.08,-39.59 37.33,-68.5 47.2,-84.12"/>
<polygon fill="black" stroke="black" points="44.24,-85.98 52.53,-92.57 50.15,-82.24 44.24,-85.98"/>
</g>
<!-- 10 -->
<g id="node11" class="node">
<title>10</title>
<ellipse fill="none" stroke="black" cx="54.16" cy="-113" rx="0.72" ry="0.72"/>
</g>
<!-- 5&#45;&gt;10 -->
<g id="edge5" class="edge">
<title>5&#45;&gt;10</title>
<path fill="none" stroke="black" d="M17.67,-37.49C19.98,-42.35 39.05,-82.61 48.36,-102.27"/>
<polygon fill="black" stroke="black" points="45.14,-103.65 52.58,-111.19 51.47,-100.65 45.14,-103.65"/>
</g>
<!-- 6 -->
<g id="node7" class="node">
<title>6</title>
<ellipse fill="none" stroke="black" cx="16.72" cy="-75" rx="0.72" ry="0.72"/>
</g>
<!-- 7 -->
<g id="node8" class="node">
<title>7</title>
<ellipse fill="none" stroke="black" cx="16.72" cy="-94" rx="0.72" ry="0.72"/>
</g>
<!-- 8&#45;&gt;1 -->
<g id="edge4" class="edge">
<title>8&#45;&gt;1</title>
<path fill="none" stroke="black" d="M55.28,-37C57.63,-37 69.72,-37 79.17,-37"/>
<polygon fill="black" stroke="black" points="79.01,-40.5 89.01,-37 79.01,-33.5 79.01,-40.5"/>
</g>
<!-- 9 -->
<g id="node10" class="node">
<title>9</title>
<ellipse fill="none" stroke="black" cx="54.16" cy="-56" rx="0.72" ry="0.72"/>
</g>
<!-- 9&#45;&gt;1 -->
<g id="edge8" class="edge">
<title>9&#45;&gt;1</title>
<path fill="none" stroke="black" d="M55.28,-55.79C57.75,-54.49 70.94,-47.52 80.55,-42.45"/>
<polygon fill="black" stroke="black" points="81.97,-45.66 89.19,-37.89 78.71,-39.47 81.97,-45.66"/>
</g>
<!-- 11 -->
<g id="node12" class="node">
<title>11</title>
<ellipse fill="none" stroke="black" cx="16.72" cy="-113" rx="0.72" ry="0.72"/>
</g>
</g>
</svg>
