<?xml version="1.0" encoding="UTF-8" standalone="no"?>
<!DOCTYPE svg PUBLIC "-//W3C//DTD SVG 1.1//EN"
 "http://www.w3.org/Graphics/SVG/1.1/DTD/svg11.dtd">
<!-- Generated by graphviz version 12.0.0 (20240704.0754)
 -->
<!-- Title: G Pages: 1 -->
<svg width="154pt" height="99pt"
 viewBox="0.00 0.00 153.76 99.00" xmlns="http://www.w3.org/2000/svg" xmlns:xlink="http://www.w3.org/1999/xlink">
<g id="graph0" class="graph" transform="scale(1 1) rotate(0) translate(4 95)">
<title>G</title>
<polygon fill="white" stroke="none" points="-4,4 -4,-95 149.76,-95 149.76,4 -4,4"/>
<g id="clust1" class="cluster">
<title>cluster_</title>
</g>
<!-- 0 -->
<g id="node1" class="node">
<title>0</title>
<ellipse fill="none" stroke="black" cx="16.72" cy="-55" rx="0.72" ry="0.72"/>
</g>
<!-- 4 -->
<g id="node5" class="node">
<title>4</title>
<ellipse fill="none" stroke="black" cx="54.16" cy="-74" rx="0.72" ry="0.72"/>
</g>
<!-- 0&#45;&gt;4 -->
<g id="edge4" class="edge">
<title>0&#45;&gt;4</title>
<path fill="none" stroke="black" d="M17.84,-55.21C20.31,-56.51 33.5,-63.48 43.11,-68.55"/>
<polygon fill="black" stroke="black" points="41.27,-71.53 51.75,-73.11 44.53,-65.34 41.27,-71.53"/>
</g>
<!-- 1 -->
<g id="node2" class="node">
<title>1</title>
<ellipse fill="none" stroke="black" cx="91.6" cy="-55" rx="0.72" ry="0.72"/>
</g>
<!-- 2 -->
<g id="node3" class="node">
<title>2</title>
<ellipse fill="none" stroke="black" cx="16.72" cy="-26" rx="0.72" ry="0.72"/>
</g>
<!-- 5 -->
<g id="node6" class="node">
<title>5</title>
<ellipse fill="none" stroke="black" cx="54.16" cy="-36" rx="0.72" ry="0.72"/>
</g>
<!-- 2&#45;&gt;5 -->
<g id="edge9" class="edge">
<title>2&#45;&gt;5</title>
<path fill="none" stroke="black" d="M17.84,-26.11C20.22,-26.77 32.58,-30.21 42.08,-32.84"/>
<polygon fill="black" stroke="black" points="41.05,-36.19 51.63,-35.5 42.93,-29.45 41.05,-36.19"/>
</g>
<!-- 6 -->
<g id="node7" class="node">
<title>6</title>
<ellipse fill="none" stroke="black" cx="54.16" cy="-17" rx="0.72" ry="0.72"/>
</g>
<!-- 2&#45;&gt;6 -->
<g id="edge1" class="edge">
<title>2&#45;&gt;6</title>
<path fill="none" stroke="black" d="M17.84,-25.9C20.22,-25.31 32.58,-22.21 42.08,-19.84"/>
<polygon fill="black" stroke="black" points="42.76,-23.28 51.62,-17.46 41.07,-16.49 42.76,-23.28"/>
</g>
<!-- 3 -->
<g id="node4" class="node">
<title>3</title>
<ellipse fill="none" stroke="black" cx="16.72" cy="-74" rx="0.72" ry="0.72"/>
</g>
<!-- 4&#45;&gt;1 -->
<g id="edge2" class="edge">
<title>4&#45;&gt;1</title>
<path fill="none" stroke="black" d="M55.28,-73.79C57.75,-72.49 70.94,-65.52 80.55,-60.45"/>
<polygon fill="black" stroke="black" points="81.97,-63.66 89.19,-55.89 78.71,-57.47 81.97,-63.66"/>
</g>
<!-- 9 -->
<g id="node10" class="node">
<title>9</title>
<ellipse fill="none" stroke="black" cx="91.6" cy="-74" rx="0.72" ry="0.72"/>
</g>
<!-- 4&#45;&gt;9 -->
<g id="edge8" class="edge">
<title>4&#45;&gt;9</title>
<path fill="none" stroke="black" d="M55.28,-74C57.63,-74 69.72,-74 79.17,-74"/>
<polygon fill="black" stroke="black" points="79.01,-77.5 89.01,-74 79.01,-70.5 79.01,-77.5"/>
</g>
<!-- 10 -->
<g id="node11" class="node">
<title>10</title>
<ellipse fill="none" stroke="black" cx="91.6" cy="-17" rx="0.72" ry="0.72"/>
</g>
<!-- 6&#45;&gt;10 -->
<g id="edge7" class="edge">
<title>6&#45;&gt;10</title>
<path fill="none" stroke="black" d="M55.28,-17C57.63,-17 69.72,-17 79.17,-17"/>
<polygon fill="black" stroke="black" points="79.01,-20.5 89.01,-17 79.01,-13.5 79.01,-20.5"/>
</g>
<!-- 7 -->
<g id="node8" class="node">
<title>7</title>
<ellipse fill="none" stroke="black" cx="129.04" cy="-55" rx="0.72" ry="0.72"/>
</g>
<!-- 8 -->
<g id="node9" class="node">
<title>8</title>
<ellipse fill="none" stroke="black" cx="54.16" cy="-55" rx="0.72" ry="0.72"/>
</g>
<!-- 11 -->
<g id="node12" class="node">
<title>11</title>
<ellipse fill="none" stroke="black" cx="91.6" cy="-36" rx="0.72" ry="0.72"/>
</g>
<!-- 8&#45;&gt;11 -->
<g id="edge5" class="edge">
<title>8&#45;&gt;11</title>
<path fill="none" stroke="black" d="M55.28,-54.79C57.75,-53.49 70.94,-46.52 80.55,-41.45"/>
<polygon fill="black" stroke="black" points="81.97,-44.66 89.19,-36.89 78.71,-38.47 81.97,-44.66"/>
</g>
<!-- 9&#45;&gt;7 -->
<g id="edge6" class="edge">
<title>9&#45;&gt;7</title>
<path fill="none" stroke="black" d="M92.72,-73.79C95.19,-72.49 108.38,-65.52 117.99,-60.45"/>
<polygon fill="black" stroke="black" points="119.41,-63.66 126.63,-55.89 116.15,-57.47 119.41,-63.66"/>
</g>
<!-- 11&#45;&gt;7 -->
<g id="edge3" class="edge">
<title>11&#45;&gt;7</title>
<path fill="none" stroke="black" d="M92.72,-36.21C95.19,-37.51 108.38,-44.48 117.99,-49.55"/>
<polygon fill="black" stroke="black" points="116.15,-52.53 126.63,-54.11 119.41,-46.34 116.15,-52.53"/>
</g>
</g>
</svg>
