<?xml version="1.0" encoding="UTF-8" standalone="no"?>
<!DOCTYPE svg PUBLIC "-//W3C//DTD SVG 1.1//EN"
 "http://www.w3.org/Graphics/SVG/1.1/DTD/svg11.dtd">
<!-- Generated by graphviz version 12.0.0 (20240704.0754)
 -->
<!-- Title: G Pages: 1 -->
<svg width="154pt" height="99pt"
 viewBox="0.00 0.00 153.76 99.00" xmlns="http://www.w3.org/2000/svg" xmlns:xlink="http://www.w3.org/1999/xlink">
<g id="graph0" class="graph" transform="scale(1 1) rotate(0) translate(4 95)">
<title>G</title>
<polygon fill="white" stroke="none" points="-4,4 -4,-95 149.76,-95 149.76,4 -4,4"/>
<g id="clust1" class="cluster">
<title>cluster_</title>
</g>
<!-- 0 -->
<g id="node1" class="node">
<title>0</title>
<ellipse fill="none" stroke="black" cx="54.16" cy="-36" rx="0.72" ry="0.72"/>
</g>
<!-- 1 -->
<g id="node2" class="node">
<title>1</title>
<ellipse fill="none" stroke="black" cx="91.6" cy="-71" rx="0.72" ry="0.72"/>
</g>
<!-- 0&#45;&gt;1 -->
<g id="edge7" class="edge">
<title>0&#45;&gt;1</title>
<path fill="none" stroke="black" d="M55.28,-36.39C57.92,-38.96 72.86,-53.48 82.52,-62.88"/>
<polygon fill="black" stroke="black" points="79.83,-65.14 89.44,-69.6 84.71,-60.12 79.83,-65.14"/>
</g>
<!-- 7 -->
<g id="node7" class="node">
<title>7</title>
<ellipse fill="none" stroke="black" cx="91.6" cy="-50" rx="0.72" ry="0.72"/>
</g>
<!-- 0&#45;&gt;7 -->
<g id="edge5" class="edge">
<title>0&#45;&gt;7</title>
<path fill="none" stroke="black" d="M55.28,-36.16C57.69,-37.09 70.32,-42.01 79.86,-45.72"/>
<polygon fill="black" stroke="black" points="78.52,-48.95 89.11,-49.31 81.06,-42.43 78.52,-48.95"/>
</g>
<!-- 10 -->
<g id="node9" class="node">
<title>10</title>
<ellipse fill="none" stroke="black" cx="91.6" cy="-26" rx="0.72" ry="0.72"/>
</g>
<!-- 0&#45;&gt;10 -->
<g id="edge3" class="edge">
<title>0&#45;&gt;10</title>
<path fill="none" stroke="black" d="M55.28,-35.89C57.66,-35.23 70.02,-31.79 79.52,-29.16"/>
<polygon fill="black" stroke="black" points="80.37,-32.55 89.07,-26.5 78.49,-25.81 80.37,-32.55"/>
</g>
<!-- 2 -->
<g id="node3" class="node">
<title>2</title>
<ellipse fill="none" stroke="black" cx="54.16" cy="-74" rx="0.72" ry="0.72"/>
</g>
<!-- 2&#45;&gt;1 -->
<g id="edge8" class="edge">
<title>2&#45;&gt;1</title>
<path fill="none" stroke="black" d="M55.28,-73.97C57.63,-73.77 69.72,-72.76 79.17,-71.98"/>
<polygon fill="black" stroke="black" points="79.34,-75.47 89.02,-71.16 78.76,-68.5 79.34,-75.47"/>
</g>
<!-- 3 -->
<g id="node4" class="node">
<title>3</title>
<ellipse fill="none" stroke="black" cx="16.72" cy="-55" rx="0.72" ry="0.72"/>
</g>
<!-- 6 -->
<g id="node6" class="node">
<title>6</title>
<ellipse fill="none" stroke="black" cx="54.16" cy="-55" rx="0.72" ry="0.72"/>
</g>
<!-- 3&#45;&gt;6 -->
<g id="edge2" class="edge">
<title>3&#45;&gt;6</title>
<path fill="none" stroke="black" d="M17.84,-55C20.19,-55 32.28,-55 41.73,-55"/>
<polygon fill="black" stroke="black" points="41.57,-58.5 51.57,-55 41.57,-51.5 41.57,-58.5"/>
</g>
<!-- 4 -->
<g id="node5" class="node">
<title>4</title>
<ellipse fill="none" stroke="black" cx="54.16" cy="-17" rx="0.72" ry="0.72"/>
</g>
<!-- 4&#45;&gt;10 -->
<g id="edge4" class="edge">
<title>4&#45;&gt;10</title>
<path fill="none" stroke="black" d="M55.28,-17.1C57.66,-17.69 70.02,-20.79 79.52,-23.16"/>
<polygon fill="black" stroke="black" points="78.51,-26.51 89.06,-25.54 80.2,-19.72 78.51,-26.51"/>
</g>
<!-- 6&#45;&gt;7 -->
<g id="edge6" class="edge">
<title>6&#45;&gt;7</title>
<path fill="none" stroke="black" d="M55.28,-54.94C57.63,-54.62 69.72,-52.94 79.17,-51.63"/>
<polygon fill="black" stroke="black" points="79.6,-55.1 89.02,-50.26 78.64,-48.17 79.6,-55.1"/>
</g>
<!-- 9 -->
<g id="node8" class="node">
<title>9</title>
<ellipse fill="none" stroke="black" cx="129.04" cy="-50" rx="0.72" ry="0.72"/>
</g>
<!-- 7&#45;&gt;9 -->
<g id="edge1" class="edge">
<title>7&#45;&gt;9</title>
<path fill="none" stroke="black" d="M92.72,-50C95.07,-50 107.16,-50 116.61,-50"/>
<polygon fill="black" stroke="black" points="116.45,-53.5 126.45,-50 116.45,-46.5 116.45,-53.5"/>
</g>
</g>
</svg>
