<?xml version="1.0" encoding="UTF-8" standalone="no"?>
<!DOCTYPE svg PUBLIC "-//W3C//DTD SVG 1.1//EN"
 "http://www.w3.org/Graphics/SVG/1.1/DTD/svg11.dtd">
<!-- Generated by graphviz version 12.0.0 (20240704.0754)
 -->
<!-- Title: G Pages: 1 -->
<svg width="154pt" height="137pt"
 viewBox="0.00 0.00 153.76 137.00" xmlns="http://www.w3.org/2000/svg" xmlns:xlink="http://www.w3.org/1999/xlink">
<g id="graph0" class="graph" transform="scale(1 1) rotate(0) translate(4 133)">
<title>G</title>
<polygon fill="white" stroke="none" points="-4,4 -4,-133 149.76,-133 149.76,4 -4,4"/>
<g id="clust1" class="cluster">
<title>cluster_</title>
</g>
<!-- 0 -->
<g id="node1" class="node">
<title>0</title>
<ellipse fill="none" stroke="black" cx="16.72" cy="-93" rx="0.72" ry="0.72"/>
</g>
<!-- 4 -->
<g id="node5" class="node">
<title>4</title>
<ellipse fill="none" stroke="black" cx="54.16" cy="-83" rx="0.72" ry="0.72"/>
</g>
<!-- 0&#45;&gt;4 -->
<g id="edge4" class="edge">
<title>0&#45;&gt;4</title>
<path fill="none" stroke="black" d="M17.84,-92.89C20.22,-92.23 32.58,-88.79 42.08,-86.16"/>
<polygon fill="black" stroke="black" points="42.93,-89.55 51.63,-83.5 41.05,-82.81 42.93,-89.55"/>
</g>
<!-- 1 -->
<g id="node2" class="node">
<title>1</title>
<ellipse fill="none" stroke="black" cx="91.6" cy="-83" rx="0.72" ry="0.72"/>
</g>
<!-- 2 -->
<g id="node3" class="node">
<title>2</title>
<ellipse fill="none" stroke="black" cx="129.04" cy="-64" rx="0.72" ry="0.72"/>
</g>
<!-- 3 -->
<g id="node4" class="node">
<title>3</title>
<ellipse fill="none" stroke="black" cx="54.16" cy="-64" rx="0.72" ry="0.72"/>
</g>
<!-- 3&#45;&gt;1 -->
<g id="edge1" class="edge">
<title>3&#45;&gt;1</title>
<path fill="none" stroke="black" d="M55.28,-64.21C57.75,-65.51 70.94,-72.48 80.55,-77.55"/>
<polygon fill="black" stroke="black" points="78.71,-80.53 89.19,-82.11 81.97,-74.34 78.71,-80.53"/>
</g>
<!-- 11 -->
<g id="node11" class="node">
<title>11</title>
<ellipse fill="none" stroke="black" cx="91.6" cy="-64" rx="0.72" ry="0.72"/>
</g>
<!-- 3&#45;&gt;11 -->
<g id="edge6" class="edge">
<title>3&#45;&gt;11</title>
<path fill="none" stroke="black" d="M55.28,-64C57.63,-64 69.72,-64 79.17,-64"/>
<polygon fill="black" stroke="black" points="79.01,-67.5 89.01,-64 79.01,-60.5 79.01,-67.5"/>
</g>
<!-- 4&#45;&gt;1 -->
<g id="edge2" class="edge">
<title>4&#45;&gt;1</title>
<path fill="none" stroke="black" d="M55.28,-83C57.63,-83 69.72,-83 79.17,-83"/>
<polygon fill="black" stroke="black" points="79.01,-86.5 89.01,-83 79.01,-79.5 79.01,-86.5"/>
</g>
<!-- 5 -->
<g id="node6" class="node">
<title>5</title>
<ellipse fill="none" stroke="black" cx="16.72" cy="-17" rx="0.72" ry="0.72"/>
</g>
<!-- 7 -->
<g id="node7" class="node">
<title>7</title>
<ellipse fill="none" stroke="black" cx="16.72" cy="-36" rx="0.72" ry="0.72"/>
</g>
<!-- 8 -->
<g id="node8" class="node">
<title>8</title>
<ellipse fill="none" stroke="black" cx="16.72" cy="-55" rx="0.72" ry="0.72"/>
</g>
<!-- 9 -->
<g id="node9" class="node">
<title>9</title>
<ellipse fill="none" stroke="black" cx="16.72" cy="-74" rx="0.72" ry="0.72"/>
</g>
<!-- 9&#45;&gt;4 -->
<g id="edge3" class="edge">
<title>9&#45;&gt;4</title>
<path fill="none" stroke="black" d="M17.84,-74.1C20.22,-74.69 32.58,-77.79 42.08,-80.16"/>
<polygon fill="black" stroke="black" points="41.07,-83.51 51.62,-82.54 42.76,-76.72 41.07,-83.51"/>
</g>
<!-- 10 -->
<g id="node10" class="node">
<title>10</title>
<ellipse fill="none" stroke="black" cx="16.72" cy="-112" rx="0.72" ry="0.72"/>
</g>
<!-- 11&#45;&gt;2 -->
<g id="edge5" class="edge">
<title>11&#45;&gt;2</title>
<path fill="none" stroke="black" d="M92.72,-64C95.07,-64 107.16,-64 116.61,-64"/>
<polygon fill="black" stroke="black" points="116.45,-67.5 126.45,-64 116.45,-60.5 116.45,-67.5"/>
</g>
</g>
</svg>
