<?xml version="1.0" encoding="UTF-8" standalone="no"?>
<!DOCTYPE svg PUBLIC "-//W3C//DTD SVG 1.1//EN"
 "http://www.w3.org/Graphics/SVG/1.1/DTD/svg11.dtd">
<!-- Generated by graphviz version 12.0.0 (20240704.0754)
 -->
<!-- Title: G Pages: 1 -->
<svg width="116pt" height="137pt"
 viewBox="0.00 0.00 116.32 137.00" xmlns="http://www.w3.org/2000/svg" xmlns:xlink="http://www.w3.org/1999/xlink">
<g id="graph0" class="graph" transform="scale(1 1) rotate(0) translate(4 133)">
<title>G</title>
<polygon fill="white" stroke="none" points="-4,4 -4,-133 112.32,-133 112.32,4 -4,4"/>
<g id="clust1" class="cluster">
<title>cluster_</title>
</g>
<!-- 0 -->
<g id="node1" class="node">
<title>0</title>
<ellipse fill="none" stroke="black" cx="16.72" cy="-17" rx="0.72" ry="0.72"/>
</g>
<!-- 1 -->
<g id="node2" class="node">
<title>1</title>
<ellipse fill="none" stroke="black" cx="91.6" cy="-18" rx="0.72" ry="0.72"/>
</g>
<!-- 0&#45;&gt;1 -->
<g id="edge4" class="edge">
<title>0&#45;&gt;1</title>
<path fill="none" stroke="black" d="M17.91,-17.01C22.5,-17.07 59.61,-17.57 79.07,-17.84"/>
<polygon fill="black" stroke="black" points="78.89,-21.34 88.94,-17.97 78.99,-14.34 78.89,-21.34"/>
</g>
<!-- 4 -->
<g id="node5" class="node">
<title>4</title>
<ellipse fill="none" stroke="black" cx="54.16" cy="-37" rx="0.72" ry="0.72"/>
</g>
<!-- 0&#45;&gt;4 -->
<g id="edge3" class="edge">
<title>0&#45;&gt;4</title>
<path fill="none" stroke="black" d="M17.84,-17.22C20.31,-18.59 33.5,-25.92 43.11,-31.26"/>
<polygon fill="black" stroke="black" points="41.32,-34.27 51.76,-36.07 44.72,-28.15 41.32,-34.27"/>
</g>
<!-- 2 -->
<g id="node3" class="node">
<title>2</title>
<ellipse fill="none" stroke="black" cx="91.6" cy="-37" rx="0.72" ry="0.72"/>
</g>
<!-- 3 -->
<g id="node4" class="node">
<title>3</title>
<ellipse fill="none" stroke="black" cx="54.16" cy="-112" rx="0.72" ry="0.72"/>
</g>
<!-- 4&#45;&gt;1 -->
<g id="edge1" class="edge">
<title>4&#45;&gt;1</title>
<path fill="none" stroke="black" d="M55.28,-36.79C57.75,-35.49 70.94,-28.52 80.55,-23.45"/>
<polygon fill="black" stroke="black" points="81.97,-26.66 89.19,-18.89 78.71,-20.47 81.97,-26.66"/>
</g>
<!-- 4&#45;&gt;2 -->
<g id="edge5" class="edge">
<title>4&#45;&gt;2</title>
<path fill="none" stroke="black" d="M55.28,-37C57.63,-37 69.72,-37 79.17,-37"/>
<polygon fill="black" stroke="black" points="79.01,-40.5 89.01,-37 79.01,-33.5 79.01,-40.5"/>
</g>
<!-- 5 -->
<g id="node6" class="node">
<title>5</title>
<ellipse fill="none" stroke="black" cx="16.72" cy="-36" rx="0.72" ry="0.72"/>
</g>
<!-- 6 -->
<g id="node7" class="node">
<title>6</title>
<ellipse fill="none" stroke="black" cx="54.16" cy="-56" rx="0.72" ry="0.72"/>
</g>
<!-- 7 -->
<g id="node8" class="node">
<title>7</title>
<ellipse fill="none" stroke="black" cx="16.72" cy="-55" rx="0.72" ry="0.72"/>
</g>
<!-- 7&#45;&gt;6 -->
<g id="edge6" class="edge">
<title>7&#45;&gt;6</title>
<path fill="none" stroke="black" d="M17.84,-55.01C20.19,-55.08 32.28,-55.41 41.73,-55.67"/>
<polygon fill="black" stroke="black" points="41.48,-59.17 51.57,-55.95 41.67,-52.17 41.48,-59.17"/>
</g>
<!-- 8 -->
<g id="node9" class="node">
<title>8</title>
<ellipse fill="none" stroke="black" cx="16.72" cy="-74" rx="0.72" ry="0.72"/>
</g>
<!-- 9 -->
<g id="node10" class="node">
<title>9</title>
<ellipse fill="none" stroke="black" cx="54.16" cy="-93" rx="0.72" ry="0.72"/>
</g>
<!-- 10 -->
<g id="node11" class="node">
<title>10</title>
<ellipse fill="none" stroke="black" cx="16.72" cy="-93" rx="0.72" ry="0.72"/>
</g>
<!-- 10&#45;&gt;9 -->
<g id="edge2" class="edge">
<title>10&#45;&gt;9</title>
<path fill="none" stroke="black" d="M17.84,-93C20.19,-93 32.28,-93 41.73,-93"/>
<polygon fill="black" stroke="black" points="41.57,-96.5 51.57,-93 41.57,-89.5 41.57,-96.5"/>
</g>
<!-- 11 -->
<g id="node12" class="node">
<title>11</title>
<ellipse fill="none" stroke="black" cx="16.72" cy="-112" rx="0.72" ry="0.72"/>
</g>
<!-- 11&#45;&gt;3 -->
<g id="edge7" class="edge">
<title>11&#45;&gt;3</title>
<path fill="none" stroke="black" d="M17.84,-112C20.19,-112 32.28,-112 41.73,-112"/>
<polygon fill="black" stroke="black" points="41.57,-115.5 51.57,-112 41.57,-108.5 41.57,-115.5"/>
</g>
</g>
</svg>
