<?xml version="1.0" encoding="UTF-8" standalone="no"?>
<!DOCTYPE svg PUBLIC "-//W3C//DTD SVG 1.1//EN"
 "http://www.w3.org/Graphics/SVG/1.1/DTD/svg11.dtd">
<!-- Generated by graphviz version 12.0.0 (20240704.0754)
 -->
<!-- Title: G Pages: 1 -->
<svg width="154pt" height="80pt"
 viewBox="0.00 0.00 153.76 80.00" xmlns="http://www.w3.org/2000/svg" xmlns:xlink="http://www.w3.org/1999/xlink">
<g id="graph0" class="graph" transform="scale(1 1) rotate(0) translate(4 76)">
<title>G</title>
<polygon fill="white" stroke="none" points="-4,4 -4,-76 149.76,-76 149.76,4 -4,4"/>
<g id="clust1" class="cluster">
<title>cluster_</title>
</g>
<!-- 0 -->
<g id="node1" class="node">
<title>0</title>
<ellipse fill="none" stroke="black" cx="54.16" cy="-17" rx="0.72" ry="0.72"/>
</g>
<!-- 1 -->
<g id="node2" class="node">
<title>1</title>
<ellipse fill="none" stroke="black" cx="91.6" cy="-17" rx="0.72" ry="0.72"/>
</g>
<!-- 0&#45;&gt;1 -->
<g id="edge1" class="edge">
<title>0&#45;&gt;1</title>
<path fill="none" stroke="black" d="M55.28,-17C57.63,-17 69.72,-17 79.17,-17"/>
<polygon fill="black" stroke="black" points="79.01,-20.5 89.01,-17 79.01,-13.5 79.01,-20.5"/>
</g>
<!-- 2 -->
<g id="node3" class="node">
<title>2</title>
<ellipse fill="none" stroke="black" cx="54.16" cy="-36" rx="0.72" ry="0.72"/>
</g>
<!-- 2&#45;&gt;1 -->
<g id="edge5" class="edge">
<title>2&#45;&gt;1</title>
<path fill="none" stroke="black" d="M55.28,-35.79C57.75,-34.49 70.94,-27.52 80.55,-22.45"/>
<polygon fill="black" stroke="black" points="81.97,-25.66 89.19,-17.89 78.71,-19.47 81.97,-25.66"/>
</g>
<!-- 4 -->
<g id="node5" class="node">
<title>4</title>
<ellipse fill="none" stroke="black" cx="91.6" cy="-36" rx="0.72" ry="0.72"/>
</g>
<!-- 2&#45;&gt;4 -->
<g id="edge3" class="edge">
<title>2&#45;&gt;4</title>
<path fill="none" stroke="black" d="M55.28,-36C57.63,-36 69.72,-36 79.17,-36"/>
<polygon fill="black" stroke="black" points="79.01,-39.5 89.01,-36 79.01,-32.5 79.01,-39.5"/>
</g>
<!-- 10 -->
<g id="node9" class="node">
<title>10</title>
<ellipse fill="none" stroke="black" cx="91.6" cy="-55" rx="0.72" ry="0.72"/>
</g>
<!-- 2&#45;&gt;10 -->
<g id="edge7" class="edge">
<title>2&#45;&gt;10</title>
<path fill="none" stroke="black" d="M55.28,-36.21C57.75,-37.51 70.94,-44.48 80.55,-49.55"/>
<polygon fill="black" stroke="black" points="78.71,-52.53 89.19,-54.11 81.97,-46.34 78.71,-52.53"/>
</g>
<!-- 3 -->
<g id="node4" class="node">
<title>3</title>
<ellipse fill="none" stroke="black" cx="129.04" cy="-26" rx="0.72" ry="0.72"/>
</g>
<!-- 4&#45;&gt;3 -->
<g id="edge4" class="edge">
<title>4&#45;&gt;3</title>
<path fill="none" stroke="black" d="M92.72,-35.89C95.1,-35.23 107.46,-31.79 116.96,-29.16"/>
<polygon fill="black" stroke="black" points="117.81,-32.55 126.51,-26.5 115.93,-25.81 117.81,-32.55"/>
</g>
<!-- 7 -->
<g id="node8" class="node">
<title>7</title>
<ellipse fill="none" stroke="black" cx="129.04" cy="-45" rx="0.72" ry="0.72"/>
</g>
<!-- 4&#45;&gt;7 -->
<g id="edge2" class="edge">
<title>4&#45;&gt;7</title>
<path fill="none" stroke="black" d="M92.72,-36.1C95.1,-36.69 107.46,-39.79 116.96,-42.16"/>
<polygon fill="black" stroke="black" points="115.95,-45.51 126.5,-44.54 117.64,-38.72 115.95,-45.51"/>
</g>
<!-- 5 -->
<g id="node6" class="node">
<title>5</title>
<ellipse fill="none" stroke="black" cx="16.72" cy="-45" rx="0.72" ry="0.72"/>
</g>
<!-- 5&#45;&gt;2 -->
<g id="edge8" class="edge">
<title>5&#45;&gt;2</title>
<path fill="none" stroke="black" d="M17.84,-44.9C20.22,-44.31 32.58,-41.21 42.08,-38.84"/>
<polygon fill="black" stroke="black" points="42.76,-42.28 51.62,-36.46 41.07,-35.49 42.76,-42.28"/>
</g>
<!-- 6 -->
<g id="node7" class="node">
<title>6</title>
<ellipse fill="none" stroke="black" cx="54.16" cy="-55" rx="0.72" ry="0.72"/>
</g>
<!-- 5&#45;&gt;6 -->
<g id="edge6" class="edge">
<title>5&#45;&gt;6</title>
<path fill="none" stroke="black" d="M17.84,-45.11C20.22,-45.77 32.58,-49.21 42.08,-51.84"/>
<polygon fill="black" stroke="black" points="41.05,-55.19 51.63,-54.5 42.93,-48.45 41.05,-55.19"/>
</g>
</g>
</svg>
