<?xml version="1.0" encoding="UTF-8" standalone="no"?>
<!DOCTYPE svg PUBLIC "-//W3C//DTD SVG 1.1//EN"
 "http://www.w3.org/Graphics/SVG/1.1/DTD/svg11.dtd">
<!-- Generated by graphviz version 12.0.0 (20240704.0754)
 -->
<!-- Title: G Pages: 1 -->
<svg width="154pt" height="118pt"
 viewBox="0.00 0.00 153.76 118.00" xmlns="http://www.w3.org/2000/svg" xmlns:xlink="http://www.w3.org/1999/xlink">
<g id="graph0" class="graph" transform="scale(1 1) rotate(0) translate(4 114)">
<title>G</title>
<polygon fill="white" stroke="none" points="-4,4 -4,-114 149.76,-114 149.76,4 -4,4"/>
<g id="clust1" class="cluster">
<title>cluster_</title>
</g>
<!-- 0 -->
<g id="node1" class="node">
<title>0</title>
<ellipse fill="none" stroke="black" cx="16.72" cy="-37" rx="0.72" ry="0.72"/>
</g>
<!-- 4 -->
<g id="node4" class="node">
<title>4</title>
<ellipse fill="none" stroke="black" cx="54.16" cy="-17" rx="0.72" ry="0.72"/>
</g>
<!-- 0&#45;&gt;4 -->
<g id="edge4" class="edge">
<title>0&#45;&gt;4</title>
<path fill="none" stroke="black" d="M17.84,-36.78C20.31,-35.41 33.5,-28.08 43.11,-22.74"/>
<polygon fill="black" stroke="black" points="44.72,-25.85 51.76,-17.93 41.32,-19.73 44.72,-25.85"/>
</g>
<!-- 5 -->
<g id="node5" class="node">
<title>5</title>
<ellipse fill="none" stroke="black" cx="54.16" cy="-57" rx="0.72" ry="0.72"/>
</g>
<!-- 0&#45;&gt;5 -->
<g id="edge3" class="edge">
<title>0&#45;&gt;5</title>
<path fill="none" stroke="black" d="M17.84,-37.22C20.31,-38.59 33.5,-45.92 43.11,-51.26"/>
<polygon fill="black" stroke="black" points="41.32,-54.27 51.76,-56.07 44.72,-48.15 41.32,-54.27"/>
</g>
<!-- 11 -->
<g id="node10" class="node">
<title>11</title>
<ellipse fill="none" stroke="black" cx="91.6" cy="-36" rx="0.72" ry="0.72"/>
</g>
<!-- 0&#45;&gt;11 -->
<g id="edge5" class="edge">
<title>0&#45;&gt;11</title>
<path fill="none" stroke="black" d="M17.91,-36.99C22.5,-36.93 59.61,-36.43 79.07,-36.16"/>
<polygon fill="black" stroke="black" points="78.99,-39.66 88.94,-36.03 78.89,-32.66 78.99,-39.66"/>
</g>
<!-- 1 -->
<g id="node2" class="node">
<title>1</title>
<ellipse fill="none" stroke="black" cx="91.6" cy="-17" rx="0.72" ry="0.72"/>
</g>
<!-- 3 -->
<g id="node3" class="node">
<title>3</title>
<ellipse fill="none" stroke="black" cx="129.04" cy="-64" rx="0.72" ry="0.72"/>
</g>
<!-- 4&#45;&gt;1 -->
<g id="edge2" class="edge">
<title>4&#45;&gt;1</title>
<path fill="none" stroke="black" d="M55.28,-17C57.63,-17 69.72,-17 79.17,-17"/>
<polygon fill="black" stroke="black" points="79.01,-20.5 89.01,-17 79.01,-13.5 79.01,-20.5"/>
</g>
<!-- 7 -->
<g id="node7" class="node">
<title>7</title>
<ellipse fill="none" stroke="black" cx="91.6" cy="-93" rx="0.72" ry="0.72"/>
</g>
<!-- 5&#45;&gt;7 -->
<g id="edge1" class="edge">
<title>5&#45;&gt;7</title>
<path fill="none" stroke="black" d="M55.28,-57.4C57.92,-60.04 72.86,-74.98 82.52,-84.64"/>
<polygon fill="black" stroke="black" points="79.91,-86.98 89.45,-91.57 84.86,-82.03 79.91,-86.98"/>
</g>
<!-- 8 -->
<g id="node8" class="node">
<title>8</title>
<ellipse fill="none" stroke="black" cx="91.6" cy="-55" rx="0.72" ry="0.72"/>
</g>
<!-- 5&#45;&gt;8 -->
<g id="edge7" class="edge">
<title>5&#45;&gt;8</title>
<path fill="none" stroke="black" d="M55.28,-56.98C57.63,-56.85 69.72,-56.18 79.17,-55.65"/>
<polygon fill="black" stroke="black" points="79.22,-59.15 89.01,-55.1 78.83,-52.16 79.22,-59.15"/>
</g>
<!-- 5&#45;&gt;11 -->
<g id="edge9" class="edge">
<title>5&#45;&gt;11</title>
<path fill="none" stroke="black" d="M55.28,-56.76C57.78,-55.31 71.25,-47.45 80.88,-41.83"/>
<polygon fill="black" stroke="black" points="82.34,-45.03 89.22,-36.97 78.81,-38.99 82.34,-45.03"/>
</g>
<!-- 6 -->
<g id="node6" class="node">
<title>6</title>
<ellipse fill="none" stroke="black" cx="91.6" cy="-74" rx="0.72" ry="0.72"/>
</g>
<!-- 6&#45;&gt;3 -->
<g id="edge8" class="edge">
<title>6&#45;&gt;3</title>
<path fill="none" stroke="black" d="M92.72,-73.89C95.1,-73.23 107.46,-69.79 116.96,-67.16"/>
<polygon fill="black" stroke="black" points="117.81,-70.55 126.51,-64.5 115.93,-63.81 117.81,-70.55"/>
</g>
<!-- 8&#45;&gt;3 -->
<g id="edge6" class="edge">
<title>8&#45;&gt;3</title>
<path fill="none" stroke="black" d="M92.72,-55.1C95.1,-55.69 107.46,-58.79 116.96,-61.16"/>
<polygon fill="black" stroke="black" points="115.95,-64.51 126.5,-63.54 117.64,-57.72 115.95,-64.51"/>
</g>
<!-- 9 -->
<g id="node9" class="node">
<title>9</title>
<ellipse fill="none" stroke="black" cx="16.72" cy="-74" rx="0.72" ry="0.72"/>
</g>
</g>
</svg>
