<?xml version="1.0" encoding="UTF-8" standalone="no"?>
<!DOCTYPE svg PUBLIC "-//W3C//DTD SVG 1.1//EN"
 "http://www.w3.org/Graphics/SVG/1.1/DTD/svg11.dtd">
<!-- Generated by graphviz version 12.0.0 (20240704.0754)
 -->
<!-- Title: G Pages: 1 -->
<svg width="191pt" height="100pt"
 viewBox="0.00 0.00 191.20 100.00" xmlns="http://www.w3.org/2000/svg" xmlns:xlink="http://www.w3.org/1999/xlink">
<g id="graph0" class="graph" transform="scale(1 1) rotate(0) translate(4 96)">
<title>G</title>
<polygon fill="white" stroke="none" points="-4,4 -4,-96 187.2,-96 187.2,4 -4,4"/>
<g id="clust1" class="cluster">
<title>cluster_</title>
</g>
<!-- 0 -->
<g id="node1" class="node">
<title>0</title>
<ellipse fill="none" stroke="black" cx="16.72" cy="-18" rx="0.72" ry="0.72"/>
</g>
<!-- 4 -->
<g id="node5" class="node">
<title>4</title>
<ellipse fill="none" stroke="black" cx="54.16" cy="-18" rx="0.72" ry="0.72"/>
</g>
<!-- 0&#45;&gt;4 -->
<g id="edge4" class="edge">
<title>0&#45;&gt;4</title>
<path fill="none" stroke="black" d="M17.84,-18C20.19,-18 32.28,-18 41.73,-18"/>
<polygon fill="black" stroke="black" points="41.57,-21.5 51.57,-18 41.57,-14.5 41.57,-21.5"/>
</g>
<!-- 7 -->
<g id="node8" class="node">
<title>7</title>
<ellipse fill="none" stroke="black" cx="129.04" cy="-74" rx="0.72" ry="0.72"/>
</g>
<!-- 0&#45;&gt;7 -->
<g id="edge9" class="edge">
<title>0&#45;&gt;7</title>
<path fill="none" stroke="black" d="M17.87,-18.36C22.15,-21.91 57.45,-50.77 90.88,-65 99.18,-68.54 109.14,-70.85 116.7,-72.24"/>
<polygon fill="black" stroke="black" points="116.16,-75.7 126.58,-73.74 117.22,-68.78 116.16,-75.7"/>
</g>
<!-- 1 -->
<g id="node2" class="node">
<title>1</title>
<ellipse fill="none" stroke="black" cx="91.6" cy="-17" rx="0.72" ry="0.72"/>
</g>
<!-- 2 -->
<g id="node3" class="node">
<title>2</title>
<ellipse fill="none" stroke="black" cx="91.6" cy="-36" rx="0.72" ry="0.72"/>
</g>
<!-- 3 -->
<g id="node4" class="node">
<title>3</title>
<ellipse fill="none" stroke="black" cx="129.04" cy="-36" rx="0.72" ry="0.72"/>
</g>
<!-- 2&#45;&gt;3 -->
<g id="edge6" class="edge">
<title>2&#45;&gt;3</title>
<path fill="none" stroke="black" d="M92.72,-36C95.07,-36 107.16,-36 116.61,-36"/>
<polygon fill="black" stroke="black" points="116.45,-39.5 126.45,-36 116.45,-32.5 116.45,-39.5"/>
</g>
<!-- 4&#45;&gt;1 -->
<g id="edge2" class="edge">
<title>4&#45;&gt;1</title>
<path fill="none" stroke="black" d="M55.28,-17.99C57.63,-17.92 69.72,-17.59 79.17,-17.33"/>
<polygon fill="black" stroke="black" points="79.11,-20.83 89.01,-17.05 78.92,-13.83 79.11,-20.83"/>
</g>
<!-- 6 -->
<g id="node7" class="node">
<title>6</title>
<ellipse fill="none" stroke="black" cx="91.6" cy="-55" rx="0.72" ry="0.72"/>
</g>
<!-- 4&#45;&gt;6 -->
<g id="edge5" class="edge">
<title>4&#45;&gt;6</title>
<path fill="none" stroke="black" d="M55.28,-18.42C57.92,-21.12 72.86,-36.47 82.52,-46.41"/>
<polygon fill="black" stroke="black" points="79.99,-48.82 89.47,-53.55 85,-43.94 79.99,-48.82"/>
</g>
<!-- 5 -->
<g id="node6" class="node">
<title>5</title>
<ellipse fill="none" stroke="black" cx="129.04" cy="-55" rx="0.72" ry="0.72"/>
</g>
<!-- 8 -->
<g id="node9" class="node">
<title>8</title>
<ellipse fill="none" stroke="black" cx="166.48" cy="-64" rx="0.72" ry="0.72"/>
</g>
<!-- 5&#45;&gt;8 -->
<g id="edge1" class="edge">
<title>5&#45;&gt;8</title>
<path fill="none" stroke="black" d="M130.16,-55.1C132.54,-55.69 144.9,-58.79 154.4,-61.16"/>
<polygon fill="black" stroke="black" points="153.39,-64.51 163.94,-63.54 155.08,-57.72 153.39,-64.51"/>
</g>
<!-- 6&#45;&gt;3 -->
<g id="edge7" class="edge">
<title>6&#45;&gt;3</title>
<path fill="none" stroke="black" d="M92.72,-54.79C95.19,-53.49 108.38,-46.52 117.99,-41.45"/>
<polygon fill="black" stroke="black" points="119.41,-44.66 126.63,-36.89 116.15,-38.47 119.41,-44.66"/>
</g>
<!-- 6&#45;&gt;7 -->
<g id="edge8" class="edge">
<title>6&#45;&gt;7</title>
<path fill="none" stroke="black" d="M92.72,-55.21C95.19,-56.51 108.38,-63.48 117.99,-68.55"/>
<polygon fill="black" stroke="black" points="116.15,-71.53 126.63,-73.11 119.41,-65.34 116.15,-71.53"/>
</g>
<!-- 7&#45;&gt;8 -->
<g id="edge3" class="edge">
<title>7&#45;&gt;8</title>
<path fill="none" stroke="black" d="M130.16,-73.89C132.54,-73.23 144.9,-69.79 154.4,-67.16"/>
<polygon fill="black" stroke="black" points="155.25,-70.55 163.95,-64.5 153.37,-63.81 155.25,-70.55"/>
</g>
<!-- 9 -->
<g id="node10" class="node">
<title>9</title>
<ellipse fill="none" stroke="black" cx="16.72" cy="-37" rx="0.72" ry="0.72"/>
</g>
<!-- 10 -->
<g id="node11" class="node">
<title>10</title>
<ellipse fill="none" stroke="black" cx="16.72" cy="-56" rx="0.72" ry="0.72"/>
</g>
<!-- 11 -->
<g id="node12" class="node">
<title>11</title>
<ellipse fill="none" stroke="black" cx="16.72" cy="-75" rx="0.72" ry="0.72"/>
</g>
</g>
</svg>
