<?xml version="1.0" encoding="UTF-8" standalone="no"?>
<!DOCTYPE svg PUBLIC "-//W3C//DTD SVG 1.1//EN"
 "http://www.w3.org/Graphics/SVG/1.1/DTD/svg11.dtd">
<!-- Generated by graphviz version 12.0.0 (20240704.0754)
 -->
<!-- Title: G Pages: 1 -->
<svg width="154pt" height="118pt"
 viewBox="0.00 0.00 153.76 118.00" xmlns="http://www.w3.org/2000/svg" xmlns:xlink="http://www.w3.org/1999/xlink">
<g id="graph0" class="graph" transform="scale(1 1) rotate(0) translate(4 114)">
<title>G</title>
<polygon fill="white" stroke="none" points="-4,4 -4,-114 149.76,-114 149.76,4 -4,4"/>
<g id="clust1" class="cluster">
<title>cluster_</title>
</g>
<!-- 0 -->
<g id="node1" class="node">
<title>0</title>
<ellipse fill="none" stroke="black" cx="91.6" cy="-22" rx="0.72" ry="0.72"/>
</g>
<!-- 1 -->
<g id="node2" class="node">
<title>1</title>
<ellipse fill="none" stroke="black" cx="129.04" cy="-36" rx="0.72" ry="0.72"/>
</g>
<!-- 0&#45;&gt;1 -->
<g id="edge1" class="edge">
<title>0&#45;&gt;1</title>
<path fill="none" stroke="black" d="M92.72,-22.16C95.13,-23.09 107.76,-28.01 117.3,-31.72"/>
<polygon fill="black" stroke="black" points="115.96,-34.95 126.55,-35.31 118.5,-28.43 115.96,-34.95"/>
</g>
<!-- 11 -->
<g id="node12" class="node">
<title>11</title>
<ellipse fill="none" stroke="black" cx="129.04" cy="-17" rx="0.72" ry="0.72"/>
</g>
<!-- 0&#45;&gt;11 -->
<g id="edge2" class="edge">
<title>0&#45;&gt;11</title>
<path fill="none" stroke="black" d="M92.72,-21.94C95.07,-21.62 107.16,-19.94 116.61,-18.63"/>
<polygon fill="black" stroke="black" points="117.04,-22.1 126.46,-17.26 116.08,-15.17 117.04,-22.1"/>
</g>
<!-- 2 -->
<g id="node3" class="node">
<title>2</title>
<ellipse fill="none" stroke="black" cx="91.6" cy="-50" rx="0.72" ry="0.72"/>
</g>
<!-- 2&#45;&gt;1 -->
<g id="edge6" class="edge">
<title>2&#45;&gt;1</title>
<path fill="none" stroke="black" d="M92.72,-49.84C95.13,-48.91 107.76,-43.99 117.3,-40.28"/>
<polygon fill="black" stroke="black" points="118.5,-43.57 126.55,-36.69 115.96,-37.05 118.5,-43.57"/>
</g>
<!-- 4 -->
<g id="node5" class="node">
<title>4</title>
<ellipse fill="none" stroke="black" cx="129.04" cy="-55" rx="0.72" ry="0.72"/>
</g>
<!-- 2&#45;&gt;4 -->
<g id="edge3" class="edge">
<title>2&#45;&gt;4</title>
<path fill="none" stroke="black" d="M92.72,-50.06C95.07,-50.38 107.16,-52.06 116.61,-53.37"/>
<polygon fill="black" stroke="black" points="116.08,-56.83 126.46,-54.74 117.04,-49.9 116.08,-56.83"/>
</g>
<!-- 7 -->
<g id="node8" class="node">
<title>7</title>
<ellipse fill="none" stroke="black" cx="129.04" cy="-74" rx="0.72" ry="0.72"/>
</g>
<!-- 2&#45;&gt;7 -->
<g id="edge5" class="edge">
<title>2&#45;&gt;7</title>
<path fill="none" stroke="black" d="M92.72,-50.27C95.24,-51.95 109.01,-61.12 118.66,-67.56"/>
<polygon fill="black" stroke="black" points="116.44,-70.29 126.7,-72.92 120.33,-64.46 116.44,-70.29"/>
</g>
<!-- 3 -->
<g id="node4" class="node">
<title>3</title>
<ellipse fill="none" stroke="black" cx="16.72" cy="-17" rx="0.72" ry="0.72"/>
</g>
<!-- 5 -->
<g id="node6" class="node">
<title>5</title>
<ellipse fill="none" stroke="black" cx="16.72" cy="-36" rx="0.72" ry="0.72"/>
</g>
<!-- 6 -->
<g id="node7" class="node">
<title>6</title>
<ellipse fill="none" stroke="black" cx="54.16" cy="-40" rx="0.72" ry="0.72"/>
</g>
<!-- 5&#45;&gt;6 -->
<g id="edge7" class="edge">
<title>5&#45;&gt;6</title>
<path fill="none" stroke="black" d="M17.84,-36.04C20.19,-36.31 32.28,-37.65 41.73,-38.7"/>
<polygon fill="black" stroke="black" points="41.25,-42.17 51.58,-39.79 42.03,-35.21 41.25,-42.17"/>
</g>
<!-- 6&#45;&gt;2 -->
<g id="edge4" class="edge">
<title>6&#45;&gt;2</title>
<path fill="none" stroke="black" d="M55.28,-40.11C57.66,-40.77 70.02,-44.21 79.52,-46.84"/>
<polygon fill="black" stroke="black" points="78.49,-50.19 89.07,-49.5 80.37,-43.45 78.49,-50.19"/>
</g>
<!-- 8 -->
<g id="node9" class="node">
<title>8</title>
<ellipse fill="none" stroke="black" cx="16.72" cy="-55" rx="0.72" ry="0.72"/>
</g>
<!-- 9 -->
<g id="node10" class="node">
<title>9</title>
<ellipse fill="none" stroke="black" cx="16.72" cy="-74" rx="0.72" ry="0.72"/>
</g>
<!-- 10 -->
<g id="node11" class="node">
<title>10</title>
<ellipse fill="none" stroke="black" cx="16.72" cy="-93" rx="0.72" ry="0.72"/>
</g>
</g>
</svg>
