<?xml version="1.0" encoding="UTF-8" standalone="no"?>
<!DOCTYPE svg PUBLIC "-//W3C//DTD SVG 1.1//EN"
 "http://www.w3.org/Graphics/SVG/1.1/DTD/svg11.dtd">
<!-- Generated by graphviz version 12.0.0 (20240704.0754)
 -->
<!-- Title: G Pages: 1 -->
<svg width="229pt" height="118pt"
 viewBox="0.00 0.00 228.64 118.00" xmlns="http://www.w3.org/2000/svg" xmlns:xlink="http://www.w3.org/1999/xlink">
<g id="graph0" class="graph" transform="scale(1 1) rotate(0) translate(4 114)">
<title>G</title>
<polygon fill="white" stroke="none" points="-4,4 -4,-114 224.64,-114 224.64,4 -4,4"/>
<g id="clust1" class="cluster">
<title>cluster_</title>
</g>
<!-- 0 -->
<g id="node1" class="node">
<title>0</title>
<ellipse fill="none" stroke="black" cx="16.72" cy="-36" rx="0.72" ry="0.72"/>
</g>
<!-- 6 -->
<g id="node7" class="node">
<title>6</title>
<ellipse fill="none" stroke="black" cx="54.16" cy="-26" rx="0.72" ry="0.72"/>
</g>
<!-- 0&#45;&gt;6 -->
<g id="edge8" class="edge">
<title>0&#45;&gt;6</title>
<path fill="none" stroke="black" d="M17.84,-35.89C20.22,-35.23 32.58,-31.79 42.08,-29.16"/>
<polygon fill="black" stroke="black" points="42.93,-32.55 51.63,-26.5 41.05,-25.81 42.93,-32.55"/>
</g>
<!-- 1 -->
<g id="node2" class="node">
<title>1</title>
<ellipse fill="none" stroke="black" cx="203.92" cy="-26" rx="0.72" ry="0.72"/>
</g>
<!-- 2 -->
<g id="node3" class="node">
<title>2</title>
<ellipse fill="none" stroke="black" cx="91.6" cy="-26" rx="0.72" ry="0.72"/>
</g>
<!-- 5 -->
<g id="node6" class="node">
<title>5</title>
<ellipse fill="none" stroke="black" cx="129.04" cy="-26" rx="0.72" ry="0.72"/>
</g>
<!-- 2&#45;&gt;5 -->
<g id="edge5" class="edge">
<title>2&#45;&gt;5</title>
<path fill="none" stroke="black" d="M92.72,-26C95.07,-26 107.16,-26 116.61,-26"/>
<polygon fill="black" stroke="black" points="116.45,-29.5 126.45,-26 116.45,-22.5 116.45,-29.5"/>
</g>
<!-- 3 -->
<g id="node4" class="node">
<title>3</title>
<ellipse fill="none" stroke="black" cx="16.72" cy="-17" rx="0.72" ry="0.72"/>
</g>
<!-- 3&#45;&gt;6 -->
<g id="edge6" class="edge">
<title>3&#45;&gt;6</title>
<path fill="none" stroke="black" d="M17.84,-17.1C20.22,-17.69 32.58,-20.79 42.08,-23.16"/>
<polygon fill="black" stroke="black" points="41.07,-26.51 51.62,-25.54 42.76,-19.72 41.07,-26.51"/>
</g>
<!-- 4 -->
<g id="node5" class="node">
<title>4</title>
<ellipse fill="none" stroke="black" cx="166.48" cy="-26" rx="0.72" ry="0.72"/>
</g>
<!-- 4&#45;&gt;1 -->
<g id="edge3" class="edge">
<title>4&#45;&gt;1</title>
<path fill="none" stroke="black" d="M167.6,-26C169.95,-26 182.04,-26 191.49,-26"/>
<polygon fill="black" stroke="black" points="191.33,-29.5 201.33,-26 191.33,-22.5 191.33,-29.5"/>
</g>
<!-- 5&#45;&gt;4 -->
<g id="edge1" class="edge">
<title>5&#45;&gt;4</title>
<path fill="none" stroke="black" d="M130.16,-26C132.51,-26 144.6,-26 154.05,-26"/>
<polygon fill="black" stroke="black" points="153.89,-29.5 163.89,-26 153.89,-22.5 153.89,-29.5"/>
</g>
<!-- 6&#45;&gt;2 -->
<g id="edge2" class="edge">
<title>6&#45;&gt;2</title>
<path fill="none" stroke="black" d="M55.28,-26C57.63,-26 69.72,-26 79.17,-26"/>
<polygon fill="black" stroke="black" points="79.01,-29.5 89.01,-26 79.01,-22.5 79.01,-29.5"/>
</g>
<!-- 7 -->
<g id="node8" class="node">
<title>7</title>
<ellipse fill="none" stroke="black" cx="166.48" cy="-45" rx="0.72" ry="0.72"/>
</g>
<!-- 8 -->
<g id="node9" class="node">
<title>8</title>
<ellipse fill="none" stroke="black" cx="16.72" cy="-55" rx="0.72" ry="0.72"/>
</g>
<!-- 9 -->
<g id="node10" class="node">
<title>9</title>
<ellipse fill="none" stroke="black" cx="16.72" cy="-74" rx="0.72" ry="0.72"/>
</g>
<!-- 10 -->
<g id="node11" class="node">
<title>10</title>
<ellipse fill="none" stroke="black" cx="129.04" cy="-45" rx="0.72" ry="0.72"/>
</g>
<!-- 10&#45;&gt;4 -->
<g id="edge4" class="edge">
<title>10&#45;&gt;4</title>
<path fill="none" stroke="black" d="M130.16,-44.79C132.63,-43.49 145.82,-36.52 155.43,-31.45"/>
<polygon fill="black" stroke="black" points="156.85,-34.66 164.07,-26.89 153.59,-28.47 156.85,-34.66"/>
</g>
<!-- 10&#45;&gt;7 -->
<g id="edge7" class="edge">
<title>10&#45;&gt;7</title>
<path fill="none" stroke="black" d="M130.16,-45C132.51,-45 144.6,-45 154.05,-45"/>
<polygon fill="black" stroke="black" points="153.89,-48.5 163.89,-45 153.89,-41.5 153.89,-48.5"/>
</g>
<!-- 11 -->
<g id="node12" class="node">
<title>11</title>
<ellipse fill="none" stroke="black" cx="16.72" cy="-93" rx="0.72" ry="0.72"/>
</g>
</g>
</svg>
