<?xml version="1.0" encoding="UTF-8" standalone="no"?>
<!DOCTYPE svg PUBLIC "-//W3C//DTD SVG 1.1//EN"
 "http://www.w3.org/Graphics/SVG/1.1/DTD/svg11.dtd">
<!-- Generated by graphviz version 12.0.0 (20240704.0754)
 -->
<!-- Title: G Pages: 1 -->
<svg width="116pt" height="118pt"
 viewBox="0.00 0.00 116.32 118.00" xmlns="http://www.w3.org/2000/svg" xmlns:xlink="http://www.w3.org/1999/xlink">
<g id="graph0" class="graph" transform="scale(1 1) rotate(0) translate(4 114)">
<title>G</title>
<polygon fill="white" stroke="none" points="-4,4 -4,-114 112.32,-114 112.32,4 -4,4"/>
<g id="clust1" class="cluster">
<title>cluster_</title>
</g>
<!-- 0 -->
<g id="node1" class="node">
<title>0</title>
<ellipse fill="none" stroke="black" cx="16.72" cy="-55" rx="0.72" ry="0.72"/>
</g>
<!-- 3 -->
<g id="node4" class="node">
<title>3</title>
<ellipse fill="none" stroke="black" cx="54.16" cy="-55" rx="0.72" ry="0.72"/>
</g>
<!-- 0&#45;&gt;3 -->
<g id="edge9" class="edge">
<title>0&#45;&gt;3</title>
<path fill="none" stroke="black" d="M17.84,-55C20.19,-55 32.28,-55 41.73,-55"/>
<polygon fill="black" stroke="black" points="41.57,-58.5 51.57,-55 41.57,-51.5 41.57,-58.5"/>
</g>
<!-- 5 -->
<g id="node6" class="node">
<title>5</title>
<ellipse fill="none" stroke="black" cx="54.16" cy="-74" rx="0.72" ry="0.72"/>
</g>
<!-- 0&#45;&gt;5 -->
<g id="edge1" class="edge">
<title>0&#45;&gt;5</title>
<path fill="none" stroke="black" d="M17.84,-55.21C20.31,-56.51 33.5,-63.48 43.11,-68.55"/>
<polygon fill="black" stroke="black" points="41.27,-71.53 51.75,-73.11 44.53,-65.34 41.27,-71.53"/>
</g>
<!-- 6 -->
<g id="node7" class="node">
<title>6</title>
<ellipse fill="none" stroke="black" cx="54.16" cy="-36" rx="0.72" ry="0.72"/>
</g>
<!-- 0&#45;&gt;6 -->
<g id="edge7" class="edge">
<title>0&#45;&gt;6</title>
<path fill="none" stroke="black" d="M17.84,-54.79C20.31,-53.49 33.5,-46.52 43.11,-41.45"/>
<polygon fill="black" stroke="black" points="44.53,-44.66 51.75,-36.89 41.27,-38.47 44.53,-44.66"/>
</g>
<!-- 1 -->
<g id="node2" class="node">
<title>1</title>
<ellipse fill="none" stroke="black" cx="91.6" cy="-83" rx="0.72" ry="0.72"/>
</g>
<!-- 2 -->
<g id="node3" class="node">
<title>2</title>
<ellipse fill="none" stroke="black" cx="54.16" cy="-17" rx="0.72" ry="0.72"/>
</g>
<!-- 10 -->
<g id="node11" class="node">
<title>10</title>
<ellipse fill="none" stroke="black" cx="91.6" cy="-45" rx="0.72" ry="0.72"/>
</g>
<!-- 2&#45;&gt;10 -->
<g id="edge5" class="edge">
<title>2&#45;&gt;10</title>
<path fill="none" stroke="black" d="M55.28,-17.31C57.83,-19.3 71.88,-30.23 81.55,-37.74"/>
<polygon fill="black" stroke="black" points="79.29,-40.42 89.33,-43.79 83.58,-34.89 79.29,-40.42"/>
</g>
<!-- 3&#45;&gt;10 -->
<g id="edge8" class="edge">
<title>3&#45;&gt;10</title>
<path fill="none" stroke="black" d="M55.28,-54.89C57.66,-54.23 70.02,-50.79 79.52,-48.16"/>
<polygon fill="black" stroke="black" points="80.37,-51.55 89.07,-45.5 78.49,-44.81 80.37,-51.55"/>
</g>
<!-- 4 -->
<g id="node5" class="node">
<title>4</title>
<ellipse fill="none" stroke="black" cx="16.72" cy="-17" rx="0.72" ry="0.72"/>
</g>
<!-- 5&#45;&gt;1 -->
<g id="edge6" class="edge">
<title>5&#45;&gt;1</title>
<path fill="none" stroke="black" d="M55.28,-74.1C57.66,-74.69 70.02,-77.79 79.52,-80.16"/>
<polygon fill="black" stroke="black" points="78.51,-83.51 89.06,-82.54 80.2,-76.72 78.51,-83.51"/>
</g>
<!-- 7 -->
<g id="node8" class="node">
<title>7</title>
<ellipse fill="none" stroke="black" cx="16.72" cy="-36" rx="0.72" ry="0.72"/>
</g>
<!-- 7&#45;&gt;2 -->
<g id="edge2" class="edge">
<title>7&#45;&gt;2</title>
<path fill="none" stroke="black" d="M17.84,-35.79C20.31,-34.49 33.5,-27.52 43.11,-22.45"/>
<polygon fill="black" stroke="black" points="44.53,-25.66 51.75,-17.89 41.27,-19.47 44.53,-25.66"/>
</g>
<!-- 7&#45;&gt;6 -->
<g id="edge4" class="edge">
<title>7&#45;&gt;6</title>
<path fill="none" stroke="black" d="M17.84,-36C20.19,-36 32.28,-36 41.73,-36"/>
<polygon fill="black" stroke="black" points="41.57,-39.5 51.57,-36 41.57,-32.5 41.57,-39.5"/>
</g>
<!-- 8 -->
<g id="node9" class="node">
<title>8</title>
<ellipse fill="none" stroke="black" cx="16.72" cy="-74" rx="0.72" ry="0.72"/>
</g>
<!-- 9 -->
<g id="node10" class="node">
<title>9</title>
<ellipse fill="none" stroke="black" cx="16.72" cy="-93" rx="0.72" ry="0.72"/>
</g>
<!-- 11 -->
<g id="node12" class="node">
<title>11</title>
<ellipse fill="none" stroke="black" cx="54.16" cy="-93" rx="0.72" ry="0.72"/>
</g>
<!-- 11&#45;&gt;1 -->
<g id="edge3" class="edge">
<title>11&#45;&gt;1</title>
<path fill="none" stroke="black" d="M55.28,-92.89C57.66,-92.23 70.02,-88.79 79.52,-86.16"/>
<polygon fill="black" stroke="black" points="80.37,-89.55 89.07,-83.5 78.49,-82.81 80.37,-89.55"/>
</g>
</g>
</svg>
