<?xml version="1.0" encoding="UTF-8" standalone="no"?>
<!DOCTYPE svg PUBLIC "-//W3C//DTD SVG 1.1//EN"
 "http://www.w3.org/Graphics/SVG/1.1/DTD/svg11.dtd">
<!-- Generated by graphviz version 12.0.0 (20240704.0754)
 -->
<!-- Title: G Pages: 1 -->
<svg width="154pt" height="118pt"
 viewBox="0.00 0.00 153.76 118.00" xmlns="http://www.w3.org/2000/svg" xmlns:xlink="http://www.w3.org/1999/xlink">
<g id="graph0" class="graph" transform="scale(1 1) rotate(0) translate(4 114)">
<title>G</title>
<polygon fill="white" stroke="none" points="-4,4 -4,-114 149.76,-114 149.76,4 -4,4"/>
<g id="clust1" class="cluster">
<title>cluster_</title>
</g>
<!-- 0 -->
<g id="node1" class="node">
<title>0</title>
<ellipse fill="none" stroke="black" cx="16.72" cy="-17" rx="0.72" ry="0.72"/>
</g>
<!-- 8 -->
<g id="node9" class="node">
<title>8</title>
<ellipse fill="none" stroke="black" cx="54.16" cy="-57" rx="0.72" ry="0.72"/>
</g>
<!-- 0&#45;&gt;8 -->
<g id="edge1" class="edge">
<title>0&#45;&gt;8</title>
<path fill="none" stroke="black" d="M17.84,-17.45C20.51,-20.41 35.74,-37.34 45.4,-48.07"/>
<polygon fill="black" stroke="black" points="42.78,-50.39 52.07,-55.48 47.98,-45.7 42.78,-50.39"/>
</g>
<!-- 1 -->
<g id="node2" class="node">
<title>1</title>
<ellipse fill="none" stroke="black" cx="129.04" cy="-47" rx="0.72" ry="0.72"/>
</g>
<!-- 2 -->
<g id="node3" class="node">
<title>2</title>
<ellipse fill="none" stroke="black" cx="16.72" cy="-36" rx="0.72" ry="0.72"/>
</g>
<!-- 3 -->
<g id="node4" class="node">
<title>3</title>
<ellipse fill="none" stroke="black" cx="91.6" cy="-57" rx="0.72" ry="0.72"/>
</g>
<!-- 3&#45;&gt;1 -->
<g id="edge6" class="edge">
<title>3&#45;&gt;1</title>
<path fill="none" stroke="black" d="M92.72,-56.89C95.1,-56.23 107.46,-52.79 116.96,-50.16"/>
<polygon fill="black" stroke="black" points="117.81,-53.55 126.51,-47.5 115.93,-46.81 117.81,-53.55"/>
</g>
<!-- 4 -->
<g id="node5" class="node">
<title>4</title>
<ellipse fill="none" stroke="black" cx="54.16" cy="-37" rx="0.72" ry="0.72"/>
</g>
<!-- 4&#45;&gt;1 -->
<g id="edge2" class="edge">
<title>4&#45;&gt;1</title>
<path fill="none" stroke="black" d="M55.35,-37.06C59.94,-37.69 97.05,-42.74 116.51,-45.39"/>
<polygon fill="black" stroke="black" points="116.01,-48.86 126.39,-46.74 116.96,-41.92 116.01,-48.86"/>
</g>
<!-- 4&#45;&gt;3 -->
<g id="edge3" class="edge">
<title>4&#45;&gt;3</title>
<path fill="none" stroke="black" d="M55.28,-37.22C57.75,-38.59 70.94,-45.92 80.55,-51.26"/>
<polygon fill="black" stroke="black" points="78.76,-54.27 89.2,-56.07 82.16,-48.15 78.76,-54.27"/>
</g>
<!-- 5 -->
<g id="node6" class="node">
<title>5</title>
<ellipse fill="none" stroke="black" cx="91.6" cy="-17" rx="0.72" ry="0.72"/>
</g>
<!-- 4&#45;&gt;5 -->
<g id="edge5" class="edge">
<title>4&#45;&gt;5</title>
<path fill="none" stroke="black" d="M55.28,-36.78C57.75,-35.41 70.94,-28.08 80.55,-22.74"/>
<polygon fill="black" stroke="black" points="82.16,-25.85 89.2,-17.93 78.76,-19.73 82.16,-25.85"/>
</g>
<!-- 6 -->
<g id="node7" class="node">
<title>6</title>
<ellipse fill="none" stroke="black" cx="16.72" cy="-55" rx="0.72" ry="0.72"/>
</g>
<!-- 7 -->
<g id="node8" class="node">
<title>7</title>
<ellipse fill="none" stroke="black" cx="16.72" cy="-74" rx="0.72" ry="0.72"/>
</g>
<!-- 8&#45;&gt;3 -->
<g id="edge8" class="edge">
<title>8&#45;&gt;3</title>
<path fill="none" stroke="black" d="M55.28,-57C57.63,-57 69.72,-57 79.17,-57"/>
<polygon fill="black" stroke="black" points="79.01,-60.5 89.01,-57 79.01,-53.5 79.01,-60.5"/>
</g>
<!-- 9 -->
<g id="node10" class="node">
<title>9</title>
<ellipse fill="none" stroke="black" cx="91.6" cy="-76" rx="0.72" ry="0.72"/>
</g>
<!-- 8&#45;&gt;9 -->
<g id="edge7" class="edge">
<title>8&#45;&gt;9</title>
<path fill="none" stroke="black" d="M55.28,-57.21C57.75,-58.51 70.94,-65.48 80.55,-70.55"/>
<polygon fill="black" stroke="black" points="78.71,-73.53 89.19,-75.11 81.97,-67.34 78.71,-73.53"/>
</g>
<!-- 10 -->
<g id="node11" class="node">
<title>10</title>
<ellipse fill="none" stroke="black" cx="16.72" cy="-93" rx="0.72" ry="0.72"/>
</g>
<!-- 11 -->
<g id="node12" class="node">
<title>11</title>
<ellipse fill="none" stroke="black" cx="54.16" cy="-17" rx="0.72" ry="0.72"/>
</g>
<!-- 11&#45;&gt;5 -->
<g id="edge4" class="edge">
<title>11&#45;&gt;5</title>
<path fill="none" stroke="black" d="M55.28,-17C57.63,-17 69.72,-17 79.17,-17"/>
<polygon fill="black" stroke="black" points="79.01,-20.5 89.01,-17 79.01,-13.5 79.01,-20.5"/>
</g>
</g>
</svg>
