<?xml version="1.0" encoding="UTF-8" standalone="no"?>
<!DOCTYPE svg PUBLIC "-//W3C//DTD SVG 1.1//EN"
 "http://www.w3.org/Graphics/SVG/1.1/DTD/svg11.dtd">
<!-- Generated by graphviz version 12.0.0 (20240704.0754)
 -->
<!-- Title: G Pages: 1 -->
<svg width="191pt" height="101pt"
 viewBox="0.00 0.00 191.20 101.00" xmlns="http://www.w3.org/2000/svg" xmlns:xlink="http://www.w3.org/1999/xlink">
<g id="graph0" class="graph" transform="scale(1 1) rotate(0) translate(4 97)">
<title>G</title>
<polygon fill="white" stroke="none" points="-4,4 -4,-97 187.2,-97 187.2,4 -4,4"/>
<g id="clust1" class="cluster">
<title>cluster_</title>
</g>
<!-- 0 -->
<g id="node1" class="node">
<title>0</title>
<ellipse fill="none" stroke="black" cx="91.6" cy="-76" rx="0.72" ry="0.72"/>
</g>
<!-- 3 -->
<g id="node4" class="node">
<title>3</title>
<ellipse fill="none" stroke="black" cx="129.04" cy="-47" rx="0.72" ry="0.72"/>
</g>
<!-- 0&#45;&gt;3 -->
<g id="edge8" class="edge">
<title>0&#45;&gt;3</title>
<path fill="none" stroke="black" d="M92.72,-75.67C95.3,-73.6 109.64,-62.04 119.32,-54.25"/>
<polygon fill="black" stroke="black" points="121.19,-57.24 126.79,-48.24 116.8,-51.78 121.19,-57.24"/>
</g>
<!-- 4 -->
<g id="node5" class="node">
<title>4</title>
<ellipse fill="none" stroke="black" cx="129.04" cy="-76" rx="0.72" ry="0.72"/>
</g>
<!-- 0&#45;&gt;4 -->
<g id="edge4" class="edge">
<title>0&#45;&gt;4</title>
<path fill="none" stroke="black" d="M92.72,-76C95.07,-76 107.16,-76 116.61,-76"/>
<polygon fill="black" stroke="black" points="116.45,-79.5 126.45,-76 116.45,-72.5 116.45,-79.5"/>
</g>
<!-- 1 -->
<g id="node2" class="node">
<title>1</title>
<ellipse fill="none" stroke="black" cx="166.48" cy="-76" rx="0.72" ry="0.72"/>
</g>
<!-- 2 -->
<g id="node3" class="node">
<title>2</title>
<ellipse fill="none" stroke="black" cx="91.6" cy="-57" rx="0.72" ry="0.72"/>
</g>
<!-- 2&#45;&gt;3 -->
<g id="edge7" class="edge">
<title>2&#45;&gt;3</title>
<path fill="none" stroke="black" d="M92.72,-56.89C95.1,-56.23 107.46,-52.79 116.96,-50.16"/>
<polygon fill="black" stroke="black" points="117.81,-53.55 126.51,-47.5 115.93,-46.81 117.81,-53.55"/>
</g>
<!-- 4&#45;&gt;1 -->
<g id="edge2" class="edge">
<title>4&#45;&gt;1</title>
<path fill="none" stroke="black" d="M130.16,-76C132.51,-76 144.6,-76 154.05,-76"/>
<polygon fill="black" stroke="black" points="153.89,-79.5 163.89,-76 153.89,-72.5 153.89,-79.5"/>
</g>
<!-- 6 -->
<g id="node6" class="node">
<title>6</title>
<ellipse fill="none" stroke="black" cx="16.72" cy="-37" rx="0.72" ry="0.72"/>
</g>
<!-- 7 -->
<g id="node7" class="node">
<title>7</title>
<ellipse fill="none" stroke="black" cx="54.16" cy="-37" rx="0.72" ry="0.72"/>
</g>
<!-- 6&#45;&gt;7 -->
<g id="edge1" class="edge">
<title>6&#45;&gt;7</title>
<path fill="none" stroke="black" d="M17.84,-37C20.19,-37 32.28,-37 41.73,-37"/>
<polygon fill="black" stroke="black" points="41.57,-40.5 51.57,-37 41.57,-33.5 41.57,-40.5"/>
</g>
<!-- 7&#45;&gt;2 -->
<g id="edge5" class="edge">
<title>7&#45;&gt;2</title>
<path fill="none" stroke="black" d="M55.28,-37.22C57.75,-38.59 70.94,-45.92 80.55,-51.26"/>
<polygon fill="black" stroke="black" points="78.76,-54.27 89.2,-56.07 82.16,-48.15 78.76,-54.27"/>
</g>
<!-- 7&#45;&gt;3 -->
<g id="edge6" class="edge">
<title>7&#45;&gt;3</title>
<path fill="none" stroke="black" d="M55.35,-37.06C59.94,-37.69 97.05,-42.74 116.51,-45.39"/>
<polygon fill="black" stroke="black" points="116.01,-48.86 126.39,-46.74 116.96,-41.92 116.01,-48.86"/>
</g>
<!-- 9 -->
<g id="node8" class="node">
<title>9</title>
<ellipse fill="none" stroke="black" cx="16.72" cy="-56" rx="0.72" ry="0.72"/>
</g>
<!-- 10 -->
<g id="node9" class="node">
<title>10</title>
<ellipse fill="none" stroke="black" cx="16.72" cy="-75" rx="0.72" ry="0.72"/>
</g>
<!-- 11 -->
<g id="node10" class="node">
<title>11</title>
<ellipse fill="none" stroke="black" cx="91.6" cy="-17" rx="0.72" ry="0.72"/>
</g>
<!-- 11&#45;&gt;3 -->
<g id="edge3" class="edge">
<title>11&#45;&gt;3</title>
<path fill="none" stroke="black" d="M92.72,-17.34C95.3,-19.49 109.64,-31.44 119.32,-39.5"/>
<polygon fill="black" stroke="black" points="116.88,-42.02 126.8,-45.73 121.36,-36.64 116.88,-42.02"/>
</g>
</g>
</svg>
