<?xml version="1.0" encoding="UTF-8" standalone="no"?>
<!DOCTYPE svg PUBLIC "-//W3C//DTD SVG 1.1//EN"
 "http://www.w3.org/Graphics/SVG/1.1/DTD/svg11.dtd">
<!-- Generated by graphviz version 12.0.0 (20240704.0754)
 -->
<!-- Title: G Pages: 1 -->
<svg width="79pt" height="194pt"
 viewBox="0.00 0.00 78.88 194.00" xmlns="http://www.w3.org/2000/svg" xmlns:xlink="http://www.w3.org/1999/xlink">
<g id="graph0" class="graph" transform="scale(1 1) rotate(0) translate(4 190)">
<title>G</title>
<polygon fill="white" stroke="none" points="-4,4 -4,-190 74.88,-190 74.88,4 -4,4"/>
<g id="clust1" class="cluster">
<title>cluster_</title>
</g>
<!-- 0 -->
<g id="node1" class="node">
<title>0</title>
<ellipse fill="none" stroke="black" cx="16.72" cy="-17" rx="0.72" ry="0.72"/>
</g>
<!-- 1 -->
<g id="node2" class="node">
<title>1</title>
<ellipse fill="none" stroke="black" cx="54.16" cy="-17" rx="0.72" ry="0.72"/>
</g>
<!-- 0&#45;&gt;1 -->
<g id="edge1" class="edge">
<title>0&#45;&gt;1</title>
<path fill="none" stroke="black" d="M17.84,-17C20.19,-17 32.28,-17 41.73,-17"/>
<polygon fill="black" stroke="black" points="41.57,-20.5 51.57,-17 41.57,-13.5 41.57,-20.5"/>
</g>
<!-- 2 -->
<g id="node3" class="node">
<title>2</title>
<ellipse fill="none" stroke="black" cx="54.16" cy="-150" rx="0.72" ry="0.72"/>
</g>
<!-- 3 -->
<g id="node4" class="node">
<title>3</title>
<ellipse fill="none" stroke="black" cx="16.72" cy="-36" rx="0.72" ry="0.72"/>
</g>
<!-- 4 -->
<g id="node5" class="node">
<title>4</title>
<ellipse fill="none" stroke="black" cx="16.72" cy="-55" rx="0.72" ry="0.72"/>
</g>
<!-- 5 -->
<g id="node6" class="node">
<title>5</title>
<ellipse fill="none" stroke="black" cx="16.72" cy="-74" rx="0.72" ry="0.72"/>
</g>
<!-- 6 -->
<g id="node7" class="node">
<title>6</title>
<ellipse fill="none" stroke="black" cx="16.72" cy="-93" rx="0.72" ry="0.72"/>
</g>
<!-- 7 -->
<g id="node8" class="node">
<title>7</title>
<ellipse fill="none" stroke="black" cx="16.72" cy="-112" rx="0.72" ry="0.72"/>
</g>
<!-- 8 -->
<g id="node9" class="node">
<title>8</title>
<ellipse fill="none" stroke="black" cx="16.72" cy="-131" rx="0.72" ry="0.72"/>
</g>
<!-- 9 -->
<g id="node10" class="node">
<title>9</title>
<ellipse fill="none" stroke="black" cx="16.72" cy="-150" rx="0.72" ry="0.72"/>
</g>
<!-- 10 -->
<g id="node11" class="node">
<title>10</title>
<ellipse fill="none" stroke="black" cx="16.72" cy="-169" rx="0.72" ry="0.72"/>
</g>
<!-- 10&#45;&gt;2 -->
<g id="edge2" class="edge">
<title>10&#45;&gt;2</title>
<path fill="none" stroke="black" d="M17.84,-168.79C20.31,-167.49 33.5,-160.52 43.11,-155.45"/>
<polygon fill="black" stroke="black" points="44.53,-158.66 51.75,-150.89 41.27,-152.47 44.53,-158.66"/>
</g>
<!-- 11 -->
<g id="node12" class="node">
<title>11</title>
<ellipse fill="none" stroke="black" cx="54.16" cy="-169" rx="0.72" ry="0.72"/>
</g>
<!-- 10&#45;&gt;11 -->
<g id="edge3" class="edge">
<title>10&#45;&gt;11</title>
<path fill="none" stroke="black" d="M17.84,-169C20.19,-169 32.28,-169 41.73,-169"/>
<polygon fill="black" stroke="black" points="41.57,-172.5 51.57,-169 41.57,-165.5 41.57,-172.5"/>
</g>
</g>
</svg>
