<?xml version="1.0" encoding="UTF-8" standalone="no"?>
<!DOCTYPE svg PUBLIC "-//W3C//DTD SVG 1.1//EN"
 "http://www.w3.org/Graphics/SVG/1.1/DTD/svg11.dtd">
<!-- Generated by graphviz version 12.0.0 (20240704.0754)
 -->
<!-- Title: G Pages: 1 -->
<svg width="154pt" height="139pt"
 viewBox="0.00 0.00 153.76 139.00" xmlns="http://www.w3.org/2000/svg" xmlns:xlink="http://www.w3.org/1999/xlink">
<g id="graph0" class="graph" transform="scale(1 1) rotate(0) translate(4 135)">
<title>G</title>
<polygon fill="white" stroke="none" points="-4,4 -4,-135 149.76,-135 149.76,4 -4,4"/>
<g id="clust1" class="cluster">
<title>cluster_</title>
</g>
<!-- 0 -->
<g id="node1" class="node">
<title>0</title>
<ellipse fill="none" stroke="black" cx="16.72" cy="-47" rx="0.72" ry="0.72"/>
</g>
<!-- 1 -->
<g id="node2" class="node">
<title>1</title>
<ellipse fill="none" stroke="black" cx="129.04" cy="-37" rx="0.72" ry="0.72"/>
</g>
<!-- 0&#45;&gt;1 -->
<g id="edge1" class="edge">
<title>0&#45;&gt;1</title>
<path fill="none" stroke="black" d="M17.76,-46.97C22.93,-46.51 89.7,-40.48 116.9,-38.03"/>
<polygon fill="black" stroke="black" points="116.87,-41.55 126.51,-37.16 116.24,-34.58 116.87,-41.55"/>
</g>
<!-- 3 -->
<g id="node4" class="node">
<title>3</title>
<ellipse fill="none" stroke="black" cx="54.16" cy="-57" rx="0.72" ry="0.72"/>
</g>
<!-- 0&#45;&gt;3 -->
<g id="edge2" class="edge">
<title>0&#45;&gt;3</title>
<path fill="none" stroke="black" d="M17.84,-47.11C20.22,-47.77 32.58,-51.21 42.08,-53.84"/>
<polygon fill="black" stroke="black" points="41.05,-57.19 51.63,-56.5 42.93,-50.45 41.05,-57.19"/>
</g>
<!-- 4 -->
<g id="node5" class="node">
<title>4</title>
<ellipse fill="none" stroke="black" cx="54.16" cy="-76" rx="0.72" ry="0.72"/>
</g>
<!-- 0&#45;&gt;4 -->
<g id="edge7" class="edge">
<title>0&#45;&gt;4</title>
<path fill="none" stroke="black" d="M17.84,-47.33C20.42,-49.4 34.76,-60.96 44.44,-68.75"/>
<polygon fill="black" stroke="black" points="41.92,-71.22 51.91,-74.76 46.31,-65.76 41.92,-71.22"/>
</g>
<!-- 8 -->
<g id="node9" class="node">
<title>8</title>
<ellipse fill="none" stroke="black" cx="91.6" cy="-17" rx="0.72" ry="0.72"/>
</g>
<!-- 0&#45;&gt;8 -->
<g id="edge6" class="edge">
<title>0&#45;&gt;8</title>
<path fill="none" stroke="black" d="M17.67,-46.9C19.92,-45.95 38.4,-38.15 53.44,-32 62.43,-28.32 72.68,-24.23 80.17,-21.24"/>
<polygon fill="black" stroke="black" points="81.23,-24.59 89.23,-17.65 78.65,-18.08 81.23,-24.59"/>
</g>
<!-- 2 -->
<g id="node3" class="node">
<title>2</title>
<ellipse fill="none" stroke="black" cx="16.72" cy="-76" rx="0.72" ry="0.72"/>
</g>
<!-- 7 -->
<g id="node8" class="node">
<title>7</title>
<ellipse fill="none" stroke="black" cx="54.16" cy="-114" rx="0.72" ry="0.72"/>
</g>
<!-- 2&#45;&gt;7 -->
<g id="edge9" class="edge">
<title>2&#45;&gt;7</title>
<path fill="none" stroke="black" d="M17.84,-76.43C20.51,-79.24 35.74,-95.32 45.4,-105.51"/>
<polygon fill="black" stroke="black" points="42.62,-107.67 52.04,-112.53 47.71,-102.86 42.62,-107.67"/>
</g>
<!-- 9 -->
<g id="node10" class="node">
<title>9</title>
<ellipse fill="none" stroke="black" cx="91.6" cy="-57" rx="0.72" ry="0.72"/>
</g>
<!-- 3&#45;&gt;9 -->
<g id="edge10" class="edge">
<title>3&#45;&gt;9</title>
<path fill="none" stroke="black" d="M55.28,-57C57.63,-57 69.72,-57 79.17,-57"/>
<polygon fill="black" stroke="black" points="79.01,-60.5 89.01,-57 79.01,-53.5 79.01,-60.5"/>
</g>
<!-- 5 -->
<g id="node6" class="node">
<title>5</title>
<ellipse fill="none" stroke="black" cx="54.16" cy="-95" rx="0.72" ry="0.72"/>
</g>
<!-- 5&#45;&gt;9 -->
<g id="edge5" class="edge">
<title>5&#45;&gt;9</title>
<path fill="none" stroke="black" d="M55.28,-94.57C57.95,-91.76 73.18,-75.68 82.84,-65.49"/>
<polygon fill="black" stroke="black" points="85.15,-68.14 89.48,-58.47 80.06,-63.33 85.15,-68.14"/>
</g>
<!-- 6 -->
<g id="node7" class="node">
<title>6</title>
<ellipse fill="none" stroke="black" cx="16.72" cy="-95" rx="0.72" ry="0.72"/>
</g>
<!-- 10 -->
<g id="node11" class="node">
<title>10</title>
<ellipse fill="none" stroke="black" cx="91.6" cy="-114" rx="0.72" ry="0.72"/>
</g>
<!-- 7&#45;&gt;10 -->
<g id="edge3" class="edge">
<title>7&#45;&gt;10</title>
<path fill="none" stroke="black" d="M55.28,-114C57.63,-114 69.72,-114 79.17,-114"/>
<polygon fill="black" stroke="black" points="79.01,-117.5 89.01,-114 79.01,-110.5 79.01,-117.5"/>
</g>
<!-- 8&#45;&gt;1 -->
<g id="edge4" class="edge">
<title>8&#45;&gt;1</title>
<path fill="none" stroke="black" d="M92.72,-17.22C95.19,-18.59 108.38,-25.92 117.99,-31.26"/>
<polygon fill="black" stroke="black" points="116.2,-34.27 126.64,-36.07 119.6,-28.15 116.2,-34.27"/>
</g>
<!-- 9&#45;&gt;1 -->
<g id="edge8" class="edge">
<title>9&#45;&gt;1</title>
<path fill="none" stroke="black" d="M92.72,-56.78C95.19,-55.41 108.38,-48.08 117.99,-42.74"/>
<polygon fill="black" stroke="black" points="119.6,-45.85 126.64,-37.93 116.2,-39.73 119.6,-45.85"/>
</g>
<!-- 11 -->
<g id="node12" class="node">
<title>11</title>
<ellipse fill="none" stroke="black" cx="16.72" cy="-114" rx="0.72" ry="0.72"/>
</g>
</g>
</svg>
