<?xml version="1.0" encoding="UTF-8" standalone="no"?>
<!DOCTYPE svg PUBLIC "-//W3C//DTD SVG 1.1//EN"
 "http://www.w3.org/Graphics/SVG/1.1/DTD/svg11.dtd">
<!-- Generated by graphviz version 12.0.0 (20240704.0754)
 -->
<!-- Title: G Pages: 1 -->
<svg width="116pt" height="156pt"
 viewBox="0.00 0.00 116.32 156.00" xmlns="http://www.w3.org/2000/svg" xmlns:xlink="http://www.w3.org/1999/xlink">
<g id="graph0" class="graph" transform="scale(1 1) rotate(0) translate(4 152)">
<title>G</title>
<polygon fill="white" stroke="none" points="-4,4 -4,-152 112.32,-152 112.32,4 -4,4"/>
<g id="clust1" class="cluster">
<title>cluster_</title>
</g>
<!-- 0 -->
<g id="node1" class="node">
<title>0</title>
<ellipse fill="none" stroke="black" cx="16.72" cy="-131" rx="0.72" ry="0.72"/>
</g>
<!-- 3 -->
<g id="node4" class="node">
<title>3</title>
<ellipse fill="none" stroke="black" cx="54.16" cy="-103" rx="0.72" ry="0.72"/>
</g>
<!-- 0&#45;&gt;3 -->
<g id="edge8" class="edge">
<title>0&#45;&gt;3</title>
<path fill="none" stroke="black" d="M17.84,-130.69C20.39,-128.7 34.44,-117.77 44.11,-110.26"/>
<polygon fill="black" stroke="black" points="46.14,-113.11 51.89,-104.21 41.85,-107.58 46.14,-113.11"/>
</g>
<!-- 4 -->
<g id="node5" class="node">
<title>4</title>
<ellipse fill="none" stroke="black" cx="54.16" cy="-131" rx="0.72" ry="0.72"/>
</g>
<!-- 0&#45;&gt;4 -->
<g id="edge4" class="edge">
<title>0&#45;&gt;4</title>
<path fill="none" stroke="black" d="M17.84,-131C20.19,-131 32.28,-131 41.73,-131"/>
<polygon fill="black" stroke="black" points="41.57,-134.5 51.57,-131 41.57,-127.5 41.57,-134.5"/>
</g>
<!-- 1 -->
<g id="node2" class="node">
<title>1</title>
<ellipse fill="none" stroke="black" cx="91.6" cy="-131" rx="0.72" ry="0.72"/>
</g>
<!-- 2 -->
<g id="node3" class="node">
<title>2</title>
<ellipse fill="none" stroke="black" cx="16.72" cy="-112" rx="0.72" ry="0.72"/>
</g>
<!-- 2&#45;&gt;3 -->
<g id="edge7" class="edge">
<title>2&#45;&gt;3</title>
<path fill="none" stroke="black" d="M17.84,-111.9C20.22,-111.31 32.58,-108.21 42.08,-105.84"/>
<polygon fill="black" stroke="black" points="42.76,-109.28 51.62,-103.46 41.07,-102.49 42.76,-109.28"/>
</g>
<!-- 4&#45;&gt;1 -->
<g id="edge2" class="edge">
<title>4&#45;&gt;1</title>
<path fill="none" stroke="black" d="M55.28,-131C57.63,-131 69.72,-131 79.17,-131"/>
<polygon fill="black" stroke="black" points="79.01,-134.5 89.01,-131 79.01,-127.5 79.01,-134.5"/>
</g>
<!-- 5 -->
<g id="node6" class="node">
<title>5</title>
<ellipse fill="none" stroke="black" cx="54.16" cy="-74" rx="0.72" ry="0.72"/>
</g>
<!-- 6 -->
<g id="node7" class="node">
<title>6</title>
<ellipse fill="none" stroke="black" cx="16.72" cy="-17" rx="0.72" ry="0.72"/>
</g>
<!-- 7 -->
<g id="node8" class="node">
<title>7</title>
<ellipse fill="none" stroke="black" cx="16.72" cy="-93" rx="0.72" ry="0.72"/>
</g>
<!-- 7&#45;&gt;3 -->
<g id="edge6" class="edge">
<title>7&#45;&gt;3</title>
<path fill="none" stroke="black" d="M17.84,-93.11C20.22,-93.77 32.58,-97.21 42.08,-99.84"/>
<polygon fill="black" stroke="black" points="41.05,-103.19 51.63,-102.5 42.93,-96.45 41.05,-103.19"/>
</g>
<!-- 8 -->
<g id="node9" class="node">
<title>8</title>
<ellipse fill="none" stroke="black" cx="16.72" cy="-36" rx="0.72" ry="0.72"/>
</g>
<!-- 9 -->
<g id="node10" class="node">
<title>9</title>
<ellipse fill="none" stroke="black" cx="16.72" cy="-55" rx="0.72" ry="0.72"/>
</g>
<!-- 10 -->
<g id="node11" class="node">
<title>10</title>
<ellipse fill="none" stroke="black" cx="54.16" cy="-55" rx="0.72" ry="0.72"/>
</g>
<!-- 9&#45;&gt;10 -->
<g id="edge1" class="edge">
<title>9&#45;&gt;10</title>
<path fill="none" stroke="black" d="M17.84,-55C20.19,-55 32.28,-55 41.73,-55"/>
<polygon fill="black" stroke="black" points="41.57,-58.5 51.57,-55 41.57,-51.5 41.57,-58.5"/>
</g>
<!-- 11 -->
<g id="node12" class="node">
<title>11</title>
<ellipse fill="none" stroke="black" cx="16.72" cy="-74" rx="0.72" ry="0.72"/>
</g>
<!-- 11&#45;&gt;3 -->
<g id="edge3" class="edge">
<title>11&#45;&gt;3</title>
<path fill="none" stroke="black" d="M17.84,-74.33C20.42,-76.4 34.76,-87.96 44.44,-95.75"/>
<polygon fill="black" stroke="black" points="41.92,-98.22 51.91,-101.76 46.31,-92.76 41.92,-98.22"/>
</g>
<!-- 11&#45;&gt;5 -->
<g id="edge5" class="edge">
<title>11&#45;&gt;5</title>
<path fill="none" stroke="black" d="M17.84,-74C20.19,-74 32.28,-74 41.73,-74"/>
<polygon fill="black" stroke="black" points="41.57,-77.5 51.57,-74 41.57,-70.5 41.57,-77.5"/>
</g>
</g>
</svg>
