<?xml version="1.0" encoding="UTF-8" standalone="no"?>
<!DOCTYPE svg PUBLIC "-//W3C//DTD SVG 1.1//EN"
 "http://www.w3.org/Graphics/SVG/1.1/DTD/svg11.dtd">
<!-- Generated by graphviz version 12.0.0 (20240704.0754)
 -->
<!-- Title: G Pages: 1 -->
<svg width="116pt" height="137pt"
 viewBox="0.00 0.00 116.32 137.00" xmlns="http://www.w3.org/2000/svg" xmlns:xlink="http://www.w3.org/1999/xlink">
<g id="graph0" class="graph" transform="scale(1 1) rotate(0) translate(4 133)">
<title>G</title>
<polygon fill="white" stroke="none" points="-4,4 -4,-133 112.32,-133 112.32,4 -4,4"/>
<g id="clust1" class="cluster">
<title>cluster_</title>
</g>
<!-- 0 -->
<g id="node1" class="node">
<title>0</title>
<ellipse fill="none" stroke="black" cx="16.72" cy="-93" rx="0.72" ry="0.72"/>
</g>
<!-- 4 -->
<g id="node5" class="node">
<title>4</title>
<ellipse fill="none" stroke="black" cx="54.16" cy="-112" rx="0.72" ry="0.72"/>
</g>
<!-- 0&#45;&gt;4 -->
<g id="edge4" class="edge">
<title>0&#45;&gt;4</title>
<path fill="none" stroke="black" d="M17.84,-93.21C20.31,-94.51 33.5,-101.48 43.11,-106.55"/>
<polygon fill="black" stroke="black" points="41.27,-109.53 51.75,-111.11 44.53,-103.34 41.27,-109.53"/>
</g>
<!-- 10 -->
<g id="node11" class="node">
<title>10</title>
<ellipse fill="none" stroke="black" cx="54.16" cy="-93" rx="0.72" ry="0.72"/>
</g>
<!-- 0&#45;&gt;10 -->
<g id="edge7" class="edge">
<title>0&#45;&gt;10</title>
<path fill="none" stroke="black" d="M17.84,-93C20.19,-93 32.28,-93 41.73,-93"/>
<polygon fill="black" stroke="black" points="41.57,-96.5 51.57,-93 41.57,-89.5 41.57,-96.5"/>
</g>
<!-- 1 -->
<g id="node2" class="node">
<title>1</title>
<ellipse fill="none" stroke="black" cx="91.6" cy="-83" rx="0.72" ry="0.72"/>
</g>
<!-- 2 -->
<g id="node3" class="node">
<title>2</title>
<ellipse fill="none" stroke="black" cx="16.72" cy="-17" rx="0.72" ry="0.72"/>
</g>
<!-- 3 -->
<g id="node4" class="node">
<title>3</title>
<ellipse fill="none" stroke="black" cx="54.16" cy="-34" rx="0.72" ry="0.72"/>
</g>
<!-- 4&#45;&gt;1 -->
<g id="edge2" class="edge">
<title>4&#45;&gt;1</title>
<path fill="none" stroke="black" d="M55.28,-111.67C57.86,-109.6 72.2,-98.04 81.88,-90.25"/>
<polygon fill="black" stroke="black" points="83.75,-93.24 89.35,-84.24 79.36,-87.78 83.75,-93.24"/>
</g>
<!-- 7 -->
<g id="node8" class="node">
<title>7</title>
<ellipse fill="none" stroke="black" cx="91.6" cy="-112" rx="0.72" ry="0.72"/>
</g>
<!-- 4&#45;&gt;7 -->
<g id="edge5" class="edge">
<title>4&#45;&gt;7</title>
<path fill="none" stroke="black" d="M55.28,-112C57.63,-112 69.72,-112 79.17,-112"/>
<polygon fill="black" stroke="black" points="79.01,-115.5 89.01,-112 79.01,-108.5 79.01,-115.5"/>
</g>
<!-- 5 -->
<g id="node6" class="node">
<title>5</title>
<ellipse fill="none" stroke="black" cx="16.72" cy="-36" rx="0.72" ry="0.72"/>
</g>
<!-- 5&#45;&gt;3 -->
<g id="edge3" class="edge">
<title>5&#45;&gt;3</title>
<path fill="none" stroke="black" d="M17.84,-35.98C20.19,-35.85 32.28,-35.18 41.73,-34.65"/>
<polygon fill="black" stroke="black" points="41.78,-38.15 51.57,-34.1 41.39,-31.16 41.78,-38.15"/>
</g>
<!-- 6 -->
<g id="node7" class="node">
<title>6</title>
<ellipse fill="none" stroke="black" cx="16.72" cy="-74" rx="0.72" ry="0.72"/>
</g>
<!-- 6&#45;&gt;1 -->
<g id="edge9" class="edge">
<title>6&#45;&gt;1</title>
<path fill="none" stroke="black" d="M17.91,-74.06C22.5,-74.62 59.61,-79.17 79.07,-81.55"/>
<polygon fill="black" stroke="black" points="78.6,-85.02 88.95,-82.76 79.45,-78.07 78.6,-85.02"/>
</g>
<!-- 6&#45;&gt;10 -->
<g id="edge1" class="edge">
<title>6&#45;&gt;10</title>
<path fill="none" stroke="black" d="M17.84,-74.21C20.31,-75.51 33.5,-82.48 43.11,-87.55"/>
<polygon fill="black" stroke="black" points="41.27,-90.53 51.75,-92.11 44.53,-84.34 41.27,-90.53"/>
</g>
<!-- 8 -->
<g id="node9" class="node">
<title>8</title>
<ellipse fill="none" stroke="black" cx="16.72" cy="-112" rx="0.72" ry="0.72"/>
</g>
<!-- 9 -->
<g id="node10" class="node">
<title>9</title>
<ellipse fill="none" stroke="black" cx="16.72" cy="-55" rx="0.72" ry="0.72"/>
</g>
<!-- 9&#45;&gt;3 -->
<g id="edge8" class="edge">
<title>9&#45;&gt;3</title>
<path fill="none" stroke="black" d="M17.84,-54.76C20.34,-53.31 33.81,-45.45 43.44,-39.83"/>
<polygon fill="black" stroke="black" points="44.9,-43.03 51.78,-34.97 41.37,-36.99 44.9,-43.03"/>
</g>
<!-- 11 -->
<g id="node12" class="node">
<title>11</title>
<ellipse fill="none" stroke="black" cx="54.16" cy="-53" rx="0.72" ry="0.72"/>
</g>
<!-- 9&#45;&gt;11 -->
<g id="edge6" class="edge">
<title>9&#45;&gt;11</title>
<path fill="none" stroke="black" d="M17.84,-54.98C20.19,-54.85 32.28,-54.18 41.73,-53.65"/>
<polygon fill="black" stroke="black" points="41.78,-57.15 51.57,-53.1 41.39,-50.16 41.78,-57.15"/>
</g>
</g>
</svg>
