<?xml version="1.0" encoding="UTF-8" standalone="no"?>
<!DOCTYPE svg PUBLIC "-//W3C//DTD SVG 1.1//EN"
 "http://www.w3.org/Graphics/SVG/1.1/DTD/svg11.dtd">
<!-- Generated by graphviz version 12.0.0 (20240704.0754)
 -->
<!-- Title: G Pages: 1 -->
<svg width="116pt" height="175pt"
 viewBox="0.00 0.00 116.32 175.00" xmlns="http://www.w3.org/2000/svg" xmlns:xlink="http://www.w3.org/1999/xlink">
<g id="graph0" class="graph" transform="scale(1 1) rotate(0) translate(4 171)">
<title>G</title>
<polygon fill="white" stroke="none" points="-4,4 -4,-171 112.32,-171 112.32,4 -4,4"/>
<g id="clust1" class="cluster">
<title>cluster_</title>
</g>
<!-- 0 -->
<g id="node1" class="node">
<title>0</title>
<ellipse fill="none" stroke="black" cx="16.72" cy="-17" rx="0.72" ry="0.72"/>
</g>
<!-- 1 -->
<g id="node2" class="node">
<title>1</title>
<ellipse fill="none" stroke="black" cx="91.6" cy="-27" rx="0.72" ry="0.72"/>
</g>
<!-- 0&#45;&gt;1 -->
<g id="edge4" class="edge">
<title>0&#45;&gt;1</title>
<path fill="none" stroke="black" d="M17.66,-17.09C19.87,-17.95 38.01,-24.9 53.44,-27 62.01,-28.17 71.8,-28.12 79.21,-27.81"/>
<polygon fill="black" stroke="black" points="79.39,-31.3 89.13,-27.13 78.91,-24.32 79.39,-31.3"/>
</g>
<!-- 4 -->
<g id="node5" class="node">
<title>4</title>
<ellipse fill="none" stroke="black" cx="54.16" cy="-17" rx="0.72" ry="0.72"/>
</g>
<!-- 0&#45;&gt;4 -->
<g id="edge3" class="edge">
<title>0&#45;&gt;4</title>
<path fill="none" stroke="black" d="M17.84,-17C20.19,-17 32.28,-17 41.73,-17"/>
<polygon fill="black" stroke="black" points="41.57,-20.5 51.57,-17 41.57,-13.5 41.57,-20.5"/>
</g>
<!-- 2 -->
<g id="node3" class="node">
<title>2</title>
<ellipse fill="none" stroke="black" cx="16.72" cy="-36" rx="0.72" ry="0.72"/>
</g>
<!-- 3 -->
<g id="node4" class="node">
<title>3</title>
<ellipse fill="none" stroke="black" cx="54.16" cy="-57" rx="0.72" ry="0.72"/>
</g>
<!-- 2&#45;&gt;3 -->
<g id="edge1" class="edge">
<title>2&#45;&gt;3</title>
<path fill="none" stroke="black" d="M17.84,-36.24C20.34,-37.69 33.81,-45.55 43.44,-51.17"/>
<polygon fill="black" stroke="black" points="41.37,-54.01 51.78,-56.03 44.9,-47.97 41.37,-54.01"/>
</g>
<!-- 4&#45;&gt;1 -->
<g id="edge2" class="edge">
<title>4&#45;&gt;1</title>
<path fill="none" stroke="black" d="M55.28,-17.11C57.66,-17.77 70.02,-21.21 79.52,-23.84"/>
<polygon fill="black" stroke="black" points="78.49,-27.19 89.07,-26.5 80.37,-20.45 78.49,-27.19"/>
</g>
<!-- 5 -->
<g id="node6" class="node">
<title>5</title>
<ellipse fill="none" stroke="black" cx="16.72" cy="-55" rx="0.72" ry="0.72"/>
</g>
<!-- 6 -->
<g id="node7" class="node">
<title>6</title>
<ellipse fill="none" stroke="black" cx="16.72" cy="-74" rx="0.72" ry="0.72"/>
</g>
<!-- 7 -->
<g id="node8" class="node">
<title>7</title>
<ellipse fill="none" stroke="black" cx="16.72" cy="-93" rx="0.72" ry="0.72"/>
</g>
<!-- 8 -->
<g id="node9" class="node">
<title>8</title>
<ellipse fill="none" stroke="black" cx="16.72" cy="-112" rx="0.72" ry="0.72"/>
</g>
<!-- 9 -->
<g id="node10" class="node">
<title>9</title>
<ellipse fill="none" stroke="black" cx="16.72" cy="-131" rx="0.72" ry="0.72"/>
</g>
<!-- 10 -->
<g id="node11" class="node">
<title>10</title>
<ellipse fill="none" stroke="black" cx="16.72" cy="-150" rx="0.72" ry="0.72"/>
</g>
</g>
</svg>
