<?xml version="1.0" encoding="UTF-8" standalone="no"?>
<!DOCTYPE svg PUBLIC "-//W3C//DTD SVG 1.1//EN"
 "http://www.w3.org/Graphics/SVG/1.1/DTD/svg11.dtd">
<!-- Generated by graphviz version 12.0.0 (20240704.0754)
 -->
<!-- Title: G Pages: 1 -->
<svg width="229pt" height="100pt"
 viewBox="0.00 0.00 228.64 100.00" xmlns="http://www.w3.org/2000/svg" xmlns:xlink="http://www.w3.org/1999/xlink">
<g id="graph0" class="graph" transform="scale(1 1) rotate(0) translate(4 96)">
<title>G</title>
<polygon fill="white" stroke="none" points="-4,4 -4,-96 224.64,-96 224.64,4 -4,4"/>
<g id="clust1" class="cluster">
<title>cluster_</title>
</g>
<!-- 0 -->
<g id="node1" class="node">
<title>0</title>
<ellipse fill="none" stroke="black" cx="16.72" cy="-36" rx="0.72" ry="0.72"/>
</g>
<!-- 4 -->
<g id="node5" class="node">
<title>4</title>
<ellipse fill="none" stroke="black" cx="54.16" cy="-36" rx="0.72" ry="0.72"/>
</g>
<!-- 0&#45;&gt;4 -->
<g id="edge4" class="edge">
<title>0&#45;&gt;4</title>
<path fill="none" stroke="black" d="M17.84,-36C20.19,-36 32.28,-36 41.73,-36"/>
<polygon fill="black" stroke="black" points="41.57,-39.5 51.57,-36 41.57,-32.5 41.57,-39.5"/>
</g>
<!-- 1 -->
<g id="node2" class="node">
<title>1</title>
<ellipse fill="none" stroke="black" cx="91.6" cy="-17" rx="0.72" ry="0.72"/>
</g>
<!-- 2 -->
<g id="node3" class="node">
<title>2</title>
<ellipse fill="none" stroke="black" cx="16.72" cy="-55" rx="0.72" ry="0.72"/>
</g>
<!-- 3 -->
<g id="node4" class="node">
<title>3</title>
<ellipse fill="none" stroke="black" cx="166.48" cy="-70" rx="0.72" ry="0.72"/>
</g>
<!-- 7 -->
<g id="node8" class="node">
<title>7</title>
<ellipse fill="none" stroke="black" cx="203.92" cy="-60" rx="0.72" ry="0.72"/>
</g>
<!-- 3&#45;&gt;7 -->
<g id="edge7" class="edge">
<title>3&#45;&gt;7</title>
<path fill="none" stroke="black" d="M167.6,-69.89C169.98,-69.23 182.34,-65.79 191.84,-63.16"/>
<polygon fill="black" stroke="black" points="192.69,-66.55 201.39,-60.5 190.81,-59.81 192.69,-66.55"/>
</g>
<!-- 4&#45;&gt;1 -->
<g id="edge2" class="edge">
<title>4&#45;&gt;1</title>
<path fill="none" stroke="black" d="M55.28,-35.79C57.75,-34.49 70.94,-27.52 80.55,-22.45"/>
<polygon fill="black" stroke="black" points="81.97,-25.66 89.19,-17.89 78.71,-19.47 81.97,-25.66"/>
</g>
<!-- 8 -->
<g id="node9" class="node">
<title>8</title>
<ellipse fill="none" stroke="black" cx="91.6" cy="-36" rx="0.72" ry="0.72"/>
</g>
<!-- 4&#45;&gt;8 -->
<g id="edge6" class="edge">
<title>4&#45;&gt;8</title>
<path fill="none" stroke="black" d="M55.28,-36C57.63,-36 69.72,-36 79.17,-36"/>
<polygon fill="black" stroke="black" points="79.01,-39.5 89.01,-36 79.01,-32.5 79.01,-39.5"/>
</g>
<!-- 9 -->
<g id="node10" class="node">
<title>9</title>
<ellipse fill="none" stroke="black" cx="91.6" cy="-55" rx="0.72" ry="0.72"/>
</g>
<!-- 4&#45;&gt;9 -->
<g id="edge8" class="edge">
<title>4&#45;&gt;9</title>
<path fill="none" stroke="black" d="M55.28,-36.21C57.75,-37.51 70.94,-44.48 80.55,-49.55"/>
<polygon fill="black" stroke="black" points="78.71,-52.53 89.19,-54.11 81.97,-46.34 78.71,-52.53"/>
</g>
<!-- 5 -->
<g id="node6" class="node">
<title>5</title>
<ellipse fill="none" stroke="black" cx="54.16" cy="-65" rx="0.72" ry="0.72"/>
</g>
<!-- 6 -->
<g id="node7" class="node">
<title>6</title>
<ellipse fill="none" stroke="black" cx="166.48" cy="-51" rx="0.72" ry="0.72"/>
</g>
<!-- 5&#45;&gt;6 -->
<g id="edge5" class="edge">
<title>5&#45;&gt;6</title>
<path fill="none" stroke="black" d="M55.12,-65.02C57.47,-65.18 76.79,-66.47 92.32,-65 114.61,-62.89 140.21,-57.27 154.53,-53.82"/>
<polygon fill="black" stroke="black" points="154.98,-57.32 163.83,-51.49 153.28,-50.53 154.98,-57.32"/>
</g>
<!-- 5&#45;&gt;9 -->
<g id="edge9" class="edge">
<title>5&#45;&gt;9</title>
<path fill="none" stroke="black" d="M55.28,-64.89C57.66,-64.23 70.02,-60.79 79.52,-58.16"/>
<polygon fill="black" stroke="black" points="80.37,-61.55 89.07,-55.5 78.49,-54.81 80.37,-61.55"/>
</g>
<!-- 6&#45;&gt;7 -->
<g id="edge3" class="edge">
<title>6&#45;&gt;7</title>
<path fill="none" stroke="black" d="M167.6,-51.1C169.98,-51.69 182.34,-54.79 191.84,-57.16"/>
<polygon fill="black" stroke="black" points="190.83,-60.51 201.38,-59.54 192.52,-53.72 190.83,-60.51"/>
</g>
<!-- 11 -->
<g id="node12" class="node">
<title>11</title>
<ellipse fill="none" stroke="black" cx="129.04" cy="-41" rx="0.72" ry="0.72"/>
</g>
<!-- 8&#45;&gt;11 -->
<g id="edge10" class="edge">
<title>8&#45;&gt;11</title>
<path fill="none" stroke="black" d="M92.72,-36.06C95.07,-36.38 107.16,-38.06 116.61,-39.37"/>
<polygon fill="black" stroke="black" points="116.08,-42.83 126.46,-40.74 117.04,-35.9 116.08,-42.83"/>
</g>
<!-- 10 -->
<g id="node11" class="node">
<title>10</title>
<ellipse fill="none" stroke="black" cx="16.72" cy="-74" rx="0.72" ry="0.72"/>
</g>
<!-- 11&#45;&gt;6 -->
<g id="edge1" class="edge">
<title>11&#45;&gt;6</title>
<path fill="none" stroke="black" d="M130.16,-41.11C132.54,-41.77 144.9,-45.21 154.4,-47.84"/>
<polygon fill="black" stroke="black" points="153.37,-51.19 163.95,-50.5 155.25,-44.45 153.37,-51.19"/>
</g>
</g>
</svg>
