<?xml version="1.0" encoding="UTF-8" standalone="no"?>
<!DOCTYPE svg PUBLIC "-//W3C//DTD SVG 1.1//EN"
 "http://www.w3.org/Graphics/SVG/1.1/DTD/svg11.dtd">
<!-- Generated by graphviz version 12.0.0 (20240704.0754)
 -->
<!-- Title: G Pages: 1 -->
<svg width="154pt" height="118pt"
 viewBox="0.00 0.00 153.76 118.00" xmlns="http://www.w3.org/2000/svg" xmlns:xlink="http://www.w3.org/1999/xlink">
<g id="graph0" class="graph" transform="scale(1 1) rotate(0) translate(4 114)">
<title>G</title>
<polygon fill="white" stroke="none" points="-4,4 -4,-114 149.76,-114 149.76,4 -4,4"/>
<g id="clust1" class="cluster">
<title>cluster_</title>
</g>
<!-- 0 -->
<g id="node1" class="node">
<title>0</title>
<ellipse fill="none" stroke="black" cx="54.16" cy="-64" rx="0.72" ry="0.72"/>
</g>
<!-- 3 -->
<g id="node4" class="node">
<title>3</title>
<ellipse fill="none" stroke="black" cx="91.6" cy="-55" rx="0.72" ry="0.72"/>
</g>
<!-- 0&#45;&gt;3 -->
<g id="edge1" class="edge">
<title>0&#45;&gt;3</title>
<path fill="none" stroke="black" d="M55.28,-63.9C57.66,-63.31 70.02,-60.21 79.52,-57.84"/>
<polygon fill="black" stroke="black" points="80.2,-61.28 89.06,-55.46 78.51,-54.49 80.2,-61.28"/>
</g>
<!-- 4 -->
<g id="node5" class="node">
<title>4</title>
<ellipse fill="none" stroke="black" cx="91.6" cy="-74" rx="0.72" ry="0.72"/>
</g>
<!-- 0&#45;&gt;4 -->
<g id="edge4" class="edge">
<title>0&#45;&gt;4</title>
<path fill="none" stroke="black" d="M55.28,-64.11C57.66,-64.77 70.02,-68.21 79.52,-70.84"/>
<polygon fill="black" stroke="black" points="78.49,-74.19 89.07,-73.5 80.37,-67.45 78.49,-74.19"/>
</g>
<!-- 1 -->
<g id="node2" class="node">
<title>1</title>
<ellipse fill="none" stroke="black" cx="129.04" cy="-74" rx="0.72" ry="0.72"/>
</g>
<!-- 2 -->
<g id="node3" class="node">
<title>2</title>
<ellipse fill="none" stroke="black" cx="16.72" cy="-17" rx="0.72" ry="0.72"/>
</g>
<!-- 7 -->
<g id="node8" class="node">
<title>7</title>
<ellipse fill="none" stroke="black" cx="129.04" cy="-46" rx="0.72" ry="0.72"/>
</g>
<!-- 3&#45;&gt;7 -->
<g id="edge7" class="edge">
<title>3&#45;&gt;7</title>
<path fill="none" stroke="black" d="M92.72,-54.9C95.1,-54.31 107.46,-51.21 116.96,-48.84"/>
<polygon fill="black" stroke="black" points="117.64,-52.28 126.5,-46.46 115.95,-45.49 117.64,-52.28"/>
</g>
<!-- 4&#45;&gt;1 -->
<g id="edge2" class="edge">
<title>4&#45;&gt;1</title>
<path fill="none" stroke="black" d="M92.72,-74C95.07,-74 107.16,-74 116.61,-74"/>
<polygon fill="black" stroke="black" points="116.45,-77.5 126.45,-74 116.45,-70.5 116.45,-77.5"/>
</g>
<!-- 5 -->
<g id="node6" class="node">
<title>5</title>
<ellipse fill="none" stroke="black" cx="16.72" cy="-36" rx="0.72" ry="0.72"/>
</g>
<!-- 10 -->
<g id="node11" class="node">
<title>10</title>
<ellipse fill="none" stroke="black" cx="54.16" cy="-36" rx="0.72" ry="0.72"/>
</g>
<!-- 5&#45;&gt;10 -->
<g id="edge5" class="edge">
<title>5&#45;&gt;10</title>
<path fill="none" stroke="black" d="M17.84,-36C20.19,-36 32.28,-36 41.73,-36"/>
<polygon fill="black" stroke="black" points="41.57,-39.5 51.57,-36 41.57,-32.5 41.57,-39.5"/>
</g>
<!-- 6 -->
<g id="node7" class="node">
<title>6</title>
<ellipse fill="none" stroke="black" cx="16.72" cy="-55" rx="0.72" ry="0.72"/>
</g>
<!-- 8 -->
<g id="node9" class="node">
<title>8</title>
<ellipse fill="none" stroke="black" cx="16.72" cy="-74" rx="0.72" ry="0.72"/>
</g>
<!-- 9 -->
<g id="node10" class="node">
<title>9</title>
<ellipse fill="none" stroke="black" cx="91.6" cy="-36" rx="0.72" ry="0.72"/>
</g>
<!-- 9&#45;&gt;7 -->
<g id="edge6" class="edge">
<title>9&#45;&gt;7</title>
<path fill="none" stroke="black" d="M92.72,-36.11C95.1,-36.77 107.46,-40.21 116.96,-42.84"/>
<polygon fill="black" stroke="black" points="115.93,-46.19 126.51,-45.5 117.81,-39.45 115.93,-46.19"/>
</g>
<!-- 10&#45;&gt;9 -->
<g id="edge3" class="edge">
<title>10&#45;&gt;9</title>
<path fill="none" stroke="black" d="M55.28,-36C57.63,-36 69.72,-36 79.17,-36"/>
<polygon fill="black" stroke="black" points="79.01,-39.5 89.01,-36 79.01,-32.5 79.01,-39.5"/>
</g>
<!-- 11 -->
<g id="node12" class="node">
<title>11</title>
<ellipse fill="none" stroke="black" cx="16.72" cy="-93" rx="0.72" ry="0.72"/>
</g>
</g>
</svg>
