<?xml version="1.0" encoding="UTF-8" standalone="no"?>
<!DOCTYPE svg PUBLIC "-//W3C//DTD SVG 1.1//EN"
 "http://www.w3.org/Graphics/SVG/1.1/DTD/svg11.dtd">
<!-- Generated by graphviz version 12.0.0 (20240704.0754)
 -->
<!-- Title: G Pages: 1 -->
<svg width="266pt" height="101pt"
 viewBox="0.00 0.00 266.08 101.00" xmlns="http://www.w3.org/2000/svg" xmlns:xlink="http://www.w3.org/1999/xlink">
<g id="graph0" class="graph" transform="scale(1 1) rotate(0) translate(4 97)">
<title>G</title>
<polygon fill="white" stroke="none" points="-4,4 -4,-97 262.08,-97 262.08,4 -4,4"/>
<g id="clust1" class="cluster">
<title>cluster_</title>
</g>
<!-- 0 -->
<g id="node1" class="node">
<title>0</title>
<ellipse fill="none" stroke="black" cx="16.72" cy="-17" rx="0.72" ry="0.72"/>
</g>
<!-- 4 -->
<g id="node5" class="node">
<title>4</title>
<ellipse fill="none" stroke="black" cx="54.16" cy="-17" rx="0.72" ry="0.72"/>
</g>
<!-- 0&#45;&gt;4 -->
<g id="edge4" class="edge">
<title>0&#45;&gt;4</title>
<path fill="none" stroke="black" d="M17.84,-17C20.19,-17 32.28,-17 41.73,-17"/>
<polygon fill="black" stroke="black" points="41.57,-20.5 51.57,-17 41.57,-13.5 41.57,-20.5"/>
</g>
<!-- 7 -->
<g id="node8" class="node">
<title>7</title>
<ellipse fill="none" stroke="black" cx="129.04" cy="-56" rx="0.72" ry="0.72"/>
</g>
<!-- 0&#45;&gt;7 -->
<g id="edge10" class="edge">
<title>0&#45;&gt;7</title>
<path fill="none" stroke="black" d="M17.64,-17.24C19.59,-19.56 35.74,-38.4 53.44,-46 74.46,-55.02 101.58,-56.39 116.75,-56.35"/>
<polygon fill="black" stroke="black" points="116.79,-59.85 126.68,-56.05 116.58,-52.85 116.79,-59.85"/>
</g>
<!-- 1 -->
<g id="node2" class="node">
<title>1</title>
<ellipse fill="none" stroke="black" cx="91.6" cy="-17" rx="0.72" ry="0.72"/>
</g>
<!-- 2 -->
<g id="node3" class="node">
<title>2</title>
<ellipse fill="none" stroke="black" cx="16.72" cy="-37" rx="0.72" ry="0.72"/>
</g>
<!-- 3 -->
<g id="node4" class="node">
<title>3</title>
<ellipse fill="none" stroke="black" cx="203.92" cy="-56" rx="0.72" ry="0.72"/>
</g>
<!-- 10 -->
<g id="node11" class="node">
<title>10</title>
<ellipse fill="none" stroke="black" cx="241.36" cy="-56" rx="0.72" ry="0.72"/>
</g>
<!-- 3&#45;&gt;10 -->
<g id="edge3" class="edge">
<title>3&#45;&gt;10</title>
<path fill="none" stroke="black" d="M205.04,-56C207.39,-56 219.48,-56 228.93,-56"/>
<polygon fill="black" stroke="black" points="228.77,-59.5 238.77,-56 228.77,-52.5 228.77,-59.5"/>
</g>
<!-- 4&#45;&gt;1 -->
<g id="edge2" class="edge">
<title>4&#45;&gt;1</title>
<path fill="none" stroke="black" d="M55.28,-17C57.63,-17 69.72,-17 79.17,-17"/>
<polygon fill="black" stroke="black" points="79.01,-20.5 89.01,-17 79.01,-13.5 79.01,-20.5"/>
</g>
<!-- 5 -->
<g id="node6" class="node">
<title>5</title>
<ellipse fill="none" stroke="black" cx="16.72" cy="-56" rx="0.72" ry="0.72"/>
</g>
<!-- 6 -->
<g id="node7" class="node">
<title>6</title>
<ellipse fill="none" stroke="black" cx="54.16" cy="-36" rx="0.72" ry="0.72"/>
</g>
<!-- 6&#45;&gt;1 -->
<g id="edge9" class="edge">
<title>6&#45;&gt;1</title>
<path fill="none" stroke="black" d="M55.28,-35.79C57.75,-34.49 70.94,-27.52 80.55,-22.45"/>
<polygon fill="black" stroke="black" points="81.97,-25.66 89.19,-17.89 78.71,-19.47 81.97,-25.66"/>
</g>
<!-- 6&#45;&gt;7 -->
<g id="edge8" class="edge">
<title>6&#45;&gt;7</title>
<path fill="none" stroke="black" d="M55.11,-36.06C57.36,-36.7 75.86,-41.91 90.88,-46 99.64,-48.39 109.58,-51.04 117.01,-53.01"/>
<polygon fill="black" stroke="black" points="116.06,-56.38 126.62,-55.55 117.85,-49.61 116.06,-56.38"/>
</g>
<!-- 8 -->
<g id="node9" class="node">
<title>8</title>
<ellipse fill="none" stroke="black" cx="91.6" cy="-36" rx="0.72" ry="0.72"/>
</g>
<!-- 6&#45;&gt;8 -->
<g id="edge1" class="edge">
<title>6&#45;&gt;8</title>
<path fill="none" stroke="black" d="M55.28,-36C57.63,-36 69.72,-36 79.17,-36"/>
<polygon fill="black" stroke="black" points="79.01,-39.5 89.01,-36 79.01,-32.5 79.01,-39.5"/>
</g>
<!-- 11 -->
<g id="node12" class="node">
<title>11</title>
<ellipse fill="none" stroke="black" cx="166.48" cy="-56" rx="0.72" ry="0.72"/>
</g>
<!-- 7&#45;&gt;11 -->
<g id="edge6" class="edge">
<title>7&#45;&gt;11</title>
<path fill="none" stroke="black" d="M130.16,-56C132.51,-56 144.6,-56 154.05,-56"/>
<polygon fill="black" stroke="black" points="153.89,-59.5 163.89,-56 153.89,-52.5 153.89,-59.5"/>
</g>
<!-- 8&#45;&gt;7 -->
<g id="edge5" class="edge">
<title>8&#45;&gt;7</title>
<path fill="none" stroke="black" d="M92.72,-36.22C95.19,-37.59 108.38,-44.92 117.99,-50.26"/>
<polygon fill="black" stroke="black" points="116.2,-53.27 126.64,-55.07 119.6,-47.15 116.2,-53.27"/>
</g>
<!-- 9 -->
<g id="node10" class="node">
<title>9</title>
<ellipse fill="none" stroke="black" cx="16.72" cy="-75" rx="0.72" ry="0.72"/>
</g>
<!-- 11&#45;&gt;3 -->
<g id="edge7" class="edge">
<title>11&#45;&gt;3</title>
<path fill="none" stroke="black" d="M167.6,-56C169.95,-56 182.04,-56 191.49,-56"/>
<polygon fill="black" stroke="black" points="191.33,-59.5 201.33,-56 191.33,-52.5 191.33,-59.5"/>
</g>
</g>
</svg>
