<?xml version="1.0" encoding="UTF-8" standalone="no"?>
<!DOCTYPE svg PUBLIC "-//W3C//DTD SVG 1.1//EN"
 "http://www.w3.org/Graphics/SVG/1.1/DTD/svg11.dtd">
<!-- Generated by graphviz version 12.0.0 (20240704.0754)
 -->
<!-- Title: G Pages: 1 -->
<svg width="116pt" height="156pt"
 viewBox="0.00 0.00 116.32 156.00" xmlns="http://www.w3.org/2000/svg" xmlns:xlink="http://www.w3.org/1999/xlink">
<g id="graph0" class="graph" transform="scale(1 1) rotate(0) translate(4 152)">
<title>G</title>
<polygon fill="white" stroke="none" points="-4,4 -4,-152 112.32,-152 112.32,4 -4,4"/>
<g id="clust1" class="cluster">
<title>cluster_</title>
</g>
<!-- 0 -->
<g id="node1" class="node">
<title>0</title>
<ellipse fill="none" stroke="black" cx="16.72" cy="-93" rx="0.72" ry="0.72"/>
</g>
<!-- 4 -->
<g id="node5" class="node">
<title>4</title>
<ellipse fill="none" stroke="black" cx="54.16" cy="-104" rx="0.72" ry="0.72"/>
</g>
<!-- 0&#45;&gt;4 -->
<g id="edge3" class="edge">
<title>0&#45;&gt;4</title>
<path fill="none" stroke="black" d="M17.84,-93.12C20.22,-93.85 32.58,-97.63 42.08,-100.53"/>
<polygon fill="black" stroke="black" points="41.05,-103.87 51.64,-103.45 43.1,-97.18 41.05,-103.87"/>
</g>
<!-- 10 -->
<g id="node11" class="node">
<title>10</title>
<ellipse fill="none" stroke="black" cx="54.16" cy="-85" rx="0.72" ry="0.72"/>
</g>
<!-- 0&#45;&gt;10 -->
<g id="edge6" class="edge">
<title>0&#45;&gt;10</title>
<path fill="none" stroke="black" d="M17.84,-92.91C20.22,-92.38 32.58,-89.64 42.08,-87.53"/>
<polygon fill="black" stroke="black" points="42.6,-90.99 51.61,-85.41 41.09,-84.16 42.6,-90.99"/>
</g>
<!-- 1 -->
<g id="node2" class="node">
<title>1</title>
<ellipse fill="none" stroke="black" cx="91.6" cy="-84" rx="0.72" ry="0.72"/>
</g>
<!-- 2 -->
<g id="node3" class="node">
<title>2</title>
<ellipse fill="none" stroke="black" cx="16.72" cy="-17" rx="0.72" ry="0.72"/>
</g>
<!-- 3 -->
<g id="node4" class="node">
<title>3</title>
<ellipse fill="none" stroke="black" cx="16.72" cy="-36" rx="0.72" ry="0.72"/>
</g>
<!-- 8 -->
<g id="node9" class="node">
<title>8</title>
<ellipse fill="none" stroke="black" cx="54.16" cy="-36" rx="0.72" ry="0.72"/>
</g>
<!-- 3&#45;&gt;8 -->
<g id="edge4" class="edge">
<title>3&#45;&gt;8</title>
<path fill="none" stroke="black" d="M17.84,-36C20.19,-36 32.28,-36 41.73,-36"/>
<polygon fill="black" stroke="black" points="41.57,-39.5 51.57,-36 41.57,-32.5 41.57,-39.5"/>
</g>
<!-- 4&#45;&gt;1 -->
<g id="edge2" class="edge">
<title>4&#45;&gt;1</title>
<path fill="none" stroke="black" d="M55.28,-103.78C57.75,-102.41 70.94,-95.08 80.55,-89.74"/>
<polygon fill="black" stroke="black" points="82.16,-92.85 89.2,-84.93 78.76,-86.73 82.16,-92.85"/>
</g>
<!-- 5 -->
<g id="node6" class="node">
<title>5</title>
<ellipse fill="none" stroke="black" cx="16.72" cy="-55" rx="0.72" ry="0.72"/>
</g>
<!-- 6 -->
<g id="node7" class="node">
<title>6</title>
<ellipse fill="none" stroke="black" cx="16.72" cy="-74" rx="0.72" ry="0.72"/>
</g>
<!-- 6&#45;&gt;1 -->
<g id="edge7" class="edge">
<title>6&#45;&gt;1</title>
<path fill="none" stroke="black" d="M17.68,-73.99C20.04,-73.86 39.42,-72.89 54.88,-75 63.38,-76.16 72.77,-78.55 79.83,-80.57"/>
<polygon fill="black" stroke="black" points="78.62,-83.86 89.21,-83.48 80.69,-77.17 78.62,-83.86"/>
</g>
<!-- 6&#45;&gt;10 -->
<g id="edge1" class="edge">
<title>6&#45;&gt;10</title>
<path fill="none" stroke="black" d="M17.84,-74.12C20.22,-74.85 32.58,-78.63 42.08,-81.53"/>
<polygon fill="black" stroke="black" points="41.05,-84.87 51.64,-84.45 43.1,-78.18 41.05,-84.87"/>
</g>
<!-- 7 -->
<g id="node8" class="node">
<title>7</title>
<ellipse fill="none" stroke="black" cx="16.72" cy="-112" rx="0.72" ry="0.72"/>
</g>
<!-- 9 -->
<g id="node10" class="node">
<title>9</title>
<ellipse fill="none" stroke="black" cx="16.72" cy="-131" rx="0.72" ry="0.72"/>
</g>
<!-- 11 -->
<g id="node12" class="node">
<title>11</title>
<ellipse fill="none" stroke="black" cx="54.16" cy="-131" rx="0.72" ry="0.72"/>
</g>
<!-- 9&#45;&gt;11 -->
<g id="edge5" class="edge">
<title>9&#45;&gt;11</title>
<path fill="none" stroke="black" d="M17.84,-131C20.19,-131 32.28,-131 41.73,-131"/>
<polygon fill="black" stroke="black" points="41.57,-134.5 51.57,-131 41.57,-127.5 41.57,-134.5"/>
</g>
</g>
</svg>
