<?xml version="1.0" encoding="UTF-8" standalone="no"?>
<!DOCTYPE svg PUBLIC "-//W3C//DTD SVG 1.1//EN"
 "http://www.w3.org/Graphics/SVG/1.1/DTD/svg11.dtd">
<!-- Generated by graphviz version 12.0.0 (20240704.0754)
 -->
<!-- Title: G Pages: 1 -->
<svg width="304pt" height="80pt"
 viewBox="0.00 0.00 303.52 80.00" xmlns="http://www.w3.org/2000/svg" xmlns:xlink="http://www.w3.org/1999/xlink">
<g id="graph0" class="graph" transform="scale(1 1) rotate(0) translate(4 76)">
<title>G</title>
<polygon fill="white" stroke="none" points="-4,4 -4,-76 299.52,-76 299.52,4 -4,4"/>
<g id="clust1" class="cluster">
<title>cluster_</title>
</g>
<!-- 0 -->
<g id="node1" class="node">
<title>0</title>
<ellipse fill="none" stroke="black" cx="203.92" cy="-36" rx="0.72" ry="0.72"/>
</g>
<!-- 4 -->
<g id="node5" class="node">
<title>4</title>
<ellipse fill="none" stroke="black" cx="241.36" cy="-31" rx="0.72" ry="0.72"/>
</g>
<!-- 0&#45;&gt;4 -->
<g id="edge4" class="edge">
<title>0&#45;&gt;4</title>
<path fill="none" stroke="black" d="M205.04,-35.94C207.39,-35.62 219.48,-33.94 228.93,-32.63"/>
<polygon fill="black" stroke="black" points="229.36,-36.1 238.78,-31.26 228.4,-29.17 229.36,-36.1"/>
</g>
<!-- 1 -->
<g id="node2" class="node">
<title>1</title>
<ellipse fill="none" stroke="black" cx="278.8" cy="-26" rx="0.72" ry="0.72"/>
</g>
<!-- 2 -->
<g id="node3" class="node">
<title>2</title>
<ellipse fill="none" stroke="black" cx="16.72" cy="-17" rx="0.72" ry="0.72"/>
</g>
<!-- 10 -->
<g id="node11" class="node">
<title>10</title>
<ellipse fill="none" stroke="black" cx="54.16" cy="-17" rx="0.72" ry="0.72"/>
</g>
<!-- 2&#45;&gt;10 -->
<g id="edge8" class="edge">
<title>2&#45;&gt;10</title>
<path fill="none" stroke="black" d="M17.84,-17C20.19,-17 32.28,-17 41.73,-17"/>
<polygon fill="black" stroke="black" points="41.57,-20.5 51.57,-17 41.57,-13.5 41.57,-20.5"/>
</g>
<!-- 3 -->
<g id="node4" class="node">
<title>3</title>
<ellipse fill="none" stroke="black" cx="91.6" cy="-17" rx="0.72" ry="0.72"/>
</g>
<!-- 8 -->
<g id="node9" class="node">
<title>8</title>
<ellipse fill="none" stroke="black" cx="129.04" cy="-17" rx="0.72" ry="0.72"/>
</g>
<!-- 3&#45;&gt;8 -->
<g id="edge6" class="edge">
<title>3&#45;&gt;8</title>
<path fill="none" stroke="black" d="M92.72,-17C95.07,-17 107.16,-17 116.61,-17"/>
<polygon fill="black" stroke="black" points="116.45,-20.5 126.45,-17 116.45,-13.5 116.45,-20.5"/>
</g>
<!-- 4&#45;&gt;1 -->
<g id="edge2" class="edge">
<title>4&#45;&gt;1</title>
<path fill="none" stroke="black" d="M242.48,-30.94C244.83,-30.62 256.92,-28.94 266.37,-27.63"/>
<polygon fill="black" stroke="black" points="266.8,-31.1 276.22,-26.26 265.84,-24.17 266.8,-31.1"/>
</g>
<!-- 5 -->
<g id="node6" class="node">
<title>5</title>
<ellipse fill="none" stroke="black" cx="278.8" cy="-45" rx="0.72" ry="0.72"/>
</g>
<!-- 4&#45;&gt;5 -->
<g id="edge3" class="edge">
<title>4&#45;&gt;5</title>
<path fill="none" stroke="black" d="M242.48,-31.16C244.89,-32.09 257.52,-37.01 267.06,-40.72"/>
<polygon fill="black" stroke="black" points="265.72,-43.95 276.31,-44.31 268.26,-37.43 265.72,-43.95"/>
</g>
<!-- 6 -->
<g id="node7" class="node">
<title>6</title>
<ellipse fill="none" stroke="black" cx="16.72" cy="-36" rx="0.72" ry="0.72"/>
</g>
<!-- 7 -->
<g id="node8" class="node">
<title>7</title>
<ellipse fill="none" stroke="black" cx="203.92" cy="-17" rx="0.72" ry="0.72"/>
</g>
<!-- 7&#45;&gt;4 -->
<g id="edge1" class="edge">
<title>7&#45;&gt;4</title>
<path fill="none" stroke="black" d="M205.04,-17.16C207.45,-18.09 220.08,-23.01 229.62,-26.72"/>
<polygon fill="black" stroke="black" points="228.28,-29.95 238.87,-30.31 230.82,-23.43 228.28,-29.95"/>
</g>
<!-- 11 -->
<g id="node12" class="node">
<title>11</title>
<ellipse fill="none" stroke="black" cx="166.48" cy="-17" rx="0.72" ry="0.72"/>
</g>
<!-- 8&#45;&gt;11 -->
<g id="edge9" class="edge">
<title>8&#45;&gt;11</title>
<path fill="none" stroke="black" d="M130.16,-17C132.51,-17 144.6,-17 154.05,-17"/>
<polygon fill="black" stroke="black" points="153.89,-20.5 163.89,-17 153.89,-13.5 153.89,-20.5"/>
</g>
<!-- 9 -->
<g id="node10" class="node">
<title>9</title>
<ellipse fill="none" stroke="black" cx="16.72" cy="-55" rx="0.72" ry="0.72"/>
</g>
<!-- 10&#45;&gt;3 -->
<g id="edge7" class="edge">
<title>10&#45;&gt;3</title>
<path fill="none" stroke="black" d="M55.28,-17C57.63,-17 69.72,-17 79.17,-17"/>
<polygon fill="black" stroke="black" points="79.01,-20.5 89.01,-17 79.01,-13.5 79.01,-20.5"/>
</g>
<!-- 11&#45;&gt;7 -->
<g id="edge5" class="edge">
<title>11&#45;&gt;7</title>
<path fill="none" stroke="black" d="M167.6,-17C169.95,-17 182.04,-17 191.49,-17"/>
<polygon fill="black" stroke="black" points="191.33,-20.5 201.33,-17 191.33,-13.5 191.33,-20.5"/>
</g>
</g>
</svg>
