<?xml version="1.0" encoding="UTF-8" standalone="no"?>
<!DOCTYPE svg PUBLIC "-//W3C//DTD SVG 1.1//EN"
 "http://www.w3.org/Graphics/SVG/1.1/DTD/svg11.dtd">
<!-- Generated by graphviz version 12.0.0 (20240704.0754)
 -->
<!-- Title: G Pages: 1 -->
<svg width="116pt" height="175pt"
 viewBox="0.00 0.00 116.32 175.00" xmlns="http://www.w3.org/2000/svg" xmlns:xlink="http://www.w3.org/1999/xlink">
<g id="graph0" class="graph" transform="scale(1 1) rotate(0) translate(4 171)">
<title>G</title>
<polygon fill="white" stroke="none" points="-4,4 -4,-171 112.32,-171 112.32,4 -4,4"/>
<g id="clust1" class="cluster">
<title>cluster_</title>
</g>
<!-- 0 -->
<g id="node1" class="node">
<title>0</title>
<ellipse fill="none" stroke="black" cx="16.72" cy="-112" rx="0.72" ry="0.72"/>
</g>
<!-- 1 -->
<g id="node2" class="node">
<title>1</title>
<ellipse fill="none" stroke="black" cx="54.16" cy="-112" rx="0.72" ry="0.72"/>
</g>
<!-- 0&#45;&gt;1 -->
<g id="edge6" class="edge">
<title>0&#45;&gt;1</title>
<path fill="none" stroke="black" d="M17.84,-112C20.19,-112 32.28,-112 41.73,-112"/>
<polygon fill="black" stroke="black" points="41.57,-115.5 51.57,-112 41.57,-108.5 41.57,-115.5"/>
</g>
<!-- 2 -->
<g id="node3" class="node">
<title>2</title>
<ellipse fill="none" stroke="black" cx="91.6" cy="-83" rx="0.72" ry="0.72"/>
</g>
<!-- 3 -->
<g id="node4" class="node">
<title>3</title>
<ellipse fill="none" stroke="black" cx="16.72" cy="-17" rx="0.72" ry="0.72"/>
</g>
<!-- 4 -->
<g id="node5" class="node">
<title>4</title>
<ellipse fill="none" stroke="black" cx="16.72" cy="-36" rx="0.72" ry="0.72"/>
</g>
<!-- 5 -->
<g id="node6" class="node">
<title>5</title>
<ellipse fill="none" stroke="black" cx="16.72" cy="-55" rx="0.72" ry="0.72"/>
</g>
<!-- 7 -->
<g id="node8" class="node">
<title>7</title>
<ellipse fill="none" stroke="black" cx="54.16" cy="-53" rx="0.72" ry="0.72"/>
</g>
<!-- 5&#45;&gt;7 -->
<g id="edge3" class="edge">
<title>5&#45;&gt;7</title>
<path fill="none" stroke="black" d="M17.84,-54.98C20.19,-54.85 32.28,-54.18 41.73,-53.65"/>
<polygon fill="black" stroke="black" points="41.78,-57.15 51.57,-53.1 41.39,-50.16 41.78,-57.15"/>
</g>
<!-- 6 -->
<g id="node7" class="node">
<title>6</title>
<ellipse fill="none" stroke="black" cx="16.72" cy="-74" rx="0.72" ry="0.72"/>
</g>
<!-- 8 -->
<g id="node9" class="node">
<title>8</title>
<ellipse fill="none" stroke="black" cx="54.16" cy="-93" rx="0.72" ry="0.72"/>
</g>
<!-- 8&#45;&gt;2 -->
<g id="edge2" class="edge">
<title>8&#45;&gt;2</title>
<path fill="none" stroke="black" d="M55.28,-92.89C57.66,-92.23 70.02,-88.79 79.52,-86.16"/>
<polygon fill="black" stroke="black" points="80.37,-89.55 89.07,-83.5 78.49,-82.81 80.37,-89.55"/>
</g>
<!-- 9 -->
<g id="node10" class="node">
<title>9</title>
<ellipse fill="none" stroke="black" cx="16.72" cy="-93" rx="0.72" ry="0.72"/>
</g>
<!-- 9&#45;&gt;1 -->
<g id="edge4" class="edge">
<title>9&#45;&gt;1</title>
<path fill="none" stroke="black" d="M17.84,-93.21C20.31,-94.51 33.5,-101.48 43.11,-106.55"/>
<polygon fill="black" stroke="black" points="41.27,-109.53 51.75,-111.11 44.53,-103.34 41.27,-109.53"/>
</g>
<!-- 9&#45;&gt;2 -->
<g id="edge5" class="edge">
<title>9&#45;&gt;2</title>
<path fill="none" stroke="black" d="M17.66,-92.91C19.87,-92.05 38.01,-85.1 53.44,-83 62.01,-81.83 71.8,-81.88 79.21,-82.19"/>
<polygon fill="black" stroke="black" points="78.91,-85.68 89.13,-82.87 79.39,-78.7 78.91,-85.68"/>
</g>
<!-- 9&#45;&gt;8 -->
<g id="edge1" class="edge">
<title>9&#45;&gt;8</title>
<path fill="none" stroke="black" d="M17.84,-93C20.19,-93 32.28,-93 41.73,-93"/>
<polygon fill="black" stroke="black" points="41.57,-96.5 51.57,-93 41.57,-89.5 41.57,-96.5"/>
</g>
<!-- 10 -->
<g id="node11" class="node">
<title>10</title>
<ellipse fill="none" stroke="black" cx="16.72" cy="-131" rx="0.72" ry="0.72"/>
</g>
<!-- 11 -->
<g id="node12" class="node">
<title>11</title>
<ellipse fill="none" stroke="black" cx="16.72" cy="-150" rx="0.72" ry="0.72"/>
</g>
</g>
</svg>
