<?xml version="1.0" encoding="UTF-8" standalone="no"?>
<!DOCTYPE svg PUBLIC "-//W3C//DTD SVG 1.1//EN"
 "http://www.w3.org/Graphics/SVG/1.1/DTD/svg11.dtd">
<!-- Generated by graphviz version 12.0.0 (20240704.0754)
 -->
<!-- Title: G Pages: 1 -->
<svg width="116pt" height="120pt"
 viewBox="0.00 0.00 116.32 120.00" xmlns="http://www.w3.org/2000/svg" xmlns:xlink="http://www.w3.org/1999/xlink">
<g id="graph0" class="graph" transform="scale(1 1) rotate(0) translate(4 116)">
<title>G</title>
<polygon fill="white" stroke="none" points="-4,4 -4,-116 112.32,-116 112.32,4 -4,4"/>
<g id="clust1" class="cluster">
<title>cluster_</title>
</g>
<!-- 0 -->
<g id="node1" class="node">
<title>0</title>
<ellipse fill="none" stroke="black" cx="16.72" cy="-19" rx="0.72" ry="0.72"/>
</g>
<!-- 4 -->
<g id="node5" class="node">
<title>4</title>
<ellipse fill="none" stroke="black" cx="54.16" cy="-17" rx="0.72" ry="0.72"/>
</g>
<!-- 0&#45;&gt;4 -->
<g id="edge4" class="edge">
<title>0&#45;&gt;4</title>
<path fill="none" stroke="black" d="M17.84,-18.98C20.19,-18.85 32.28,-18.18 41.73,-17.65"/>
<polygon fill="black" stroke="black" points="41.78,-21.15 51.57,-17.1 41.39,-14.16 41.78,-21.15"/>
</g>
<!-- 5 -->
<g id="node6" class="node">
<title>5</title>
<ellipse fill="none" stroke="black" cx="54.16" cy="-76" rx="0.72" ry="0.72"/>
</g>
<!-- 0&#45;&gt;5 -->
<g id="edge3" class="edge">
<title>0&#45;&gt;5</title>
<path fill="none" stroke="black" d="M17.54,-19.16C19.08,-21.59 37.33,-50.5 47.2,-66.12"/>
<polygon fill="black" stroke="black" points="44.24,-67.98 52.53,-74.57 50.15,-64.24 44.24,-67.98"/>
</g>
<!-- 11 -->
<g id="node11" class="node">
<title>11</title>
<ellipse fill="none" stroke="black" cx="91.6" cy="-66" rx="0.72" ry="0.72"/>
</g>
<!-- 0&#45;&gt;11 -->
<g id="edge5" class="edge">
<title>0&#45;&gt;11</title>
<path fill="none" stroke="black" d="M17.66,-19.19C19.82,-21.01 37.62,-35.93 53.44,-46 62.3,-51.64 72.89,-57.2 80.55,-61.02"/>
<polygon fill="black" stroke="black" points="78.74,-64.03 89.27,-65.23 81.79,-57.73 78.74,-64.03"/>
</g>
<!-- 1 -->
<g id="node2" class="node">
<title>1</title>
<ellipse fill="none" stroke="black" cx="91.6" cy="-27" rx="0.72" ry="0.72"/>
</g>
<!-- 2 -->
<g id="node3" class="node">
<title>2</title>
<ellipse fill="none" stroke="black" cx="16.72" cy="-76" rx="0.72" ry="0.72"/>
</g>
<!-- 3 -->
<g id="node4" class="node">
<title>3</title>
<ellipse fill="none" stroke="black" cx="54.16" cy="-95" rx="0.72" ry="0.72"/>
</g>
<!-- 4&#45;&gt;1 -->
<g id="edge2" class="edge">
<title>4&#45;&gt;1</title>
<path fill="none" stroke="black" d="M55.28,-17.11C57.66,-17.77 70.02,-21.21 79.52,-23.84"/>
<polygon fill="black" stroke="black" points="78.49,-27.19 89.07,-26.5 80.37,-20.45 78.49,-27.19"/>
</g>
<!-- 5&#45;&gt;11 -->
<g id="edge9" class="edge">
<title>5&#45;&gt;11</title>
<path fill="none" stroke="black" d="M55.28,-75.89C57.66,-75.23 70.02,-71.79 79.52,-69.16"/>
<polygon fill="black" stroke="black" points="80.37,-72.55 89.07,-66.5 78.49,-65.81 80.37,-72.55"/>
</g>
<!-- 7 -->
<g id="node7" class="node">
<title>7</title>
<ellipse fill="none" stroke="black" cx="54.16" cy="-36" rx="0.72" ry="0.72"/>
</g>
<!-- 7&#45;&gt;1 -->
<g id="edge1" class="edge">
<title>7&#45;&gt;1</title>
<path fill="none" stroke="black" d="M55.28,-35.9C57.66,-35.31 70.02,-32.21 79.52,-29.84"/>
<polygon fill="black" stroke="black" points="80.2,-33.28 89.06,-27.46 78.51,-26.49 80.2,-33.28"/>
</g>
<!-- 8 -->
<g id="node8" class="node">
<title>8</title>
<ellipse fill="none" stroke="black" cx="16.72" cy="-38" rx="0.72" ry="0.72"/>
</g>
<!-- 8&#45;&gt;3 -->
<g id="edge6" class="edge">
<title>8&#45;&gt;3</title>
<path fill="none" stroke="black" d="M17.54,-38.16C19.08,-40.59 37.33,-69.5 47.2,-85.12"/>
<polygon fill="black" stroke="black" points="44.24,-86.98 52.53,-93.57 50.15,-83.24 44.24,-86.98"/>
</g>
<!-- 8&#45;&gt;5 -->
<g id="edge8" class="edge">
<title>8&#45;&gt;5</title>
<path fill="none" stroke="black" d="M17.84,-38.43C20.51,-41.24 35.74,-57.32 45.4,-67.51"/>
<polygon fill="black" stroke="black" points="42.62,-69.67 52.04,-74.53 47.71,-64.86 42.62,-69.67"/>
</g>
<!-- 9 -->
<g id="node9" class="node">
<title>9</title>
<ellipse fill="none" stroke="black" cx="16.72" cy="-95" rx="0.72" ry="0.72"/>
</g>
<!-- 10 -->
<g id="node10" class="node">
<title>10</title>
<ellipse fill="none" stroke="black" cx="16.72" cy="-57" rx="0.72" ry="0.72"/>
</g>
<!-- 10&#45;&gt;3 -->
<g id="edge7" class="edge">
<title>10&#45;&gt;3</title>
<path fill="none" stroke="black" d="M17.84,-57.43C20.51,-60.24 35.74,-76.32 45.4,-86.51"/>
<polygon fill="black" stroke="black" points="42.62,-88.67 52.04,-93.53 47.71,-83.86 42.62,-88.67"/>
</g>
</g>
</svg>
