<?xml version="1.0" encoding="UTF-8" standalone="no"?>
<!DOCTYPE svg PUBLIC "-//W3C//DTD SVG 1.1//EN"
 "http://www.w3.org/Graphics/SVG/1.1/DTD/svg11.dtd">
<!-- Generated by graphviz version 12.0.0 (20240704.0754)
 -->
<!-- Title: G Pages: 1 -->
<svg width="116pt" height="120pt"
 viewBox="0.00 0.00 116.32 120.00" xmlns="http://www.w3.org/2000/svg" xmlns:xlink="http://www.w3.org/1999/xlink">
<g id="graph0" class="graph" transform="scale(1 1) rotate(0) translate(4 116)">
<title>G</title>
<polygon fill="white" stroke="none" points="-4,4 -4,-116 112.32,-116 112.32,4 -4,4"/>
<g id="clust1" class="cluster">
<title>cluster_</title>
</g>
<!-- 0 -->
<g id="node1" class="node">
<title>0</title>
<ellipse fill="none" stroke="black" cx="16.72" cy="-37" rx="0.72" ry="0.72"/>
</g>
<!-- 4 -->
<g id="node5" class="node">
<title>4</title>
<ellipse fill="none" stroke="black" cx="54.16" cy="-17" rx="0.72" ry="0.72"/>
</g>
<!-- 0&#45;&gt;4 -->
<g id="edge4" class="edge">
<title>0&#45;&gt;4</title>
<path fill="none" stroke="black" d="M17.84,-36.78C20.31,-35.41 33.5,-28.08 43.11,-22.74"/>
<polygon fill="black" stroke="black" points="44.72,-25.85 51.76,-17.93 41.32,-19.73 44.72,-25.85"/>
</g>
<!-- 5 -->
<g id="node6" class="node">
<title>5</title>
<ellipse fill="none" stroke="black" cx="54.16" cy="-57" rx="0.72" ry="0.72"/>
</g>
<!-- 0&#45;&gt;5 -->
<g id="edge3" class="edge">
<title>0&#45;&gt;5</title>
<path fill="none" stroke="black" d="M17.84,-37.22C20.31,-38.59 33.5,-45.92 43.11,-51.26"/>
<polygon fill="black" stroke="black" points="41.32,-54.27 51.76,-56.07 44.72,-48.15 41.32,-54.27"/>
</g>
<!-- 11 -->
<g id="node12" class="node">
<title>11</title>
<ellipse fill="none" stroke="black" cx="91.6" cy="-37" rx="0.72" ry="0.72"/>
</g>
<!-- 0&#45;&gt;11 -->
<g id="edge5" class="edge">
<title>0&#45;&gt;11</title>
<path fill="none" stroke="black" d="M17.91,-37C22.5,-37 59.61,-37 79.07,-37"/>
<polygon fill="black" stroke="black" points="78.94,-40.5 88.94,-37 78.94,-33.5 78.94,-40.5"/>
</g>
<!-- 1 -->
<g id="node2" class="node">
<title>1</title>
<ellipse fill="none" stroke="black" cx="91.6" cy="-17" rx="0.72" ry="0.72"/>
</g>
<!-- 2 -->
<g id="node3" class="node">
<title>2</title>
<ellipse fill="none" stroke="black" cx="16.72" cy="-56" rx="0.72" ry="0.72"/>
</g>
<!-- 3 -->
<g id="node4" class="node">
<title>3</title>
<ellipse fill="none" stroke="black" cx="54.16" cy="-95" rx="0.72" ry="0.72"/>
</g>
<!-- 7 -->
<g id="node8" class="node">
<title>7</title>
<ellipse fill="none" stroke="black" cx="91.6" cy="-76" rx="0.72" ry="0.72"/>
</g>
<!-- 3&#45;&gt;7 -->
<g id="edge8" class="edge">
<title>3&#45;&gt;7</title>
<path fill="none" stroke="black" d="M55.28,-94.79C57.75,-93.49 70.94,-86.52 80.55,-81.45"/>
<polygon fill="black" stroke="black" points="81.97,-84.66 89.19,-76.89 78.71,-78.47 81.97,-84.66"/>
</g>
<!-- 4&#45;&gt;1 -->
<g id="edge2" class="edge">
<title>4&#45;&gt;1</title>
<path fill="none" stroke="black" d="M55.28,-17C57.63,-17 69.72,-17 79.17,-17"/>
<polygon fill="black" stroke="black" points="79.01,-20.5 89.01,-17 79.01,-13.5 79.01,-20.5"/>
</g>
<!-- 5&#45;&gt;7 -->
<g id="edge1" class="edge">
<title>5&#45;&gt;7</title>
<path fill="none" stroke="black" d="M55.28,-57.21C57.75,-58.51 70.94,-65.48 80.55,-70.55"/>
<polygon fill="black" stroke="black" points="78.71,-73.53 89.19,-75.11 81.97,-67.34 78.71,-73.53"/>
</g>
<!-- 8 -->
<g id="node9" class="node">
<title>8</title>
<ellipse fill="none" stroke="black" cx="91.6" cy="-57" rx="0.72" ry="0.72"/>
</g>
<!-- 5&#45;&gt;8 -->
<g id="edge7" class="edge">
<title>5&#45;&gt;8</title>
<path fill="none" stroke="black" d="M55.28,-57C57.63,-57 69.72,-57 79.17,-57"/>
<polygon fill="black" stroke="black" points="79.01,-60.5 89.01,-57 79.01,-53.5 79.01,-60.5"/>
</g>
<!-- 5&#45;&gt;11 -->
<g id="edge9" class="edge">
<title>5&#45;&gt;11</title>
<path fill="none" stroke="black" d="M55.28,-56.78C57.75,-55.41 70.94,-48.08 80.55,-42.74"/>
<polygon fill="black" stroke="black" points="82.16,-45.85 89.2,-37.93 78.76,-39.73 82.16,-45.85"/>
</g>
<!-- 6 -->
<g id="node7" class="node">
<title>6</title>
<ellipse fill="none" stroke="black" cx="16.72" cy="-75" rx="0.72" ry="0.72"/>
</g>
<!-- 9 -->
<g id="node10" class="node">
<title>9</title>
<ellipse fill="none" stroke="black" cx="54.16" cy="-76" rx="0.72" ry="0.72"/>
</g>
<!-- 9&#45;&gt;7 -->
<g id="edge6" class="edge">
<title>9&#45;&gt;7</title>
<path fill="none" stroke="black" d="M55.28,-76C57.63,-76 69.72,-76 79.17,-76"/>
<polygon fill="black" stroke="black" points="79.01,-79.5 89.01,-76 79.01,-72.5 79.01,-79.5"/>
</g>
<!-- 10 -->
<g id="node11" class="node">
<title>10</title>
<ellipse fill="none" stroke="black" cx="16.72" cy="-94" rx="0.72" ry="0.72"/>
</g>
</g>
</svg>
