<?xml version="1.0" encoding="UTF-8" standalone="no"?>
<!DOCTYPE svg PUBLIC "-//W3C//DTD SVG 1.1//EN"
 "http://www.w3.org/Graphics/SVG/1.1/DTD/svg11.dtd">
<!-- Generated by graphviz version 12.0.0 (20240704.0754)
 -->
<!-- Title: G Pages: 1 -->
<svg width="116pt" height="137pt"
 viewBox="0.00 0.00 116.32 137.00" xmlns="http://www.w3.org/2000/svg" xmlns:xlink="http://www.w3.org/1999/xlink">
<g id="graph0" class="graph" transform="scale(1 1) rotate(0) translate(4 133)">
<title>G</title>
<polygon fill="white" stroke="none" points="-4,4 -4,-133 112.32,-133 112.32,4 -4,4"/>
<g id="clust1" class="cluster">
<title>cluster_</title>
</g>
<!-- 0 -->
<g id="node1" class="node">
<title>0</title>
<ellipse fill="none" stroke="black" cx="16.72" cy="-74" rx="0.72" ry="0.72"/>
</g>
<!-- 10 -->
<g id="node10" class="node">
<title>10</title>
<ellipse fill="none" stroke="black" cx="54.16" cy="-64" rx="0.72" ry="0.72"/>
</g>
<!-- 0&#45;&gt;10 -->
<g id="edge6" class="edge">
<title>0&#45;&gt;10</title>
<path fill="none" stroke="black" d="M17.84,-73.89C20.22,-73.23 32.58,-69.79 42.08,-67.16"/>
<polygon fill="black" stroke="black" points="42.93,-70.55 51.63,-64.5 41.05,-63.81 42.93,-70.55"/>
</g>
<!-- 1 -->
<g id="node2" class="node">
<title>1</title>
<ellipse fill="none" stroke="black" cx="91.6" cy="-64" rx="0.72" ry="0.72"/>
</g>
<!-- 2 -->
<g id="node3" class="node">
<title>2</title>
<ellipse fill="none" stroke="black" cx="16.72" cy="-17" rx="0.72" ry="0.72"/>
</g>
<!-- 4 -->
<g id="node4" class="node">
<title>4</title>
<ellipse fill="none" stroke="black" cx="16.72" cy="-36" rx="0.72" ry="0.72"/>
</g>
<!-- 5 -->
<g id="node5" class="node">
<title>5</title>
<ellipse fill="none" stroke="black" cx="54.16" cy="-102" rx="0.72" ry="0.72"/>
</g>
<!-- 7 -->
<g id="node7" class="node">
<title>7</title>
<ellipse fill="none" stroke="black" cx="91.6" cy="-92" rx="0.72" ry="0.72"/>
</g>
<!-- 5&#45;&gt;7 -->
<g id="edge3" class="edge">
<title>5&#45;&gt;7</title>
<path fill="none" stroke="black" d="M55.28,-101.89C57.66,-101.23 70.02,-97.79 79.52,-95.16"/>
<polygon fill="black" stroke="black" points="80.37,-98.55 89.07,-92.5 78.49,-91.81 80.37,-98.55"/>
</g>
<!-- 6 -->
<g id="node6" class="node">
<title>6</title>
<ellipse fill="none" stroke="black" cx="54.16" cy="-83" rx="0.72" ry="0.72"/>
</g>
<!-- 6&#45;&gt;7 -->
<g id="edge2" class="edge">
<title>6&#45;&gt;7</title>
<path fill="none" stroke="black" d="M55.28,-83.1C57.66,-83.69 70.02,-86.79 79.52,-89.16"/>
<polygon fill="black" stroke="black" points="78.51,-92.51 89.06,-91.54 80.2,-85.72 78.51,-92.51"/>
</g>
<!-- 8 -->
<g id="node8" class="node">
<title>8</title>
<ellipse fill="none" stroke="black" cx="16.72" cy="-55" rx="0.72" ry="0.72"/>
</g>
<!-- 8&#45;&gt;10 -->
<g id="edge5" class="edge">
<title>8&#45;&gt;10</title>
<path fill="none" stroke="black" d="M17.84,-55.1C20.22,-55.69 32.58,-58.79 42.08,-61.16"/>
<polygon fill="black" stroke="black" points="41.07,-64.51 51.62,-63.54 42.76,-57.72 41.07,-64.51"/>
</g>
<!-- 9 -->
<g id="node9" class="node">
<title>9</title>
<ellipse fill="none" stroke="black" cx="16.72" cy="-112" rx="0.72" ry="0.72"/>
</g>
<!-- 10&#45;&gt;1 -->
<g id="edge1" class="edge">
<title>10&#45;&gt;1</title>
<path fill="none" stroke="black" d="M55.28,-64C57.63,-64 69.72,-64 79.17,-64"/>
<polygon fill="black" stroke="black" points="79.01,-67.5 89.01,-64 79.01,-60.5 79.01,-67.5"/>
</g>
<!-- 11 -->
<g id="node11" class="node">
<title>11</title>
<ellipse fill="none" stroke="black" cx="16.72" cy="-93" rx="0.72" ry="0.72"/>
</g>
<!-- 11&#45;&gt;5 -->
<g id="edge4" class="edge">
<title>11&#45;&gt;5</title>
<path fill="none" stroke="black" d="M17.84,-93.1C20.22,-93.69 32.58,-96.79 42.08,-99.16"/>
<polygon fill="black" stroke="black" points="41.07,-102.51 51.62,-101.54 42.76,-95.72 41.07,-102.51"/>
</g>
<!-- 11&#45;&gt;10 -->
<g id="edge7" class="edge">
<title>11&#45;&gt;10</title>
<path fill="none" stroke="black" d="M17.84,-92.67C20.42,-90.6 34.76,-79.04 44.44,-71.25"/>
<polygon fill="black" stroke="black" points="46.31,-74.24 51.91,-65.24 41.92,-68.78 46.31,-74.24"/>
</g>
</g>
</svg>
