<?xml version="1.0" encoding="UTF-8" standalone="no"?>
<!DOCTYPE svg PUBLIC "-//W3C//DTD SVG 1.1//EN"
 "http://www.w3.org/Graphics/SVG/1.1/DTD/svg11.dtd">
<!-- Generated by graphviz version 12.0.0 (20240704.0754)
 -->
<!-- Title: G Pages: 1 -->
<svg width="191pt" height="137pt"
 viewBox="0.00 0.00 191.20 137.00" xmlns="http://www.w3.org/2000/svg" xmlns:xlink="http://www.w3.org/1999/xlink">
<g id="graph0" class="graph" transform="scale(1 1) rotate(0) translate(4 133)">
<title>G</title>
<polygon fill="white" stroke="none" points="-4,4 -4,-133 187.2,-133 187.2,4 -4,4"/>
<g id="clust1" class="cluster">
<title>cluster_</title>
</g>
<!-- 0 -->
<g id="node1" class="node">
<title>0</title>
<ellipse fill="none" stroke="black" cx="16.72" cy="-17" rx="0.72" ry="0.72"/>
</g>
<!-- 5 -->
<g id="node6" class="node">
<title>5</title>
<ellipse fill="none" stroke="black" cx="54.16" cy="-17" rx="0.72" ry="0.72"/>
</g>
<!-- 0&#45;&gt;5 -->
<g id="edge8" class="edge">
<title>0&#45;&gt;5</title>
<path fill="none" stroke="black" d="M17.84,-17C20.19,-17 32.28,-17 41.73,-17"/>
<polygon fill="black" stroke="black" points="41.57,-20.5 51.57,-17 41.57,-13.5 41.57,-20.5"/>
</g>
<!-- 1 -->
<g id="node2" class="node">
<title>1</title>
<ellipse fill="none" stroke="black" cx="166.48" cy="-102" rx="0.72" ry="0.72"/>
</g>
<!-- 2 -->
<g id="node3" class="node">
<title>2</title>
<ellipse fill="none" stroke="black" cx="129.04" cy="-92" rx="0.72" ry="0.72"/>
</g>
<!-- 2&#45;&gt;1 -->
<g id="edge6" class="edge">
<title>2&#45;&gt;1</title>
<path fill="none" stroke="black" d="M130.16,-92.11C132.54,-92.77 144.9,-96.21 154.4,-98.84"/>
<polygon fill="black" stroke="black" points="153.37,-102.19 163.95,-101.5 155.25,-95.45 153.37,-102.19"/>
</g>
<!-- 3 -->
<g id="node4" class="node">
<title>3</title>
<ellipse fill="none" stroke="black" cx="54.16" cy="-92" rx="0.72" ry="0.72"/>
</g>
<!-- 6 -->
<g id="node7" class="node">
<title>6</title>
<ellipse fill="none" stroke="black" cx="91.6" cy="-92" rx="0.72" ry="0.72"/>
</g>
<!-- 3&#45;&gt;6 -->
<g id="edge5" class="edge">
<title>3&#45;&gt;6</title>
<path fill="none" stroke="black" d="M55.28,-92C57.63,-92 69.72,-92 79.17,-92"/>
<polygon fill="black" stroke="black" points="79.01,-95.5 89.01,-92 79.01,-88.5 79.01,-95.5"/>
</g>
<!-- 4 -->
<g id="node5" class="node">
<title>4</title>
<ellipse fill="none" stroke="black" cx="16.72" cy="-36" rx="0.72" ry="0.72"/>
</g>
<!-- 9 -->
<g id="node10" class="node">
<title>9</title>
<ellipse fill="none" stroke="black" cx="54.16" cy="-36" rx="0.72" ry="0.72"/>
</g>
<!-- 4&#45;&gt;9 -->
<g id="edge7" class="edge">
<title>4&#45;&gt;9</title>
<path fill="none" stroke="black" d="M17.84,-36C20.19,-36 32.28,-36 41.73,-36"/>
<polygon fill="black" stroke="black" points="41.57,-39.5 51.57,-36 41.57,-32.5 41.57,-39.5"/>
</g>
<!-- 5&#45;&gt;6 -->
<g id="edge2" class="edge">
<title>5&#45;&gt;6</title>
<path fill="none" stroke="black" d="M55.11,-17.48C57.42,-22.28 76.49,-62.01 85.8,-81.42"/>
<polygon fill="black" stroke="black" points="82.53,-82.7 90.02,-90.2 88.84,-79.67 82.53,-82.7"/>
</g>
<!-- 6&#45;&gt;2 -->
<g id="edge1" class="edge">
<title>6&#45;&gt;2</title>
<path fill="none" stroke="black" d="M92.72,-92C95.07,-92 107.16,-92 116.61,-92"/>
<polygon fill="black" stroke="black" points="116.45,-95.5 126.45,-92 116.45,-88.5 116.45,-95.5"/>
</g>
<!-- 7 -->
<g id="node8" class="node">
<title>7</title>
<ellipse fill="none" stroke="black" cx="16.72" cy="-55" rx="0.72" ry="0.72"/>
</g>
<!-- 8 -->
<g id="node9" class="node">
<title>8</title>
<ellipse fill="none" stroke="black" cx="16.72" cy="-74" rx="0.72" ry="0.72"/>
</g>
<!-- 10 -->
<g id="node11" class="node">
<title>10</title>
<ellipse fill="none" stroke="black" cx="16.72" cy="-93" rx="0.72" ry="0.72"/>
</g>
<!-- 11 -->
<g id="node12" class="node">
<title>11</title>
<ellipse fill="none" stroke="black" cx="16.72" cy="-112" rx="0.72" ry="0.72"/>
</g>
<!-- 11&#45;&gt;1 -->
<g id="edge4" class="edge">
<title>11&#45;&gt;1</title>
<path fill="none" stroke="black" d="M17.87,-111.97C25.01,-111.49 120.15,-105.08 153.95,-102.8"/>
<polygon fill="black" stroke="black" points="154.11,-106.29 163.85,-102.13 153.64,-99.31 154.11,-106.29"/>
</g>
<!-- 11&#45;&gt;3 -->
<g id="edge3" class="edge">
<title>11&#45;&gt;3</title>
<path fill="none" stroke="black" d="M17.84,-111.78C20.31,-110.41 33.5,-103.08 43.11,-97.74"/>
<polygon fill="black" stroke="black" points="44.72,-100.85 51.76,-92.93 41.32,-94.73 44.72,-100.85"/>
</g>
</g>
</svg>
