<?xml version="1.0" encoding="UTF-8" standalone="no"?>
<!DOCTYPE svg PUBLIC "-//W3C//DTD SVG 1.1//EN"
 "http://www.w3.org/Graphics/SVG/1.1/DTD/svg11.dtd">
<!-- Generated by graphviz version 12.0.0 (20240704.0754)
 -->
<!-- Title: G Pages: 1 -->
<svg width="154pt" height="137pt"
 viewBox="0.00 0.00 153.76 137.00" xmlns="http://www.w3.org/2000/svg" xmlns:xlink="http://www.w3.org/1999/xlink">
<g id="graph0" class="graph" transform="scale(1 1) rotate(0) translate(4 133)">
<title>G</title>
<polygon fill="white" stroke="none" points="-4,4 -4,-133 149.76,-133 149.76,4 -4,4"/>
<g id="clust1" class="cluster">
<title>cluster_</title>
</g>
<!-- 0 -->
<g id="node1" class="node">
<title>0</title>
<ellipse fill="none" stroke="black" cx="16.72" cy="-17" rx="0.72" ry="0.72"/>
</g>
<!-- 4 -->
<g id="node5" class="node">
<title>4</title>
<ellipse fill="none" stroke="black" cx="54.16" cy="-31" rx="0.72" ry="0.72"/>
</g>
<!-- 0&#45;&gt;4 -->
<g id="edge4" class="edge">
<title>0&#45;&gt;4</title>
<path fill="none" stroke="black" d="M17.84,-17.16C20.25,-18.09 32.88,-23.01 42.42,-26.72"/>
<polygon fill="black" stroke="black" points="41.08,-29.95 51.67,-30.31 43.62,-23.43 41.08,-29.95"/>
</g>
<!-- 1 -->
<g id="node2" class="node">
<title>1</title>
<ellipse fill="none" stroke="black" cx="91.6" cy="-26" rx="0.72" ry="0.72"/>
</g>
<!-- 2 -->
<g id="node3" class="node">
<title>2</title>
<ellipse fill="none" stroke="black" cx="16.72" cy="-55" rx="0.72" ry="0.72"/>
</g>
<!-- 3 -->
<g id="node4" class="node">
<title>3</title>
<ellipse fill="none" stroke="black" cx="16.72" cy="-36" rx="0.72" ry="0.72"/>
</g>
<!-- 3&#45;&gt;4 -->
<g id="edge5" class="edge">
<title>3&#45;&gt;4</title>
<path fill="none" stroke="black" d="M17.84,-35.94C20.19,-35.62 32.28,-33.94 41.73,-32.63"/>
<polygon fill="black" stroke="black" points="42.16,-36.1 51.58,-31.26 41.2,-29.17 42.16,-36.1"/>
</g>
<!-- 4&#45;&gt;1 -->
<g id="edge2" class="edge">
<title>4&#45;&gt;1</title>
<path fill="none" stroke="black" d="M55.28,-30.94C57.63,-30.62 69.72,-28.94 79.17,-27.63"/>
<polygon fill="black" stroke="black" points="79.6,-31.1 89.02,-26.26 78.64,-24.17 79.6,-31.1"/>
</g>
<!-- 8 -->
<g id="node9" class="node">
<title>8</title>
<ellipse fill="none" stroke="black" cx="91.6" cy="-45" rx="0.72" ry="0.72"/>
</g>
<!-- 4&#45;&gt;8 -->
<g id="edge1" class="edge">
<title>4&#45;&gt;8</title>
<path fill="none" stroke="black" d="M55.28,-31.16C57.69,-32.09 70.32,-37.01 79.86,-40.72"/>
<polygon fill="black" stroke="black" points="78.52,-43.95 89.11,-44.31 81.06,-37.43 78.52,-43.95"/>
</g>
<!-- 5 -->
<g id="node6" class="node">
<title>5</title>
<ellipse fill="none" stroke="black" cx="129.04" cy="-45" rx="0.72" ry="0.72"/>
</g>
<!-- 6 -->
<g id="node7" class="node">
<title>6</title>
<ellipse fill="none" stroke="black" cx="16.72" cy="-74" rx="0.72" ry="0.72"/>
</g>
<!-- 7 -->
<g id="node8" class="node">
<title>7</title>
<ellipse fill="none" stroke="black" cx="54.16" cy="-112" rx="0.72" ry="0.72"/>
</g>
<!-- 8&#45;&gt;5 -->
<g id="edge6" class="edge">
<title>8&#45;&gt;5</title>
<path fill="none" stroke="black" d="M92.72,-45C95.07,-45 107.16,-45 116.61,-45"/>
<polygon fill="black" stroke="black" points="116.45,-48.5 126.45,-45 116.45,-41.5 116.45,-48.5"/>
</g>
<!-- 10 -->
<g id="node10" class="node">
<title>10</title>
<ellipse fill="none" stroke="black" cx="16.72" cy="-93" rx="0.72" ry="0.72"/>
</g>
<!-- 11 -->
<g id="node11" class="node">
<title>11</title>
<ellipse fill="none" stroke="black" cx="16.72" cy="-112" rx="0.72" ry="0.72"/>
</g>
<!-- 11&#45;&gt;7 -->
<g id="edge3" class="edge">
<title>11&#45;&gt;7</title>
<path fill="none" stroke="black" d="M17.84,-112C20.19,-112 32.28,-112 41.73,-112"/>
<polygon fill="black" stroke="black" points="41.57,-115.5 51.57,-112 41.57,-108.5 41.57,-115.5"/>
</g>
</g>
</svg>
