<?xml version="1.0" encoding="UTF-8" standalone="no"?>
<!DOCTYPE svg PUBLIC "-//W3C//DTD SVG 1.1//EN"
 "http://www.w3.org/Graphics/SVG/1.1/DTD/svg11.dtd">
<!-- Generated by graphviz version 12.0.0 (20240704.0754)
 -->
<!-- Title: G Pages: 1 -->
<svg width="154pt" height="137pt"
 viewBox="0.00 0.00 153.76 137.00" xmlns="http://www.w3.org/2000/svg" xmlns:xlink="http://www.w3.org/1999/xlink">
<g id="graph0" class="graph" transform="scale(1 1) rotate(0) translate(4 133)">
<title>G</title>
<polygon fill="white" stroke="none" points="-4,4 -4,-133 149.76,-133 149.76,4 -4,4"/>
<g id="clust1" class="cluster">
<title>cluster_</title>
</g>
<!-- 0 -->
<g id="node1" class="node">
<title>0</title>
<ellipse fill="none" stroke="black" cx="54.16" cy="-112" rx="0.72" ry="0.72"/>
</g>
<!-- 4 -->
<g id="node5" class="node">
<title>4</title>
<ellipse fill="none" stroke="black" cx="91.6" cy="-102" rx="0.72" ry="0.72"/>
</g>
<!-- 0&#45;&gt;4 -->
<g id="edge3" class="edge">
<title>0&#45;&gt;4</title>
<path fill="none" stroke="black" d="M55.28,-111.89C57.66,-111.23 70.02,-107.79 79.52,-105.16"/>
<polygon fill="black" stroke="black" points="80.37,-108.55 89.07,-102.5 78.49,-101.81 80.37,-108.55"/>
</g>
<!-- 1 -->
<g id="node2" class="node">
<title>1</title>
<ellipse fill="none" stroke="black" cx="129.04" cy="-102" rx="0.72" ry="0.72"/>
</g>
<!-- 2 -->
<g id="node3" class="node">
<title>2</title>
<ellipse fill="none" stroke="black" cx="16.72" cy="-17" rx="0.72" ry="0.72"/>
</g>
<!-- 3 -->
<g id="node4" class="node">
<title>3</title>
<ellipse fill="none" stroke="black" cx="16.72" cy="-36" rx="0.72" ry="0.72"/>
</g>
<!-- 4&#45;&gt;1 -->
<g id="edge2" class="edge">
<title>4&#45;&gt;1</title>
<path fill="none" stroke="black" d="M92.72,-102C95.07,-102 107.16,-102 116.61,-102"/>
<polygon fill="black" stroke="black" points="116.45,-105.5 126.45,-102 116.45,-98.5 116.45,-105.5"/>
</g>
<!-- 5 -->
<g id="node6" class="node">
<title>5</title>
<ellipse fill="none" stroke="black" cx="16.72" cy="-55" rx="0.72" ry="0.72"/>
</g>
<!-- 6 -->
<g id="node7" class="node">
<title>6</title>
<ellipse fill="none" stroke="black" cx="16.72" cy="-74" rx="0.72" ry="0.72"/>
</g>
<!-- 7 -->
<g id="node8" class="node">
<title>7</title>
<ellipse fill="none" stroke="black" cx="54.16" cy="-93" rx="0.72" ry="0.72"/>
</g>
<!-- 7&#45;&gt;4 -->
<g id="edge1" class="edge">
<title>7&#45;&gt;4</title>
<path fill="none" stroke="black" d="M55.28,-93.1C57.66,-93.69 70.02,-96.79 79.52,-99.16"/>
<polygon fill="black" stroke="black" points="78.51,-102.51 89.06,-101.54 80.2,-95.72 78.51,-102.51"/>
</g>
<!-- 9 -->
<g id="node9" class="node">
<title>9</title>
<ellipse fill="none" stroke="black" cx="16.72" cy="-93" rx="0.72" ry="0.72"/>
</g>
<!-- 11 -->
<g id="node10" class="node">
<title>11</title>
<ellipse fill="none" stroke="black" cx="16.72" cy="-112" rx="0.72" ry="0.72"/>
</g>
<!-- 11&#45;&gt;7 -->
<g id="edge4" class="edge">
<title>11&#45;&gt;7</title>
<path fill="none" stroke="black" d="M17.84,-111.79C20.31,-110.49 33.5,-103.52 43.11,-98.45"/>
<polygon fill="black" stroke="black" points="44.53,-101.66 51.75,-93.89 41.27,-95.47 44.53,-101.66"/>
</g>
</g>
</svg>
