<?xml version="1.0" encoding="UTF-8" standalone="no"?>
<!DOCTYPE svg PUBLIC "-//W3C//DTD SVG 1.1//EN"
 "http://www.w3.org/Graphics/SVG/1.1/DTD/svg11.dtd">
<!-- Generated by graphviz version 12.0.0 (20240704.0754)
 -->
<!-- Title: G Pages: 1 -->
<svg width="154pt" height="119pt"
 viewBox="0.00 0.00 153.76 119.00" xmlns="http://www.w3.org/2000/svg" xmlns:xlink="http://www.w3.org/1999/xlink">
<g id="graph0" class="graph" transform="scale(1 1) rotate(0) translate(4 115)">
<title>G</title>
<polygon fill="white" stroke="none" points="-4,4 -4,-115 149.76,-115 149.76,4 -4,4"/>
<g id="clust1" class="cluster">
<title>cluster_</title>
</g>
<!-- 0 -->
<g id="node1" class="node">
<title>0</title>
<ellipse fill="none" stroke="black" cx="16.72" cy="-37" rx="0.72" ry="0.72"/>
</g>
<!-- 4 -->
<g id="node5" class="node">
<title>4</title>
<ellipse fill="none" stroke="black" cx="54.16" cy="-56" rx="0.72" ry="0.72"/>
</g>
<!-- 0&#45;&gt;4 -->
<g id="edge4" class="edge">
<title>0&#45;&gt;4</title>
<path fill="none" stroke="black" d="M17.84,-37.21C20.31,-38.51 33.5,-45.48 43.11,-50.55"/>
<polygon fill="black" stroke="black" points="41.27,-53.53 51.75,-55.11 44.53,-47.34 41.27,-53.53"/>
</g>
<!-- 5 -->
<g id="node6" class="node">
<title>5</title>
<ellipse fill="none" stroke="black" cx="129.04" cy="-84" rx="0.72" ry="0.72"/>
</g>
<!-- 0&#45;&gt;5 -->
<g id="edge9" class="edge">
<title>0&#45;&gt;5</title>
<path fill="none" stroke="black" d="M17.85,-37.43C21.91,-41.68 55.46,-75.93 90.88,-84 99.44,-85.95 109.38,-85.84 116.87,-85.31"/>
<polygon fill="black" stroke="black" points="117.03,-88.81 126.57,-84.21 116.24,-81.86 117.03,-88.81"/>
</g>
<!-- 10 -->
<g id="node11" class="node">
<title>10</title>
<ellipse fill="none" stroke="black" cx="91.6" cy="-17" rx="0.72" ry="0.72"/>
</g>
<!-- 0&#45;&gt;10 -->
<g id="edge7" class="edge">
<title>0&#45;&gt;10</title>
<path fill="none" stroke="black" d="M17.67,-36.94C19.92,-36.3 38.42,-31.09 53.44,-27 62.2,-24.61 72.14,-21.96 79.57,-19.99"/>
<polygon fill="black" stroke="black" points="80.41,-23.39 89.18,-17.45 78.62,-16.62 80.41,-23.39"/>
</g>
<!-- 1 -->
<g id="node2" class="node">
<title>1</title>
<ellipse fill="none" stroke="black" cx="91.6" cy="-36" rx="0.72" ry="0.72"/>
</g>
<!-- 2 -->
<g id="node3" class="node">
<title>2</title>
<ellipse fill="none" stroke="black" cx="91.6" cy="-74" rx="0.72" ry="0.72"/>
</g>
<!-- 2&#45;&gt;5 -->
<g id="edge6" class="edge">
<title>2&#45;&gt;5</title>
<path fill="none" stroke="black" d="M92.72,-74.11C95.1,-74.77 107.46,-78.21 116.96,-80.84"/>
<polygon fill="black" stroke="black" points="115.93,-84.19 126.51,-83.5 117.81,-77.45 115.93,-84.19"/>
</g>
<!-- 3 -->
<g id="node4" class="node">
<title>3</title>
<ellipse fill="none" stroke="black" cx="16.72" cy="-56" rx="0.72" ry="0.72"/>
</g>
<!-- 4&#45;&gt;1 -->
<g id="edge2" class="edge">
<title>4&#45;&gt;1</title>
<path fill="none" stroke="black" d="M55.28,-55.78C57.75,-54.41 70.94,-47.08 80.55,-41.74"/>
<polygon fill="black" stroke="black" points="82.16,-44.85 89.2,-36.93 78.76,-38.73 82.16,-44.85"/>
</g>
<!-- 4&#45;&gt;2 -->
<g id="edge3" class="edge">
<title>4&#45;&gt;2</title>
<path fill="none" stroke="black" d="M55.28,-56.2C57.75,-57.43 70.94,-64.03 80.55,-68.83"/>
<polygon fill="black" stroke="black" points="78.66,-71.8 89.17,-73.14 81.79,-65.54 78.66,-71.8"/>
</g>
<!-- 7 -->
<g id="node8" class="node">
<title>7</title>
<ellipse fill="none" stroke="black" cx="91.6" cy="-55" rx="0.72" ry="0.72"/>
</g>
<!-- 4&#45;&gt;7 -->
<g id="edge5" class="edge">
<title>4&#45;&gt;7</title>
<path fill="none" stroke="black" d="M55.28,-55.99C57.63,-55.92 69.72,-55.59 79.17,-55.33"/>
<polygon fill="black" stroke="black" points="79.11,-58.83 89.01,-55.05 78.92,-51.83 79.11,-58.83"/>
</g>
<!-- 4&#45;&gt;10 -->
<g id="edge8" class="edge">
<title>4&#45;&gt;10</title>
<path fill="none" stroke="black" d="M55.28,-55.56C57.95,-52.67 73.18,-36.17 82.84,-25.71"/>
<polygon fill="black" stroke="black" points="85.29,-28.22 89.5,-18.5 80.14,-23.47 85.29,-28.22"/>
</g>
<!-- 6 -->
<g id="node7" class="node">
<title>6</title>
<ellipse fill="none" stroke="black" cx="54.16" cy="-37" rx="0.72" ry="0.72"/>
</g>
<!-- 6&#45;&gt;10 -->
<g id="edge1" class="edge">
<title>6&#45;&gt;10</title>
<path fill="none" stroke="black" d="M55.28,-36.78C57.75,-35.41 70.94,-28.08 80.55,-22.74"/>
<polygon fill="black" stroke="black" points="82.16,-25.85 89.2,-17.93 78.76,-19.73 82.16,-25.85"/>
</g>
<!-- 8 -->
<g id="node9" class="node">
<title>8</title>
<ellipse fill="none" stroke="black" cx="16.72" cy="-75" rx="0.72" ry="0.72"/>
</g>
<!-- 9 -->
<g id="node10" class="node">
<title>9</title>
<ellipse fill="none" stroke="black" cx="129.04" cy="-17" rx="0.72" ry="0.72"/>
</g>
<!-- 10&#45;&gt;9 -->
<g id="edge10" class="edge">
<title>10&#45;&gt;9</title>
<path fill="none" stroke="black" d="M92.72,-17C95.07,-17 107.16,-17 116.61,-17"/>
<polygon fill="black" stroke="black" points="116.45,-20.5 126.45,-17 116.45,-13.5 116.45,-20.5"/>
</g>
<!-- 11 -->
<g id="node12" class="node">
<title>11</title>
<ellipse fill="none" stroke="black" cx="16.72" cy="-94" rx="0.72" ry="0.72"/>
</g>
</g>
</svg>
