<?xml version="1.0" encoding="UTF-8" standalone="no"?>
<!DOCTYPE svg PUBLIC "-//W3C//DTD SVG 1.1//EN"
 "http://www.w3.org/Graphics/SVG/1.1/DTD/svg11.dtd">
<!-- Generated by graphviz version 12.0.0 (20240704.0754)
 -->
<!-- Title: G Pages: 1 -->
<svg width="191pt" height="99pt"
 viewBox="0.00 0.00 191.20 99.00" xmlns="http://www.w3.org/2000/svg" xmlns:xlink="http://www.w3.org/1999/xlink">
<g id="graph0" class="graph" transform="scale(1 1) rotate(0) translate(4 95)">
<title>G</title>
<polygon fill="white" stroke="none" points="-4,4 -4,-95 187.2,-95 187.2,4 -4,4"/>
<g id="clust1" class="cluster">
<title>cluster_</title>
</g>
<!-- 0 -->
<g id="node1" class="node">
<title>0</title>
<ellipse fill="none" stroke="black" cx="91.6" cy="-17" rx="0.72" ry="0.72"/>
</g>
<!-- 1 -->
<g id="node2" class="node">
<title>1</title>
<ellipse fill="none" stroke="black" cx="129.04" cy="-17" rx="0.72" ry="0.72"/>
</g>
<!-- 0&#45;&gt;1 -->
<g id="edge1" class="edge">
<title>0&#45;&gt;1</title>
<path fill="none" stroke="black" d="M92.72,-17C95.07,-17 107.16,-17 116.61,-17"/>
<polygon fill="black" stroke="black" points="116.45,-20.5 126.45,-17 116.45,-13.5 116.45,-20.5"/>
</g>
<!-- 2 -->
<g id="node3" class="node">
<title>2</title>
<ellipse fill="none" stroke="black" cx="91.6" cy="-36" rx="0.72" ry="0.72"/>
</g>
<!-- 2&#45;&gt;1 -->
<g id="edge6" class="edge">
<title>2&#45;&gt;1</title>
<path fill="none" stroke="black" d="M92.72,-35.79C95.19,-34.49 108.38,-27.52 117.99,-22.45"/>
<polygon fill="black" stroke="black" points="119.41,-25.66 126.63,-17.89 116.15,-19.47 119.41,-25.66"/>
</g>
<!-- 4 -->
<g id="node5" class="node">
<title>4</title>
<ellipse fill="none" stroke="black" cx="129.04" cy="-36" rx="0.72" ry="0.72"/>
</g>
<!-- 2&#45;&gt;4 -->
<g id="edge3" class="edge">
<title>2&#45;&gt;4</title>
<path fill="none" stroke="black" d="M92.72,-36C95.07,-36 107.16,-36 116.61,-36"/>
<polygon fill="black" stroke="black" points="116.45,-39.5 126.45,-36 116.45,-32.5 116.45,-39.5"/>
</g>
<!-- 3 -->
<g id="node4" class="node">
<title>3</title>
<ellipse fill="none" stroke="black" cx="166.48" cy="-26" rx="0.72" ry="0.72"/>
</g>
<!-- 4&#45;&gt;3 -->
<g id="edge5" class="edge">
<title>4&#45;&gt;3</title>
<path fill="none" stroke="black" d="M130.16,-35.89C132.54,-35.23 144.9,-31.79 154.4,-29.16"/>
<polygon fill="black" stroke="black" points="155.25,-32.55 163.95,-26.5 153.37,-25.81 155.25,-32.55"/>
</g>
<!-- 7 -->
<g id="node8" class="node">
<title>7</title>
<ellipse fill="none" stroke="black" cx="166.48" cy="-45" rx="0.72" ry="0.72"/>
</g>
<!-- 4&#45;&gt;7 -->
<g id="edge2" class="edge">
<title>4&#45;&gt;7</title>
<path fill="none" stroke="black" d="M130.16,-36.1C132.54,-36.69 144.9,-39.79 154.4,-42.16"/>
<polygon fill="black" stroke="black" points="153.39,-45.51 163.94,-44.54 155.08,-38.72 153.39,-45.51"/>
</g>
<!-- 5 -->
<g id="node6" class="node">
<title>5</title>
<ellipse fill="none" stroke="black" cx="16.72" cy="-17" rx="0.72" ry="0.72"/>
</g>
<!-- 5&#45;&gt;2 -->
<g id="edge9" class="edge">
<title>5&#45;&gt;2</title>
<path fill="none" stroke="black" d="M17.67,-17.07C19.92,-17.72 38.37,-23.1 53.44,-27 62.18,-29.26 72.11,-31.64 79.55,-33.39"/>
<polygon fill="black" stroke="black" points="78.64,-36.77 89.17,-35.61 80.21,-29.95 78.64,-36.77"/>
</g>
<!-- 6 -->
<g id="node7" class="node">
<title>6</title>
<ellipse fill="none" stroke="black" cx="54.16" cy="-17" rx="0.72" ry="0.72"/>
</g>
<!-- 5&#45;&gt;6 -->
<g id="edge7" class="edge">
<title>5&#45;&gt;6</title>
<path fill="none" stroke="black" d="M17.84,-17C20.19,-17 32.28,-17 41.73,-17"/>
<polygon fill="black" stroke="black" points="41.57,-20.5 51.57,-17 41.57,-13.5 41.57,-20.5"/>
</g>
<!-- 6&#45;&gt;2 -->
<g id="edge4" class="edge">
<title>6&#45;&gt;2</title>
<path fill="none" stroke="black" d="M55.28,-17.21C57.75,-18.51 70.94,-25.48 80.55,-30.55"/>
<polygon fill="black" stroke="black" points="78.71,-33.53 89.19,-35.11 81.97,-27.34 78.71,-33.53"/>
</g>
<!-- 8 -->
<g id="node9" class="node">
<title>8</title>
<ellipse fill="none" stroke="black" cx="16.72" cy="-36" rx="0.72" ry="0.72"/>
</g>
<!-- 9 -->
<g id="node10" class="node">
<title>9</title>
<ellipse fill="none" stroke="black" cx="16.72" cy="-55" rx="0.72" ry="0.72"/>
</g>
<!-- 10 -->
<g id="node11" class="node">
<title>10</title>
<ellipse fill="none" stroke="black" cx="16.72" cy="-74" rx="0.72" ry="0.72"/>
</g>
<!-- 11 -->
<g id="node12" class="node">
<title>11</title>
<ellipse fill="none" stroke="black" cx="54.16" cy="-74" rx="0.72" ry="0.72"/>
</g>
<!-- 10&#45;&gt;11 -->
<g id="edge8" class="edge">
<title>10&#45;&gt;11</title>
<path fill="none" stroke="black" d="M17.84,-74C20.19,-74 32.28,-74 41.73,-74"/>
<polygon fill="black" stroke="black" points="41.57,-77.5 51.57,-74 41.57,-70.5 41.57,-77.5"/>
</g>
</g>
</svg>
