<?xml version="1.0" encoding="UTF-8" standalone="no"?>
<!DOCTYPE svg PUBLIC "-//W3C//DTD SVG 1.1//EN"
 "http://www.w3.org/Graphics/SVG/1.1/DTD/svg11.dtd">
<!-- Generated by graphviz version 12.0.0 (20240704.0754)
 -->
<!-- Title: G Pages: 1 -->
<svg width="116pt" height="137pt"
 viewBox="0.00 0.00 116.32 137.00" xmlns="http://www.w3.org/2000/svg" xmlns:xlink="http://www.w3.org/1999/xlink">
<g id="graph0" class="graph" transform="scale(1 1) rotate(0) translate(4 133)">
<title>G</title>
<polygon fill="white" stroke="none" points="-4,4 -4,-133 112.32,-133 112.32,4 -4,4"/>
<g id="clust1" class="cluster">
<title>cluster_</title>
</g>
<!-- 0 -->
<g id="node1" class="node">
<title>0</title>
<ellipse fill="none" stroke="black" cx="16.72" cy="-74" rx="0.72" ry="0.72"/>
</g>
<!-- 4 -->
<g id="node4" class="node">
<title>4</title>
<ellipse fill="none" stroke="black" cx="54.16" cy="-83" rx="0.72" ry="0.72"/>
</g>
<!-- 0&#45;&gt;4 -->
<g id="edge3" class="edge">
<title>0&#45;&gt;4</title>
<path fill="none" stroke="black" d="M17.84,-74.1C20.22,-74.69 32.58,-77.79 42.08,-80.16"/>
<polygon fill="black" stroke="black" points="41.07,-83.51 51.62,-82.54 42.76,-76.72 41.07,-83.51"/>
</g>
<!-- 10 -->
<g id="node9" class="node">
<title>10</title>
<ellipse fill="none" stroke="black" cx="54.16" cy="-64" rx="0.72" ry="0.72"/>
</g>
<!-- 0&#45;&gt;10 -->
<g id="edge5" class="edge">
<title>0&#45;&gt;10</title>
<path fill="none" stroke="black" d="M17.84,-73.89C20.22,-73.23 32.58,-69.79 42.08,-67.16"/>
<polygon fill="black" stroke="black" points="42.93,-70.55 51.63,-64.5 41.05,-63.81 42.93,-70.55"/>
</g>
<!-- 1 -->
<g id="node2" class="node">
<title>1</title>
<ellipse fill="none" stroke="black" cx="91.6" cy="-63" rx="0.72" ry="0.72"/>
</g>
<!-- 3 -->
<g id="node3" class="node">
<title>3</title>
<ellipse fill="none" stroke="black" cx="16.72" cy="-17" rx="0.72" ry="0.72"/>
</g>
<!-- 4&#45;&gt;1 -->
<g id="edge2" class="edge">
<title>4&#45;&gt;1</title>
<path fill="none" stroke="black" d="M55.28,-82.78C57.75,-81.41 70.94,-74.08 80.55,-68.74"/>
<polygon fill="black" stroke="black" points="82.16,-71.85 89.2,-63.93 78.76,-65.73 82.16,-71.85"/>
</g>
<!-- 5 -->
<g id="node5" class="node">
<title>5</title>
<ellipse fill="none" stroke="black" cx="16.72" cy="-36" rx="0.72" ry="0.72"/>
</g>
<!-- 6 -->
<g id="node6" class="node">
<title>6</title>
<ellipse fill="none" stroke="black" cx="16.72" cy="-55" rx="0.72" ry="0.72"/>
</g>
<!-- 6&#45;&gt;1 -->
<g id="edge6" class="edge">
<title>6&#45;&gt;1</title>
<path fill="none" stroke="black" d="M17.68,-54.97C20.04,-54.64 39.39,-52.09 54.88,-54 63.39,-55.05 72.79,-57.44 79.84,-59.49"/>
<polygon fill="black" stroke="black" points="78.62,-62.78 89.21,-62.46 80.74,-56.11 78.62,-62.78"/>
</g>
<!-- 6&#45;&gt;10 -->
<g id="edge1" class="edge">
<title>6&#45;&gt;10</title>
<path fill="none" stroke="black" d="M17.84,-55.1C20.22,-55.69 32.58,-58.79 42.08,-61.16"/>
<polygon fill="black" stroke="black" points="41.07,-64.51 51.62,-63.54 42.76,-57.72 41.07,-64.51"/>
</g>
<!-- 8 -->
<g id="node7" class="node">
<title>8</title>
<ellipse fill="none" stroke="black" cx="16.72" cy="-93" rx="0.72" ry="0.72"/>
</g>
<!-- 9 -->
<g id="node8" class="node">
<title>9</title>
<ellipse fill="none" stroke="black" cx="16.72" cy="-112" rx="0.72" ry="0.72"/>
</g>
<!-- 11 -->
<g id="node10" class="node">
<title>11</title>
<ellipse fill="none" stroke="black" cx="54.16" cy="-112" rx="0.72" ry="0.72"/>
</g>
<!-- 9&#45;&gt;11 -->
<g id="edge4" class="edge">
<title>9&#45;&gt;11</title>
<path fill="none" stroke="black" d="M17.84,-112C20.19,-112 32.28,-112 41.73,-112"/>
<polygon fill="black" stroke="black" points="41.57,-115.5 51.57,-112 41.57,-108.5 41.57,-115.5"/>
</g>
</g>
</svg>
